<?xml version="1.0" encoding="UTF-8" standalone="no"?>
<!-- Created with Inkscape (http://www.inkscape.org/) -->

<svg
   width="3829.2329"
   height="3835.8491"
   viewBox="0 0 1080.6946 1082.5619"
   version="1.1"
   id="svg103508"
   xmlns="http://www.w3.org/2000/svg"
   xmlns:svg="http://www.w3.org/2000/svg">
  <g
     id="layer1"
     transform="matrix(1.13778,0,0,1.13778,349.86111,363.87422)"
     style="display:inline">
    <g
       id="g20890"
       style="display:inline;fill:#6699ff"
       transform="translate(-341.37382,55.91614)">
      <path
         id="path17804-4"
         style="display:inline;opacity:1;fill:#ffffff;stroke-width:0;paint-order:markers stroke fill"
         d="m 495.13137,-375.72407 c -2.74381,-0.01 -5.48978,0.007 -8.2369,0.0514 C 307.9001,-376.75893 135.68168,-261.10062 68.870908,-95.068239 -3.6143776,72.847755 39.244718,281.67409 172.16382,407.36522 c 127.7222,127.08302 333.48489,164.95432 498.05971,91.53832 6.96239,-2.82264 13.88246,-5.93019 20.73561,-9.22569 -33.7967,-47.11504 -36.05149,-109.90047 -5.72154,-159.31846 10.58278,-17.07757 24.62074,-31.75266 41.21204,-43.08255 -35.9864,-82.22793 -123.06207,-141.8881 -213.01227,-146.25193 3.15401,17.62427 89.21968,83.48265 89.21968,83.48265 l -73.53801,1.58613 -27.71723,75.97291 -25.66506,-75.79075 -72.64272,0.20008 c 0,0 54.51165,-42.11875 88.83792,-83.44484 l -17.35938,-0.66906 c -102.6164,12.1729 -192.89696,96.09816 -211.93286,197.06847 -8.8814,60.41835 -60.68468,-22.76753 -79.29103,-43.69154 C 86.492888,163.53614 92.773998,-31.852699 198.23825,-157.39868 296.6571,-282.41569 478.5847,-330.08481 625.73797,-270.0035 c 130.22455,49.1998 224.97969,176.250551 235.70849,315.014077 6.53307,71.787693 -2.55049,146.736003 -38.06349,210.110293 28.63408,6.87401 17.07536,-3.55302 73.02399,36.97394 63.77342,-115.61697 63.11721,-293.1291104 7.74564,-401.90152 -70.53596,-158.16222 -236.1608,-265.30144 -409.02123,-265.91736 z m -5.3829,244.62412 c -7.97864,-0.0135 -16.06577,0.66171 -24.19132,2.07303 -74.29057,12.90353 -124.77718,82.643465 -113.83633,157.248328 l 2.88934,14.374586 c 16.0179,62.455146 70.0617,104.855306 130.69915,96.507476 10.38729,-1.42999 21.89431,-0.20932 32.793,-0.98635 C 597.46643,132.45871 640.60875,54.549721 625.75154,-19.374899 612.5193,-85.214049 554.71738,-130.98989 489.74847,-131.09995 Z m 319.61698,436.45604 c -35.39645,-0.49428 -68.43975,17.67981 -86.97707,47.83806 -13.76487,22.3941 -18.20284,49.29215 -12.36164,74.92117 5.84119,25.62904 22.37195,46.66916 43.60529,62.16467 l 108.04456,85.46168 c 103.99502,-40.49003 98.10124,-87.39136 122.0301,-144.06312 L 866.06632,324.67221 c -15.00693,-8.8084 -39.30154,-19.07315 -56.70087,-19.31612 z m -0.67777,48.52408 c 8.99332,0.12554 17.79979,2.58524 25.55652,7.1381 24.37371,14.3062 32.82728,45.4801 19.02012,70.13996 l -2.21351,3.60153 c -15.76737,23.45477 -47.39899,29.98958 -71.16994,14.70305 -23.77111,-15.2865 -30.94865,-46.77867 -16.14919,-70.85601 9.58131,-15.58813 26.6605,-24.98199 44.956,-24.72663 z" />
    </g>
  </g>
</svg>
