<?xml version="1.0" encoding="UTF-8" standalone="no"?>
<!-- Created with Inkscape (http://www.inkscape.org/) -->

<svg
   width="3829.2332"
   height="3835.8496"
   viewBox="0 0 1080.6947 1082.562"
   version="1.1"
   id="svg103508"
   sodipodi:docname="___MY-PERFECT-LOG0-FINAL.svg"
   inkscape:version="1.1.2 (0a00cf5339, 2022-02-04)"
   xmlns:inkscape="http://www.inkscape.org/namespaces/inkscape"
   xmlns:sodipodi="http://sodipodi.sourceforge.net/DTD/sodipodi-0.dtd"
   xmlns:xlink="http://www.w3.org/1999/xlink"
   xmlns="http://www.w3.org/2000/svg"
   xmlns:svg="http://www.w3.org/2000/svg">
  <sodipodi:namedview
     id="namedview103510"
     pagecolor="#ffffff"
     bordercolor="#666666"
     borderopacity="1.0"
     inkscape:pageshadow="2"
     inkscape:pageopacity="0.0"
     inkscape:pagecheckerboard="0"
     inkscape:document-units="px"
     showgrid="true"
     inkscape:zoom="0.053150876"
     inkscape:cx="-2709.2686"
     inkscape:cy="-987.75418"
     inkscape:window-width="1920"
     inkscape:window-height="1022"
     inkscape:window-x="0"
     inkscape:window-y="0"
     inkscape:window-maximized="1"
     inkscape:current-layer="g20890"
     inkscape:snap-global="false">
    <inkscape:grid
       type="xygrid"
       id="grid32738"
       originx="-38.916227"
       originy="-38.459103" />
  </sodipodi:namedview>
  <defs
     id="defs103505">
    <linearGradient
       id="linearGradient3448"
       inkscape:swatch="solid">
      <stop
         style="stop-color:#000000;stop-opacity:1;"
         offset="0"
         id="stop3446" />
    </linearGradient>
    <inkscape:path-effect
       effect="join_type"
       id="path-effect85600"
       is_visible="true"
       lpeversion="1"
       linecap_type="butt"
       line_width="39.6875"
       linejoin_type="extrp_arc"
       miter_limit="100"
       attempt_force_join="true" />
  </defs>
  <g
     inkscape:label="Layer 1"
     id="layer1"
     transform="matrix(1.13778,0,0,1.13778,384.22877,413.1049)"
     style="display:inline">
    <path
       style="display:none;opacity:1;fill:#00cc00;fill-opacity:1;fill-rule:nonzero;stroke:none;stroke-width:0;stroke-miterlimit:4;stroke-dasharray:none;stroke-opacity:1;paint-order:markers stroke fill"
       id="path32762"
       sodipodi:type="arc"
       sodipodi:cx="116.51023"
       sodipodi:cy="93.183304"
       sodipodi:rx="460.4957"
       sodipodi:ry="457.38248"
       sodipodi:start="0.86901754"
       sodipodi:end="0.85029073"
       sodipodi:arc-type="slice"
       d="m 413.79573,442.48404 a 460.4957,457.38248 0 0 1 -647.56813,-52.39298 460.4957,457.38248 0 0 1 49.7173,-643.42843 460.4957,457.38248 0 0 1 648.03366,46.36831 460.4957,457.38248 0 0 1 -43.64952,643.8626 L 116.51023,93.183304 Z" />
    <path
       style="display:none;opacity:1;fill:#512dab;fill-opacity:1;stroke:none;stroke-width:0;stroke-miterlimit:4;stroke-dasharray:none;paint-order:markers stroke fill"
       sodipodi:type="inkscape:offset"
       inkscape:radius="5.6181889"
       inkscape:original="M 114.82422 -396.3418 C 61.855868 -396.02877 8.9907936 -387.03195 -41.101562 -369.80664 C -93.424 -351.84843 -142.71925 -324.89584 -186.0918 -290.47461 C -230.57735 -255.22531 -268.8354 -212.17691 -298.61133 -163.83398 C -327.783 -116.5328 -348.78082 -64.276087 -360.44727 -9.9414062 C -369.6239 32.694059 -373.04802 76.60015 -370.61523 120.16602 C -367.7771 171.16502 -356.88701 221.67736 -338.45508 269.30859 C -318.54622 320.85689 -289.78854 369.03299 -253.80273 411.03125 C -218.2089 452.64021 -175.54292 488.2191 -128.17188 515.75781 C -80.119355 543.73183 -27.287109 563.41116 27.369141 573.68359 C 80.839359 583.76394 136.05822 584.82468 189.89062 576.79297 C 240.23244 569.31536 289.44705 553.88303 335.07617 531.25195 C 371.53912 513.20664 405.7834 490.52983 436.66992 463.98633 C 422.61758 451.78264 408.54985 439.59167 395.09961 426.72266 C 387.98698 419.82324 380.92234 412.79298 375.01172 404.8125 C 370.99137 399.38298 367.67254 393.26337 366.45508 386.55664 C 365.06544 379.02896 365.8524 371.34619 366.0957 363.75586 C 366.60834 352.74954 366.40955 341.71778 365.33398 330.76758 C 365.1505 329.24258 364.5384 327.79813 364.14844 326.31445 C 354.21724 293.28297 337.17256 262.40666 314.44531 236.40234 C 290.67603 209.1362 260.73322 187.30326 227.53125 172.98633 C 201.79183 161.85112 174.08825 155.24019 146.10352 153.51758 C 145.55402 153.67587 145.90527 154.64654 146.14844 155.07812 C 154.43642 174.75993 162.72318 194.44148 171.01172 214.12305 C 161.63742 215.21725 152.26301 216.31047 142.88867 217.4043 C 138.19895 240.19521 133.53267 262.99215 128.82812 285.7793 C 128.64711 286.13974 128.47024 287.44989 128.28711 287.17969 C 127.43168 284.52424 127.05074 281.74564 126.41406 279.0332 C 122.04706 258.41149 117.6795 237.78967 113.3125 217.16797 C 103.25781 217.56504 93.203141 217.96264 83.148438 218.35938 C 85.728182 207.57422 89.114599 196.97339 93.275391 186.69336 C 97.045955 177.57578 101.43339 168.59541 107.51758 160.77539 C 111.37964 155.90397 116.07374 151.35635 122.00195 149.16016 C 124.48159 148.22904 127.14481 147.88864 129.78125 147.96094 C 138.75475 147.18336 147.73593 146.44825 156.70508 145.64453 C 179.83698 140.0306 201.58261 128.88086 219.63086 113.36914 C 240.67411 95.369769 256.65968 71.590387 265.5 45.363281 C 272.47316 24.788919 275.02531 2.7608576 272.98438 -18.865234 C 270.97028 -40.501256 264.41513 -61.78893 253.70312 -80.755859 C 240.17197 -104.86092 220.00386 -125.18661 195.98828 -138.87891 C 177.0006 -149.75077 155.69094 -156.43497 133.93164 -158.29297 C 110.32022 -160.32557 86.314419 -156.81136 64.296875 -147.95508 C 44.134797 -139.88093 25.744726 -127.36568 10.736328 -111.62109 C -7.1131078 -92.955994 -20.176271 -69.738394 -26.820312 -44.744141 C -34.47674 -16.178802 -33.791421 14.658858 -24.773438 42.865234 C -17.511184 65.725759 -4.8199357 86.852539 11.970703 104.01953 C 25.69297 118.09801 42.271742 129.58393 60.310547 137.4082 C 74.799578 143.72214 90.342464 147.72644 106.04883 149.24805 C 106.50912 149.42169 107.51585 149.04823 107.39062 149.80859 C 107.52841 151.25588 107.66858 152.70294 107.80469 154.15039 C 81.228413 156.7116 55.154192 163.61038 30.826172 174.62109 C 1.0665131 188.04926 -26.001692 207.56783 -48.115234 231.62695 C -68.838337 254.1178 -85.295233 280.64541 -96.242188 309.20117 C -100.83348 321.11956 -104.45016 333.36487 -107.11719 345.83789 C -107.4192 347.29754 -107.72093 348.75725 -108.02344 350.2168 C -108.82045 348.86703 -109.5519 347.46473 -110.39062 346.14844 C -139.0654 320.5233 -163.37595 290.02168 -181.90234 256.32031 C -203.68891 216.78406 -217.49933 172.88729 -222.29688 128 C -226.76993 86.578696 -223.54417 44.342105 -212.83398 4.0820312 C -202.1194 -36.29042 -183.96158 -74.680281 -159.45898 -108.51367 C -133.97429 -143.77941 -101.6491 -174.06838 -64.835938 -197.25391 C -29.136601 -219.77782 10.773804 -235.60061 52.222656 -243.60547 C 100.89626 -253.04833 151.63556 -251.74546 199.74023 -239.72656 C 243.9222 -228.74939 285.83203 -208.78274 322.22656 -181.43555 C 356.98002 -155.377 386.68735 -122.60777 409.18164 -85.445312 C 418.40616 -70.210369 426.46818 -54.264709 433.18359 -37.767578 C 444.24465 -9.1001803 451.52487 20.983836 455.35938 51.458984 C 460.94858 96.328227 458.94495 142.34181 447.66016 186.20117 C 439.73737 217.00841 427.10279 246.65811 409.81836 273.39062 C 402.88697 284.13664 395.21847 294.40869 386.9043 304.125 C 393.73773 307.66244 401.24859 310.30006 409.02539 310.2793 C 415.40536 310.3265 421.80084 308.85766 428.21289 309.57422 C 436.46702 310.38413 444.1209 314.01493 451.14844 318.22852 C 461.53341 324.53577 470.98011 332.24675 480.1543 340.17773 C 492.27109 350.75479 503.82079 361.96346 515.15234 373.37305 C 538.89174 339.29317 559.43364 302.91887 574.83398 264.30859 C 587.14648 233.51961 596.06476 201.43711 601.26172 168.70508 C 606.07851 138.46897 607.79255 107.73409 606.8457 77.103516 C 605.09052 22.060862 593.93333 -32.661361 574.00195 -84.005859 C 554.77395 -133.63606 527.3136 -180.18395 493.10547 -221.03711 C 458.008 -263.01249 415.80091 -299.03703 368.78906 -327.10156 C 319.27653 -356.70141 264.58107 -377.40084 207.86914 -388.00391 C 177.23758 -393.73645 146.01496 -396.53809 114.82422 -396.3418 z "
       xlink:href="#path17804"
       id="path886"
       inkscape:href="#path17804"
       d="m 114.78906,-401.95898 c -53.581748,0.31686 -107.0444749,9.4151 -157.716794,26.83984 -52.929295,18.1668 -102.779306,45.42262 -146.656246,80.24414 -44.99991,35.65768 -83.68967,79.19077 -113.81055,128.09375 -29.5091,47.8489 -50.7434,100.696411 -62.54492,155.660156 -9.28279,43.129487 -12.74599,87.531566 -10.28516,131.599614 2.871,51.58959 13.8837,102.67403 32.5293,150.85742 v -0.004 c 20.1401,52.14704 49.22216,100.86823 85.62695,143.35547 36.00636,42.09025 79.15231,78.06992 127.07227,105.92773 48.608115,28.29711 102.035948,48.19819 157.324215,58.58985 54.091053,10.19739 109.930885,11.26933 164.388675,3.14453 50.92521,-7.56427 100.69373,-23.1697 146.85156,-46.0625 36.88665,-18.255 71.51995,-41.18859 102.76367,-68.03906 a 5.6187507,5.6187507 0 0 0 0.0215,-8.50391 c -14.04587,-12.19807 -28.0329,-24.3226 -41.3418,-37.05469 l -0.004,-0.004 c -7.07665,-6.8646 -13.90601,-13.69021 -19.48047,-21.2168 -3.69887,-4.99536 -6.54067,-10.38381 -7.54492,-15.91602 a 5.6187507,5.6187507 0 0 0 -0.002,-0.0156 c -1.19268,-6.46072 -0.5274,-13.69561 -0.27344,-21.51953 0.5239,-11.24804 0.32362,-22.55032 -0.78125,-33.79883 a 5.6187507,5.6187507 0 0 0 -0.0137,-0.12305 c -0.31024,-2.57855 -1.07965,-4.25616 -1.33008,-5.20898 a 5.6187507,5.6187507 0 0 0 -0.0527,-0.18945 c -10.16292,-33.80219 -27.59049,-65.37192 -50.84961,-91.98633 l -0.004,-0.006 c -24.32676,-27.90403 -54.93722,-50.22293 -88.91406,-64.875 l -0.006,-0.002 c -21.17707,-9.16084 -43.65518,-15.16914 -66.52734,-18.15039 22.04272,-6.16743 42.68912,-17.11652 60.05468,-32.03906 l 0.01,-0.008 c 21.82574,-18.671711 38.36132,-43.276385 47.52734,-70.464844 7.23008,-21.332403 9.87243,-44.1370638 7.75781,-66.552735 v -0.0059 c -2.08702,-22.41066 -8.86729,-44.438554 -19.97656,-64.113281 -14.0361,-25.004601 -34.90787,-46.041231 -59.82226,-60.248051 -19.69782,-11.27846 -41.77901,-18.20753 -64.36524,-20.13671 h -0.004 c -24.48303,-2.10703 -49.352549,1.53151 -72.201176,10.7207 -20.925011,8.37967 -39.97032,21.34146 -55.5332028,37.66601 -6.356e-4,6.7e-4 -0.00132,0.001 -0.00195,0.002 -0.00127,0.001 -0.00264,0.003 -0.00391,0.004 -18.5057549,19.353448 -32.0239159,43.379643 -38.9160159,69.298831 -7.939905,29.622965 -7.233458,61.516297 2.121094,90.775391 7.532208,23.704813 20.6702979,45.571083 38.0800781,63.371098 14.2335849,14.60125 31.3947259,26.49358 50.1191409,34.61523 8.975109,3.91051 18.352899,6.8532 27.90039,9.01562 -19.779617,3.63874 -39.108136,9.6157 -57.464843,17.92383 -30.4537072,13.74225 -58.1283,33.69753 -80.761719,58.32227 l 0.0059,-0.004 c -21.210476,23.0198 -38.03786,50.14201 -49.242186,79.36914 -3.8696,10.04604 -6.89311,20.35879 -9.42188,30.79297 -26.32915,-24.36987 -48.78824,-52.93487 -66.06836,-84.36914 a 5.6187507,5.6187507 0 0 0 -0.004,-0.004 c -21.42256,-38.87568 -35.01092,-82.06777 -39.72852,-126.20704 a 5.6187507,5.6187507 0 0 0 0,-0.006 c -4.39832,-40.729325 -1.22463,-82.281624 9.30664,-121.8691362 a 5.6187507,5.6187507 0 0 0 0,-0.00391 c 10.53741,-39.7048665 28.40429,-77.4760305 52.4961,-110.7421875 a 5.6187507,5.6187507 0 0 0 0.002,-0.004 c 25.05817,-34.67552 56.863378,-64.47731 93.064453,-87.27734 a 5.6187507,5.6187507 0 0 0 0.0039,-0.002 c 35.105411,-22.14919 74.370258,-37.71708 115.125,-45.58789 a 5.6187507,5.6187507 0 0 0 0.0059,0 c 47.862121,-9.28543 97.789981,-8.00239 145.085941,3.81445 a 5.6187507,5.6187507 0 0 0 0.006,0.002 c 43.44164,10.79324 84.67829,30.43826 120.46679,57.33008 a 5.6187507,5.6187507 0 0 0 0.004,0.002 c 34.17423,25.62424 63.40231,57.86675 85.51953,94.406254 9.06476,14.971094 16.98497,30.634045 23.58008,46.826172 10.87593,28.1972164 18.05,57.826626 21.83008,87.86914 5.50971,44.236442 3.5216,89.546064 -7.56641,132.640624 a 5.6187507,5.6187507 0 0 0 0,0.002 c -7.78051,30.25399 -20.18535,59.3469 -37.11914,85.53711 a 5.6187507,5.6187507 0 0 0 -0.002,0.006 c -6.79226,10.53032 -14.31095,20.60023 -22.46289,30.12696 a 5.6187507,5.6187507 0 0 0 1.6875,8.64257 c 7.30272,3.78038 15.6383,6.79451 24.67968,6.7793 7.26172,0.0513 13.4323,-1.31248 18.58789,-0.73633 a 5.6187507,5.6187507 0 0 0 0.0742,0.008 c 6.96071,0.68299 13.87954,3.857 20.58008,7.87304 9.92824,6.03139 19.13171,13.51955 28.21484,21.3711 11.96789,10.44708 23.42413,21.56126 34.70704,32.92187 a 5.6187507,5.6187507 0 0 0 8.5957,-0.74805 c 23.94141,-34.36988 44.70183,-71.11166 60.28906,-110.18945 l 0.002,-0.004 c 12.46352,-31.16746 21.49406,-63.64991 26.75782,-96.80078 v -0.004 c 4.8768,-30.61453 6.60725,-61.70167 5.65039,-92.656252 a 5.6187507,5.6187507 0 0 0 0,-0.0059 C 610.68537,21.241681 599.40299,-34.098538 579.24023,-86.039062 v 0.0039 C 559.78944,-136.24043 532.02096,-183.31262 497.41602,-224.64062 l -0.004,-0.004 c -35.50295,-42.45935 -78.18534,-78.89002 -125.74023,-107.2793 l -0.004,-0.002 c -50.08549,-29.94178 -105.39817,-50.87593 -162.76563,-61.60156 v 0.002 c -30.9841,-5.79852 -62.56123,-8.63202 -94.11132,-8.43359 z m 25.59571,554.64648 c -1.63399,-0.0887 -0.78435,1.74116 0.58593,4.57031 7.32043,17.38413 14.64021,34.7681 21.96094,52.15235 -6.89761,0.80481 -13.79541,1.60918 -20.69336,2.41406 a 5.6187507,5.6187507 0 0 0 -4.85156,4.44726 c -3.04402,14.7932 -6.08473,29.58137 -9.125,44.3711 -3.15116,-14.87958 -6.30215,-29.75923 -9.45313,-44.63867 a 5.6187507,5.6187507 0 0 0 -5.71875,-4.44922 c -7.4876,0.29569 -14.973615,0.59102 -22.460934,0.88672 2.209013,-8.00349 4.731367,-15.9227 7.84375,-23.61524 3.673814,-8.88192 7.863624,-17.37253 13.457034,-24.57031 3.54056,-4.46362 7.56214,-8.17537 12.02343,-9.82813 a 5.6187507,5.6187507 0 0 0 0.0234,-0.008 c 1.66212,-0.62413 3.60064,-0.89996 5.65039,-0.84375 a 5.6187507,5.6187507 0 0 0 0.63867,-0.0176 c 3.36376,-0.29148 6.7477,-0.58515 10.11915,-0.87109 z" />
    <path
       id="path17804"
       style="display:none;opacity:1;fill:#512dab;fill-opacity:1;stroke:none;stroke-width:0;stroke-miterlimit:4;stroke-dasharray:none;paint-order:markers stroke fill"
       inkscape:label="logo"
       sodipodi:type="inkscape:offset"
       inkscape:radius="0"
       inkscape:original="M 114.82422 -396.3418 C 61.855869 -396.02877 8.9907941 -387.03195 -41.101562 -369.80664 C -93.423999 -351.84843 -142.71925 -324.89584 -186.0918 -290.47461 C -230.57735 -255.22531 -268.8354 -212.17691 -298.61133 -163.83398 C -327.783 -116.5328 -348.78082 -64.276087 -360.44727 -9.9414062 C -369.6239 32.694059 -373.04802 76.600154 -370.61523 120.16602 C -367.7771 171.16502 -356.88701 221.67736 -338.45508 269.30859 C -318.54622 320.85689 -289.78854 369.03299 -253.80273 411.03125 C -218.2089 452.64021 -175.54292 488.2191 -128.17188 515.75781 C -80.11936 543.73183 -27.287109 563.41116 27.369141 573.68359 C 80.839359 583.76394 136.05821 584.82468 189.89062 576.79297 C 240.23244 569.31536 289.44705 553.88303 335.07617 531.25195 C 371.53912 513.20664 405.7834 490.52983 436.66992 463.98633 C 422.61758 451.78264 408.54985 439.59167 395.09961 426.72266 C 387.98698 419.82324 380.92234 412.79298 375.01172 404.8125 C 370.99137 399.38298 367.67254 393.26337 366.45508 386.55664 C 365.06544 379.02896 365.8524 371.34619 366.0957 363.75586 C 366.60834 352.74954 366.40955 341.71778 365.33398 330.76758 C 365.1505 329.24258 364.5384 327.79813 364.14844 326.31445 C 354.21724 293.28297 337.17256 262.40666 314.44531 236.40234 C 290.67603 209.1362 260.73322 187.30326 227.53125 172.98633 C 201.79183 161.85112 174.08825 155.24019 146.10352 153.51758 C 145.55402 153.67587 145.90527 154.64654 146.14844 155.07812 C 154.43642 174.75993 162.72318 194.44148 171.01172 214.12305 C 161.63742 215.21725 152.26301 216.31047 142.88867 217.4043 C 138.19895 240.19521 133.53267 262.99215 128.82812 285.7793 C 128.64711 286.13974 128.47024 287.44989 128.28711 287.17969 C 127.43168 284.52424 127.05074 281.74564 126.41406 279.0332 C 122.04706 258.41149 117.6795 237.78967 113.3125 217.16797 C 103.25781 217.56504 93.203141 217.96264 83.148438 218.35938 C 85.728182 207.57422 89.114599 196.97339 93.275391 186.69336 C 97.045955 177.57578 101.43339 168.59541 107.51758 160.77539 C 111.37964 155.90397 116.07374 151.35635 122.00195 149.16016 C 124.48159 148.22904 127.14481 147.88864 129.78125 147.96094 C 138.75475 147.18336 147.73593 146.44825 156.70508 145.64453 C 179.83698 140.0306 201.58261 128.88086 219.63086 113.36914 C 240.67411 95.369768 256.65968 71.590387 265.5 45.363281 C 272.47316 24.788919 275.02532 2.760858 272.98438 -18.865234 C 270.97028 -40.501256 264.41513 -61.78893 253.70312 -80.755859 C 240.17197 -104.86092 220.00386 -125.18661 195.98828 -138.87891 C 177.0006 -149.75077 155.69094 -156.43497 133.93164 -158.29297 C 110.32022 -160.32557 86.314419 -156.81136 64.296875 -147.95508 C 44.134797 -139.88093 25.744726 -127.36568 10.736328 -111.62109 C -7.1131079 -92.95599 -20.176271 -69.738394 -26.820312 -44.744141 C -34.47674 -16.178802 -33.791421 14.658858 -24.773438 42.865234 C -17.511184 65.725759 -4.8199358 86.852538 11.970703 104.01953 C 25.69297 118.09801 42.271742 129.58393 60.310547 137.4082 C 74.799578 143.72214 90.342466 147.72644 106.04883 149.24805 C 106.50912 149.42169 107.51584 149.04823 107.39062 149.80859 C 107.52841 151.25588 107.66858 152.70294 107.80469 154.15039 C 81.228415 156.7116 55.154192 163.61038 30.826172 174.62109 C 1.0665132 188.04926 -26.001692 207.56783 -48.115234 231.62695 C -68.838337 254.1178 -85.295233 280.64541 -96.242188 309.20117 C -100.83348 321.11956 -104.45016 333.36487 -107.11719 345.83789 C -107.4192 347.29754 -107.72093 348.75725 -108.02344 350.2168 C -108.82045 348.86703 -109.55189 347.46473 -110.39062 346.14844 C -139.0654 320.5233 -163.37595 290.02168 -181.90234 256.32031 C -203.68891 216.78406 -217.49933 172.88729 -222.29688 128 C -226.76993 86.578696 -223.54417 44.342105 -212.83398 4.0820312 C -202.1194 -36.29042 -183.96158 -74.680279 -159.45898 -108.51367 C -133.97429 -143.77941 -101.6491 -174.06838 -64.835938 -197.25391 C -29.136601 -219.77782 10.773804 -235.60061 52.222656 -243.60547 C 100.89626 -253.04833 151.63556 -251.74546 199.74023 -239.72656 C 243.9222 -228.74939 285.83203 -208.78274 322.22656 -181.43555 C 356.98002 -155.377 386.68735 -122.60777 409.18164 -85.445312 C 418.40616 -70.210369 426.46818 -54.264709 433.18359 -37.767578 C 444.24465 -9.1001802 451.52488 20.983836 455.35938 51.458984 C 460.94858 96.328227 458.94495 142.34181 447.66016 186.20117 C 439.73737 217.00841 427.10279 246.65811 409.81836 273.39062 C 402.88697 284.13664 395.21847 294.40869 386.9043 304.125 C 393.73773 307.66244 401.24859 310.30006 409.02539 310.2793 C 415.40536 310.3265 421.80084 308.85766 428.21289 309.57422 C 436.46702 310.38413 444.1209 314.01493 451.14844 318.22852 C 461.53341 324.53577 470.98011 332.24675 480.1543 340.17773 C 492.27109 350.75479 503.82079 361.96346 515.15234 373.37305 C 538.89174 339.29317 559.43364 302.91887 574.83398 264.30859 C 587.14648 233.51961 596.06476 201.43711 601.26172 168.70508 C 606.07851 138.46897 607.79255 107.73409 606.8457 77.103516 C 605.09052 22.060862 593.93333 -32.661361 574.00195 -84.005859 C 554.77395 -133.63606 527.3136 -180.18395 493.10547 -221.03711 C 458.008 -263.01249 415.80091 -299.03703 368.78906 -327.10156 C 319.27653 -356.70141 264.58107 -377.40084 207.86914 -388.00391 C 177.23758 -393.73645 146.01496 -396.53809 114.82422 -396.3418 z "
       d="m 114.82422,-396.3418 c -52.968351,0.31303 -105.8334259,9.30985 -155.925782,26.53516 -52.322437,17.95821 -101.617688,44.9108 -144.990238,79.33203 -44.48555,35.2493 -82.7436,78.2977 -112.51953,126.64063 -29.17167,47.30118 -50.16949,99.557893 -61.83594,153.8925738 -9.17663,42.6354652 -12.60075,86.5415602 -10.16796,130.1074262 2.83813,50.999 13.72822,101.51134 32.16015,149.14257 19.90886,51.5483 48.66654,99.7244 84.65235,141.72266 35.59383,41.60896 78.25981,77.18785 125.63085,104.72656 48.05252,27.97402 100.884771,47.65335 155.541021,57.92578 53.470218,10.08035 108.689069,11.14109 162.521479,3.10938 50.34182,-7.47761 99.55643,-22.90994 145.18555,-45.54102 36.46295,-18.04531 70.70723,-40.72212 101.59375,-67.26562 -14.05234,-12.20369 -28.12007,-24.39466 -41.57031,-37.26367 -7.11263,-6.89942 -14.17727,-13.92968 -20.08789,-21.91016 -4.02035,-5.42952 -7.33918,-11.54913 -8.55664,-18.25586 -1.38964,-7.52768 -0.60268,-15.21045 -0.35938,-22.80078 0.51264,-11.00632 0.31385,-22.03808 -0.76172,-32.98828 -0.18348,-1.525 -0.79558,-2.96945 -1.18554,-4.45313 -9.9312,-33.03148 -26.97588,-63.90779 -49.70313,-89.91211 -23.76928,-27.26614 -53.71209,-49.09908 -86.91406,-63.41601 -25.73942,-11.13521 -53.443,-17.74614 -81.42773,-19.46875 -0.5495,0.15829 -0.19825,1.12896 0.0449,1.56054 8.28798,19.68181 16.57474,39.36336 24.86328,59.04493 -9.3743,1.0942 -18.74871,2.18742 -28.12305,3.28125 -4.68972,22.79091 -9.356,45.58785 -14.06055,68.375 -0.18101,0.36044 -0.35788,1.67059 -0.54101,1.40039 -0.85543,-2.65545 -1.23637,-5.43405 -1.87305,-8.14649 -4.367,-20.62171 -8.73456,-41.24353 -13.10156,-61.86523 -10.05469,0.39707 -20.109359,0.79467 -30.164062,1.19141 2.579744,-10.78516 5.966161,-21.38599 10.126953,-31.66602 3.770564,-9.11758 8.157999,-18.09795 14.242189,-25.91797 3.86206,-4.87142 8.55616,-9.41904 14.48437,-11.61523 2.47964,-0.93112 5.14286,-1.27152 7.7793,-1.19922 8.9735,-0.77758 17.95468,-1.51269 26.92383,-2.31641 23.1319,-5.61393 44.87753,-16.76367 62.92578,-32.27539 21.04325,-17.999372 37.02882,-41.778753 45.86914,-68.005859 6.97316,-20.574362 9.52532,-42.602423 7.48438,-64.228515 -2.0141,-21.636022 -8.56925,-42.923696 -19.28126,-61.890625 -13.53115,-24.105061 -33.69926,-44.430751 -57.71484,-58.123051 -18.98768,-10.87186 -40.29734,-17.55606 -62.05664,-19.41406 -23.61142,-2.0326 -47.617221,1.48161 -69.634765,10.33789 -20.162078,8.07415 -38.552149,20.5894 -53.560547,36.33399 -17.8494359,18.6651 -30.912599,41.882696 -37.55664,66.876949 -7.656428,28.565339 -6.971109,59.402999 2.046874,87.609375 7.262254,22.860525 19.9535022,43.987304 36.744141,61.154296 13.722267,14.07848 30.301039,25.5644 48.339844,33.38867 14.489031,6.31394 30.031919,10.31824 45.738283,11.83985 0.46029,0.17364 1.46701,-0.19982 1.34179,0.56054 0.13779,1.44729 0.27796,2.89435 0.41407,4.3418 -26.576275,2.56121 -52.650498,9.45999 -76.978518,20.4707 -29.7596588,13.42817 -56.827864,32.94674 -78.941406,57.00586 -20.723103,22.49085 -37.179999,49.01846 -48.126954,77.57422 -4.591292,11.91839 -8.207972,24.1637 -10.875002,36.63672 -0.30201,1.45965 -0.60374,2.91936 -0.90625,4.37891 -0.79701,-1.34977 -1.52845,-2.75207 -2.36718,-4.06836 -28.67478,-25.62514 -52.98533,-56.12676 -71.51172,-89.82813 -21.78657,-39.53625 -35.59699,-83.43302 -40.39454,-128.32031 -4.47305,-41.421304 -1.24729,-83.657895 9.4629,-123.9179688 10.71458,-40.3724512 28.8724,-78.7623102 53.375,-112.5957012 25.48469,-35.26574 57.80988,-65.55471 94.623042,-88.74024 35.699337,-22.52391 75.609742,-38.3467 117.058594,-46.35156 48.673604,-9.44286 99.412904,-8.13999 147.517574,3.87891 44.18197,10.97717 86.0918,30.94382 122.48633,58.29101 34.75346,26.05855 64.46079,58.82778 86.95508,95.990238 9.22452,15.234943 17.28654,31.180603 24.00195,47.677734 11.06106,28.6673978 18.34129,58.751414 22.17579,89.226562 5.5892,44.869243 3.58557,90.882826 -7.69922,134.742186 -7.92279,30.80724 -20.55737,60.45694 -37.8418,87.18945 -6.93139,10.74602 -14.59989,21.01807 -22.91406,30.73438 6.83343,3.53744 14.34429,6.17506 22.12109,6.1543 6.37997,0.0472 12.77545,-1.42164 19.1875,-0.70508 8.25413,0.80991 15.90801,4.44071 22.93555,8.6543 10.38497,6.30725 19.83167,14.01823 29.00586,21.94921 12.11679,10.57706 23.66649,21.78573 34.99804,33.19532 23.7394,-34.07988 44.2813,-70.45418 59.68164,-109.06446 12.3125,-30.78898 21.23078,-62.87148 26.42774,-95.60351 4.81679,-30.23611 6.53083,-60.97099 5.58398,-91.601564 -1.75518,-55.042654 -12.91237,-109.764877 -32.84375,-161.109375 -19.228,-49.630201 -46.68835,-96.178091 -80.89648,-137.031251 -35.09747,-41.97538 -77.30456,-77.99992 -124.31641,-106.06445 -49.51253,-29.59985 -104.20799,-50.29928 -160.91992,-60.90235 -30.63156,-5.73254 -61.85418,-8.53418 -93.04492,-8.33789 z" />
    <path
       id="path17804-9"
       style="display:none;opacity:1;fill:none;stroke:none;stroke-width:0;stroke-opacity:1;paint-order:markers stroke fill"
       inkscape:label="logo"
       d="m 115.05664,-358.23828 c -28.778298,0.17797 -57.556691,3.12846 -85.791015,8.7793 -37.6027309,7.52657 -74.376704,19.91724 -108.867187,36.73437 a 37.577888,37.577888 0 0 1 -0.02539,0.0117 c -29.454968,14.33481 -57.357888,31.90142 -83.003908,52.26758 a 37.577888,37.577888 0 0 1 -0.006,0.006 c -21.21231,16.83848 -40.9549,35.64856 -58.81445,56.03906 a 37.577888,37.577888 0 0 1 -0.0117,0.0156 c -22.63428,25.81624 -42.36406,54.3238 -58.55273,84.64063 a 37.577888,37.577888 0 0 1 -0.004,0.01 c -13.61153,25.473127 -24.77792,52.293101 -33.29102,79.931646 -10.71981,34.8096523 -17.20536,70.979527 -19.24023,107.357422 a 37.577888,37.577888 0 0 1 -0.002,0.01953 c -2.16476,38.343762 0.60731,77.011032 8.22265,114.632812 a 37.577888,37.577888 0 0 1 0.004,0.0234 c 7.97932,39.54331 21.31053,78.02596 39.51367,114.04297 a 37.577888,37.577888 0 0 1 0.006,0.0137 c 18.20737,36.05819 41.31747,69.70721 68.46289,99.62305 a 37.577888,37.577888 0 0 1 0.0137,0.0156 c 25.71302,28.36835 55.1177,53.46784 87.17188,74.45703 0.001,8e-4 0.003,9.6e-4 0.004,0.002 0.003,0.002 0.005,0.004 0.008,0.006 28.69577,18.77124 59.614235,34.30191 91.81445,46.08594 a 37.577888,37.577888 0 0 1 0.01953,0.008 c 30.5241019,11.19133 62.20117,19.04671 94.410156,23.42773 26.725111,3.62547 53.844324,4.8544 80.832034,3.6582 a 37.577888,37.577888 0 0 1 0.002,0 c 38.48802,-1.70344 76.8127,-8.38386 113.61133,-19.81836 a 37.577888,37.577888 0 0 1 0.0234,-0.008 c 40.62467,-12.59592 79.54761,-31.03119 115.03906,-54.49609 a 37.577888,37.577888 0 0 1 0.004,-0.002 c 3.56594,-2.35687 6.97592,-4.94424 10.4746,-7.40234 -3.77917,-3.49968 -7.56226,-6.84412 -11.32226,-10.51172 a 37.577888,37.577888 0 0 1 -0.125,-0.12109 c -7.4943,-7.37853 -16.42177,-16.29376 -24.48438,-28.35938 a 37.577888,37.577888 0 0 1 -0.1582,-0.23828 c -5.96163,-9.06933 -11.22146,-20.42125 -12.76562,-34.24219 -1.52688,-12.82491 -0.29564,-22.1032 -0.14258,-27.5 a 37.577888,37.577888 0 0 1 0.0117,-0.375 c 0.31504,-8.21801 0.11106,-16.15539 -0.56641,-23.8164 -0.0542,-0.0348 0.10525,0.74641 -0.69336,-2.10938 l 0.29492,1.00391 c -9.09401,-29.34328 -25.0566,-56.84785 -46.05859,-79.27734 a 37.577888,37.577888 0 0 1 -0.0312,-0.0332 c -20.16806,-21.59049 -45.27632,-38.86532 -72.65235,-49.99219 a 37.577888,37.577888 0 0 1 -32.25976,45.61524 c -0.4897,0.0572 -0.97906,0.11472 -1.46875,0.17187 -2.84322,13.83705 -5.67998,27.66638 -8.54297,41.51953 a 37.577888,37.577888 0 0 1 -3.16992,9.16016 c 0.5971,-1.19755 0.8488,-1.83916 1.27539,-2.76758 -0.94536,2.85886 -2.4561,6.6916 -6.63086,11.66992 -5.20319,6.20473 -15.36262,12.04905 -23.82227,13.28126 a 37.577888,37.577888 0 0 1 -3.88281,0.36132 c -8.74464,0.35713 -21.38265,-4.19691 -28.10547,-10.7207 -6.722807,-6.52379 -8.574349,-12.17586 -9.613278,-15.22461 -2.077859,-6.09751 -3.26945,-6.72284 1.332031,3.01953 a 37.577888,37.577888 0 0 1 -2.408203,-6.65625 c -1.392012,-5.3933 -1.991526,-9.11938 -2.427734,-11.02929 a 37.577888,37.577888 0 0 1 -0.126954,-0.58008 c -1.968795,-9.29598 -3.93773,-18.59099 -5.90625,-27.88672 A 37.577888,37.577888 0 0 1 45.921875,210.19922 c 0.0512,-0.21469 0.129914,-0.42789 0.181641,-0.64258 -24.850455,11.28439 -47.5584385,27.66724 -66.025391,47.70508 a 37.577888,37.577888 0 0 1 -0.01758,0.0215 c -18.643731,20.19895 -33.264917,44.38841 -42.482422,70.30664 a 37.577888,37.577888 0 0 1 -0.01953,0.0527 c -3.070803,8.59444 -5.556728,17.44475 -7.494141,26.52539 a 37.577888,37.577888 0 0 1 -33.156252,29.5625 c -1.32956,0.12758 -2.64757,0.25198 -3.95312,0.375 a 37.577888,37.577888 0 0 1 -28.54688,-9.37695 c -34.02653,-30.37325 -62.46671,-66.81892 -83.58789,-107.30469 l -0.004,-0.01 c -0.004,-0.007 -0.008,-0.0128 -0.0117,-0.0195 -22.53067,-43.11306 -36.61791,-90.42464 -41.34375,-138.83984 v -0.008 c -4.8246,-49.004774 0.005,-98.7635 14.18554,-145.925786 13.3741,-44.597851 34.93156,-86.621034 63.51954,-123.472654 l 0.008,-0.01 c 0.004,-0.005 0.008,-0.0105 0.0117,-0.0156 28.76324,-37.12854 64.36794,-68.72348 104.61523,-92.89063 l 0.01367,-0.008 c 39.8925,-23.9716 84.097485,-40.49422 129.986328,-48.49414 l 0.02539,-0.004 c 55.973382,-9.79065 113.914142,-6.89387 168.658212,8.64258 47.63964,13.45372 92.40752,36.27153 131.30078,66.85742 39.4257,30.96076 72.53155,69.68144 96.92578,113.527346 7.53477,13.532203 14.35311,27.627811 20.21094,42.269532 a 37.577888,37.577888 0 0 1 0.20898,0.539062 c 13.28524,34.746902 21.5133,71.054427 25.20703,107.587891 a 37.577888,37.577888 0 0 1 0.004,0.03125 c 4.838,48.253139 1.64233,97.875459 -11.68555,145.609379 a 37.577888,37.577888 0 0 1 -0.002,0.006 c -7.14712,25.57947 -17.30978,50.41163 -30.38282,73.7871 8.37302,3.12254 15.42429,7.03269 21.06446,10.57032 a 37.577888,37.577888 0 0 1 0.1289,0.0801 c 13.37752,8.46681 24.47365,17.86186 34.40235,26.60546 12.19535,-20.80887 23.05843,-42.1983 31.8164,-64.24804 a 37.577888,37.577888 0 0 1 0.0156,-0.0391 c 12.456,-31.25944 21.08523,-64.12721 25.47461,-97.39062 a 37.577888,37.577888 0 0 1 0.004,-0.0195 c 3.50909,-26.4835 4.54706,-53.416233 3.32227,-80.36133 -1.33434,-28.729434 -5.45343,-57.378459 -12.25586,-85.376953 a 37.577888,37.577888 0 0 1 -0.004,-0.01758 c -6.77846,-27.958815 -16.29081,-55.352991 -28.30468,-81.550781 l -0.002,-0.002 C 509.47511,-135.40971 485.03112,-172.98286 455.66992,-206.12305 a 37.577888,37.577888 0 0 1 -0.0156,-0.0176 c -26.45395,-29.89378 -56.95871,-56.2815 -90.34961,-78.19727 l -0.0195,-0.0117 c -17.55711,-11.5028 -35.92968,-21.80882 -54.86133,-30.73242 a 37.577888,37.577888 0 0 1 -0.0137,-0.008 c -27.16271,-12.81667 -55.65589,-22.92995 -84.83789,-30.11328 -36.05762,-8.87604 -73.3197,-13.26435 -110.50586,-13.03321 a 37.577888,37.577888 0 0 1 -0.01,-0.002 z m 5.91992,237.5039 c -15.55024,0.009 -31.202312,3.18096 -45.333982,9.32813 a 37.577888,37.577888 0 0 1 -0.05273,0.0234 c -17.560047,7.60668 -33.485234,20.052072 -45.230469,35.314451 a 37.577888,37.577888 0 0 1 -0.02539,0.0332 c -9.147113,11.859031 -16.062355,25.635458 -20.023437,39.974609 a 37.577888,37.577888 0 0 1 -0.02149,0.08398 C 5.7781283,-19.790322 4.8305096,-2.1804632 7.5371094,14.541016 a 37.577888,37.577888 0 0 1 0.00781,0.04883 C 10.423534,32.524079 17.70761,49.940573 28.472656,64.669922 A 37.577888,37.577888 0 0 1 28.5,64.708984 c 9.686245,13.288544 22.356127,24.571361 36.609375,32.585938 a 37.577888,37.577888 0 0 1 0.04883,0.02734 c 12.769869,7.205198 27.280374,11.848318 41.947265,13.617188 0.10968,0.10375 0.61392,0.23534 1.9043,0.3125 0.25725,0.0154 0.88342,0.16443 1.2207,0.20313 a 37.577888,37.577888 0 0 1 2.99805,0.57422 c 0.0543,-0.0153 0.10376,-0.0337 0.1582,-0.0488 0.2609,0.0569 0.35398,0.0382 0.6289,0.10351 -0.19339,-0.0494 -0.35411,-0.0873 -0.53906,-0.13281 0.23064,-0.0638 0.43486,-0.14929 0.66797,-0.21094 6.53951,-1.73987 10.92448,-1.82907 13.70117,-1.85546 7.50354,-0.64915 14.78114,-1.25663 21.94141,-1.90039 16.51545,-4.35479 32.32332,-12.548281 45.23242,-23.70704 a 37.577888,37.577888 0 0 1 0.0625,-0.05469 c 14.00223,-12.049841 25.16035,-27.723227 32.08203,-44.996094 a 37.577888,37.577888 0 0 1 0.0156,-0.03906 c 4.97368,-12.37201 7.83162,-25.906315 8.30469,-39.26953125 A 37.577888,37.577888 0 0 1 235.48633,-0.125 c 0.8174,-22.345542 -4.98975,-45.289734 -16.39258,-64.365234 a 37.577888,37.577888 0 0 1 -0.0488,-0.08398 c -11.28206,-18.986148 -28.57255,-34.95037 -48.35547,-44.611326 a 37.577888,37.577888 0 0 1 -0.0586,-0.0293 c -10.68987,-5.24309 -22.44787,-8.84294 -34.18164,-10.46485 a 37.577888,37.577888 0 0 1 -0.0156,-0.002 c -5.10047,-0.70727 -10.27361,-1.05571 -15.45703,-1.05274 z m -6.96094,232.81836 c 0.20964,0.0498 0.50739,0.18145 0.72461,0.23633 a 37.577888,37.577888 0 0 1 1.17579,0.22461 c -0.78703,-0.22563 -1.21917,-0.287 -1.9004,-0.46094 z m 68.5254,31.22852 c 0.53984,1.28198 1.07931,2.56374 1.61914,3.8457 -0.58695,-1.69454 -1.10161,-2.81561 -1.61914,-3.8457 z m -45.42579,47.10938 c 1.66287,0.43823 3.95426,0.98602 7.13868,1.1582 a 37.577888,37.577888 0 0 1 -7.13868,-1.1582 z m 7.13868,1.1582 a 37.577888,37.577888 0 0 0 0.0352,0.006 c 0.094,0.006 0.18725,0.0233 0.28125,0.0293 -0.12296,-0.005 -0.19614,-0.0286 -0.3164,-0.0351 z m 290.94921,80.4668 c 0.0689,0.01 0.12462,0.0329 0.19336,0.043 0.0863,0.0132 0.15155,0.01 0.23829,0.0234 z" />
    <g
       id="g20890"
       style="display:inline">
      <rect
         style="display:inline;fill:#512dab;stroke-width:0;paint-order:markers stroke fill"
         id="rect955"
         width="959.08398"
         height="958.56244"
         x="-336.63995"
         y="-368.81561"
         rx="28.223961"
         ry="28.223959" />
      <path
         id="path17804-4"
         style="display:inline;opacity:1;fill:#ffffff;stroke-width:0;paint-order:markers stroke fill"
         inkscape:label="logo"
         d="M 1859.5391,0.01171875 C 1848.4774,-0.02768125 1837.407,0.04092001 1826.332,0.21875 1104.7155,-4.1605098 410.41624,462.11644 141.06836,1131.4766 c -292.22473,676.954 -119.438094,1518.8382 416.42578,2025.5625 514.91256,512.3357 1344.44566,665.014 2007.92966,369.0371 28.0689,-11.3795 55.9672,-23.9076 83.5957,-37.1934 -136.2515,-189.9445 -145.3417,-443.0642 -23.0664,-642.293 42.6645,-68.8483 99.2586,-128.011 166.1465,-173.6875 -145.0793,-331.5022 -496.1252,-572.0224 -858.7598,-589.6152 12.7154,71.0523 359.6895,336.5606 359.6895,336.5606 l -296.4688,6.3945 -111.7421,306.2851 -103.4688,-305.5507 -292.8594,0.8066 c 0,0 219.7639,-169.8019 358.1504,-336.4082 l -69.9844,-2.6973 C 1362.9578,2137.753 998.99134,2476.098 922.24805,2883.1602 886.44265,3126.737 677.5975,2791.3728 602.58594,2707.0176 212.11144,2174.0414 237.43375,1386.3305 662.61328,880.19141 1059.3893,376.18483 1792.8311,184.00658 2386.0801,426.22461 c 525.0008,198.34919 907.0065,710.55479 950.2597,1269.98049 26.3381,289.4124 -10.2823,591.5668 -153.4531,847.0605 115.4384,27.7126 68.8394,-14.324 294.3965,149.0606 C 3734.386,2226.2159 3731.7405,1510.575 3508.5098,1072.0586 3224.1438,434.427 2556.4266,2.4947986 1859.5391,0.01171875 Z M 1837.8379,986.21484 c -32.1659,-0.0545 -64.7692,2.66767 -97.5274,8.35743 -299.5027,52.02063 -503.0397,333.17743 -458.9316,633.94723 l 11.6484,57.9512 c 64.5762,251.7882 282.454,422.7246 526.9141,389.0703 41.8764,-5.765 88.267,-0.8439 132.2051,-3.9765 319.9568,-22.8119 493.8852,-336.9023 433.9883,-634.9297 C 2332.789,1171.204 2099.7603,986.65855 1837.8379,986.21484 Z M 3126.375,2745.7891 c -142.7009,-1.9927 -275.9151,71.2762 -350.6484,192.8593 -55.4931,90.2819 -73.3848,198.7215 -49.836,302.045 23.5488,103.3236 90.1926,188.1469 175.7949,250.6171 l 435.5821,344.5391 c 419.2563,-163.2357 395.4955,-352.3186 491.9648,-580.791 l -474.2676,-431.3965 c -60.5005,-35.5111 -158.4443,-76.8935 -228.5898,-77.873 z m -2.7324,195.625 c 36.2566,0.5061 71.7599,10.4224 103.0312,28.7773 98.2627,57.6755 132.3433,183.3532 76.6797,282.7695 l -8.9238,14.5196 c -63.5662,94.558 -191.0892,120.9031 -286.9219,59.2754 -95.8333,-61.6276 -124.7696,-188.5884 -65.1055,-285.6563 38.6271,-62.8436 107.4819,-100.715 181.2403,-99.6855 z"
         transform="matrix(0.24804639,0,0,0.24804639,-337.70041,-363.07977)" />
    </g>
  </g>
</svg>
