<?xml version="1.0" encoding="UTF-8" standalone="no"?>
<!-- Created with Inkscape (http://www.inkscape.org/) -->

<svg
   width="3829.2332"
   height="3835.8496"
   viewBox="0 0 1080.6947 1082.562"
   version="1.1"
   id="svg103508"
   xmlns="http://www.w3.org/2000/svg"
   xmlns:svg="http://www.w3.org/2000/svg">
  <path
     style="display:none;opacity:1;fill:#512dab;fill-opacity:1;stroke:none;stroke-width:0;stroke-miterlimit:4;stroke-dasharray:none;paint-order:markers stroke fill"
     d="m 114.78906,-401.95898 c -53.581748,0.31686 -107.0444749,9.4151 -157.716794,26.83984 -52.929295,18.1668 -102.779306,45.42262 -146.656246,80.24414 -44.99991,35.65768 -83.68967,79.19077 -113.81055,128.09375 -29.5091,47.8489 -50.7434,100.696411 -62.54492,155.660156 -9.28279,43.129487 -12.74599,87.531566 -10.28516,131.599614 2.871,51.58959 13.8837,102.67403 32.5293,150.85742 v -0.004 c 20.1401,52.14704 49.22216,100.86823 85.62695,143.35547 36.00636,42.09025 79.15231,78.06992 127.07227,105.92773 48.608115,28.29711 102.035948,48.19819 157.324215,58.58985 54.091053,10.19739 109.930885,11.26933 164.388675,3.14453 50.92521,-7.56427 100.69373,-23.1697 146.85156,-46.0625 36.88665,-18.255 71.51995,-41.18859 102.76367,-68.03906 a 5.6187507,5.6187507 0 0 0 0.0215,-8.50391 c -14.04587,-12.19807 -28.0329,-24.3226 -41.3418,-37.05469 l -0.004,-0.004 c -7.07665,-6.8646 -13.90601,-13.69021 -19.48047,-21.2168 -3.69887,-4.99536 -6.54067,-10.38381 -7.54492,-15.91602 a 5.6187507,5.6187507 0 0 0 -0.002,-0.0156 c -1.19268,-6.46072 -0.5274,-13.69561 -0.27344,-21.51953 0.5239,-11.24804 0.32362,-22.55032 -0.78125,-33.79883 a 5.6187507,5.6187507 0 0 0 -0.0137,-0.12305 c -0.31024,-2.57855 -1.07965,-4.25616 -1.33008,-5.20898 a 5.6187507,5.6187507 0 0 0 -0.0527,-0.18945 c -10.16292,-33.80219 -27.59049,-65.37192 -50.84961,-91.98633 l -0.004,-0.006 c -24.32676,-27.90403 -54.93722,-50.22293 -88.91406,-64.875 l -0.006,-0.002 c -21.17707,-9.16084 -43.65518,-15.16914 -66.52734,-18.15039 22.04272,-6.16743 42.68912,-17.11652 60.05468,-32.03906 l 0.01,-0.008 c 21.82574,-18.671711 38.36132,-43.276385 47.52734,-70.464844 7.23008,-21.332403 9.87243,-44.1370638 7.75781,-66.552735 v -0.0059 c -2.08702,-22.41066 -8.86729,-44.438554 -19.97656,-64.113281 -14.0361,-25.004601 -34.90787,-46.041231 -59.82226,-60.248051 -19.69782,-11.27846 -41.77901,-18.20753 -64.36524,-20.13671 h -0.004 c -24.48303,-2.10703 -49.352549,1.53151 -72.201176,10.7207 -20.925011,8.37967 -39.97032,21.34146 -55.5332028,37.66601 -6.356e-4,6.7e-4 -0.00132,0.001 -0.00195,0.002 -0.00127,0.001 -0.00264,0.003 -0.00391,0.004 -18.5057549,19.353448 -32.0239159,43.379643 -38.9160159,69.298831 -7.939905,29.622965 -7.233458,61.516297 2.121094,90.775391 7.532208,23.704813 20.6702979,45.571083 38.0800781,63.371098 14.2335849,14.60125 31.3947259,26.49358 50.1191409,34.61523 8.975109,3.91051 18.352899,6.8532 27.90039,9.01562 -19.779617,3.63874 -39.108136,9.6157 -57.464843,17.92383 -30.4537072,13.74225 -58.1283,33.69753 -80.761719,58.32227 l 0.0059,-0.004 c -21.210476,23.0198 -38.03786,50.14201 -49.242186,79.36914 -3.8696,10.04604 -6.89311,20.35879 -9.42188,30.79297 -26.32915,-24.36987 -48.78824,-52.93487 -66.06836,-84.36914 a 5.6187507,5.6187507 0 0 0 -0.004,-0.004 c -21.42256,-38.87568 -35.01092,-82.06777 -39.72852,-126.20704 a 5.6187507,5.6187507 0 0 0 0,-0.006 c -4.39832,-40.729325 -1.22463,-82.281624 9.30664,-121.8691362 a 5.6187507,5.6187507 0 0 0 0,-0.00391 c 10.53741,-39.7048665 28.40429,-77.4760305 52.4961,-110.7421875 a 5.6187507,5.6187507 0 0 0 0.002,-0.004 c 25.05817,-34.67552 56.863378,-64.47731 93.064453,-87.27734 a 5.6187507,5.6187507 0 0 0 0.0039,-0.002 c 35.105411,-22.14919 74.370258,-37.71708 115.125,-45.58789 a 5.6187507,5.6187507 0 0 0 0.0059,0 c 47.862121,-9.28543 97.789981,-8.00239 145.085941,3.81445 a 5.6187507,5.6187507 0 0 0 0.006,0.002 c 43.44164,10.79324 84.67829,30.43826 120.46679,57.33008 a 5.6187507,5.6187507 0 0 0 0.004,0.002 c 34.17423,25.62424 63.40231,57.86675 85.51953,94.406254 9.06476,14.971094 16.98497,30.634045 23.58008,46.826172 10.87593,28.1972164 18.05,57.826626 21.83008,87.86914 5.50971,44.236442 3.5216,89.546064 -7.56641,132.640624 a 5.6187507,5.6187507 0 0 0 0,0.002 c -7.78051,30.25399 -20.18535,59.3469 -37.11914,85.53711 a 5.6187507,5.6187507 0 0 0 -0.002,0.006 c -6.79226,10.53032 -14.31095,20.60023 -22.46289,30.12696 a 5.6187507,5.6187507 0 0 0 1.6875,8.64257 c 7.30272,3.78038 15.6383,6.79451 24.67968,6.7793 7.26172,0.0513 13.4323,-1.31248 18.58789,-0.73633 a 5.6187507,5.6187507 0 0 0 0.0742,0.008 c 6.96071,0.68299 13.87954,3.857 20.58008,7.87304 9.92824,6.03139 19.13171,13.51955 28.21484,21.3711 11.96789,10.44708 23.42413,21.56126 34.70704,32.92187 a 5.6187507,5.6187507 0 0 0 8.5957,-0.74805 c 23.94141,-34.36988 44.70183,-71.11166 60.28906,-110.18945 l 0.002,-0.004 c 12.46352,-31.16746 21.49406,-63.64991 26.75782,-96.80078 v -0.004 c 4.8768,-30.61453 6.60725,-61.70167 5.65039,-92.656252 a 5.6187507,5.6187507 0 0 0 0,-0.0059 C 610.68537,21.241681 599.40299,-34.098538 579.24023,-86.039062 v 0.0039 C 559.78944,-136.24043 532.02096,-183.31262 497.41602,-224.64062 l -0.004,-0.004 c -35.50295,-42.45935 -78.18534,-78.89002 -125.74023,-107.2793 l -0.004,-0.002 c -50.08549,-29.94178 -105.39817,-50.87593 -162.76563,-61.60156 v 0.002 c -30.9841,-5.79852 -62.56123,-8.63202 -94.11132,-8.43359 z m 25.59571,554.64648 c -0.21769,1.01972 -0.19469,1.81944 -0.10743,2.37695 0.21701,1.38647 0.53863,1.99424 0.97657,2.77149 l -0.28321,-0.57813 c 7.32043,17.38413 14.64021,34.7681 21.96094,52.15235 -6.89761,0.80481 -13.79541,1.60918 -20.69336,2.41406 a 5.6187507,5.6187507 0 0 0 -4.85156,4.44726 c -3.04402,14.7932 -6.08473,29.58137 -9.125,44.3711 -3.15116,-14.87958 -6.30215,-29.75923 -9.45313,-44.63867 a 5.6187507,5.6187507 0 0 0 -5.71875,-4.44922 c -7.4876,0.29569 -14.973615,0.59102 -22.460934,0.88672 2.209013,-8.00349 4.731367,-15.9227 7.84375,-23.61524 3.673814,-8.88192 7.863624,-17.37253 13.457034,-24.57031 3.54056,-4.46362 7.56214,-8.17537 12.02343,-9.82813 a 5.6187507,5.6187507 0 0 0 0.0234,-0.008 c 1.66212,-0.62413 3.60064,-0.89996 5.65039,-0.84375 a 5.6187507,5.6187507 0 0 0 0.63867,-0.0176 c 3.36376,-0.29148 6.7477,-0.58515 10.11915,-0.87109 z"
     transform="matrix(1.13778,0,0,1.13778,384.22877,413.10502)"
     id="path2273" />
  <path
     id="path17804"
     style="display:none;opacity:1;fill:#512dab;fill-opacity:1;stroke:none;stroke-width:0;stroke-miterlimit:4;stroke-dasharray:none;paint-order:markers stroke fill"
     d="m 114.82422,-396.3418 c -52.968351,0.31303 -105.8334259,9.30985 -155.925782,26.53516 -52.322437,17.95821 -101.617688,44.9108 -144.990238,79.33203 -44.48555,35.2493 -82.7436,78.2977 -112.51953,126.64063 -29.17167,47.30118 -50.16949,99.557893 -61.83594,153.8925738 -9.17663,42.6354652 -12.60075,86.5415602 -10.16796,130.1074262 2.83813,50.999 13.72822,101.51134 32.16015,149.14257 19.90886,51.5483 48.66654,99.7244 84.65235,141.72266 35.59383,41.60896 78.25981,77.18785 125.63085,104.72656 48.05252,27.97402 100.884771,47.65335 155.541021,57.92578 53.470218,10.08035 108.689069,11.14109 162.521479,3.10938 50.34182,-7.47761 99.55643,-22.90994 145.18555,-45.54102 36.46295,-18.04531 70.70723,-40.72212 101.59375,-67.26562 -14.05234,-12.20369 -28.12007,-24.39466 -41.57031,-37.26367 -7.11263,-6.89942 -14.17727,-13.92968 -20.08789,-21.91016 -4.02035,-5.42952 -7.33918,-11.54913 -8.55664,-18.25586 -1.38964,-7.52768 -0.60268,-15.21045 -0.35938,-22.80078 0.51264,-11.00632 0.31385,-22.03808 -0.76172,-32.98828 -0.18348,-1.525 -0.79558,-2.96945 -1.18554,-4.45313 -9.9312,-33.03148 -26.97588,-63.90779 -49.70313,-89.91211 -23.76928,-27.26614 -53.71209,-49.09908 -86.91406,-63.41601 -25.73942,-11.13521 -53.443,-17.74614 -81.42773,-19.46875 -0.5495,0.15829 -0.19825,1.12896 0.0449,1.56054 8.28798,19.68181 16.57474,39.36336 24.86328,59.04493 -9.3743,1.0942 -18.74871,2.18742 -28.12305,3.28125 -4.68972,22.79091 -9.356,45.58785 -14.06055,68.375 -0.18101,0.36044 -0.35788,1.67059 -0.54101,1.40039 -0.85543,-2.65545 -1.23637,-5.43405 -1.87305,-8.14649 -4.367,-20.62171 -8.73456,-41.24353 -13.10156,-61.86523 -10.05469,0.39707 -20.109359,0.79467 -30.164062,1.19141 2.579744,-10.78516 5.966161,-21.38599 10.126953,-31.66602 3.770564,-9.11758 8.157999,-18.09795 14.242189,-25.91797 3.86206,-4.87142 8.55616,-9.41904 14.48437,-11.61523 2.47964,-0.93112 5.14286,-1.27152 7.7793,-1.19922 8.9735,-0.77758 17.95468,-1.51269 26.92383,-2.31641 23.1319,-5.61393 44.87753,-16.76367 62.92578,-32.27539 21.04325,-17.999372 37.02882,-41.778753 45.86914,-68.005859 6.97316,-20.574362 9.52532,-42.602423 7.48438,-64.228515 -2.0141,-21.636022 -8.56925,-42.923696 -19.28126,-61.890625 -13.53115,-24.105061 -33.69926,-44.430751 -57.71484,-58.123051 -18.98768,-10.87186 -40.29734,-17.55606 -62.05664,-19.41406 -23.61142,-2.0326 -47.617221,1.48161 -69.634765,10.33789 -20.162078,8.07415 -38.552149,20.5894 -53.560547,36.33399 -17.8494359,18.6651 -30.912599,41.882696 -37.55664,66.876949 -7.656428,28.565339 -6.971109,59.402999 2.046874,87.609375 7.262254,22.860525 19.9535022,43.987304 36.744141,61.154296 13.722267,14.07848 30.301039,25.5644 48.339844,33.38867 14.489031,6.31394 30.031919,10.31824 45.738283,11.83985 0.46029,0.17364 1.46701,-0.19982 1.34179,0.56054 0.13779,1.44729 0.27796,2.89435 0.41407,4.3418 -26.576275,2.56121 -52.650498,9.45999 -76.978518,20.4707 -29.7596588,13.42817 -56.827864,32.94674 -78.941406,57.00586 -20.723103,22.49085 -37.179999,49.01846 -48.126954,77.57422 -4.591292,11.91839 -8.207972,24.1637 -10.875002,36.63672 -0.30201,1.45965 -0.60374,2.91936 -0.90625,4.37891 -0.79701,-1.34977 -1.52845,-2.75207 -2.36718,-4.06836 -28.67478,-25.62514 -52.98533,-56.12676 -71.51172,-89.82813 -21.78657,-39.53625 -35.59699,-83.43302 -40.39454,-128.32031 -4.47305,-41.421304 -1.24729,-83.657895 9.4629,-123.9179688 10.71458,-40.3724512 28.8724,-78.7623102 53.375,-112.5957012 25.48469,-35.26574 57.80988,-65.55471 94.623042,-88.74024 35.699337,-22.52391 75.609742,-38.3467 117.058594,-46.35156 48.673604,-9.44286 99.412904,-8.13999 147.517574,3.87891 44.18197,10.97717 86.0918,30.94382 122.48633,58.29101 34.75346,26.05855 64.46079,58.82778 86.95508,95.990238 9.22452,15.234943 17.28654,31.180603 24.00195,47.677734 11.06106,28.6673978 18.34129,58.751414 22.17579,89.226562 5.5892,44.869243 3.58557,90.882826 -7.69922,134.742186 -7.92279,30.80724 -20.55737,60.45694 -37.8418,87.18945 -6.93139,10.74602 -14.59989,21.01807 -22.91406,30.73438 6.83343,3.53744 14.34429,6.17506 22.12109,6.1543 6.37997,0.0472 12.77545,-1.42164 19.1875,-0.70508 8.25413,0.80991 15.90801,4.44071 22.93555,8.6543 10.38497,6.30725 19.83167,14.01823 29.00586,21.94921 12.11679,10.57706 23.66649,21.78573 34.99804,33.19532 23.7394,-34.07988 44.2813,-70.45418 59.68164,-109.06446 12.3125,-30.78898 21.23078,-62.87148 26.42774,-95.60351 4.81679,-30.23611 6.53083,-60.97099 5.58398,-91.601564 -1.75518,-55.042654 -12.91237,-109.764877 -32.84375,-161.109375 -19.228,-49.630201 -46.68835,-96.178091 -80.89648,-137.031251 -35.09747,-41.97538 -77.30456,-77.99992 -124.31641,-106.06445 -49.51253,-29.59985 -104.20799,-50.29928 -160.91992,-60.90235 -30.63156,-5.73254 -61.85418,-8.53418 -93.04492,-8.33789 z"
     transform="matrix(1.13778,0,0,1.13778,384.22877,413.10502)" />
  <path
     id="path17804-9"
     style="display:none;fill:none;stroke:none;stroke-width:0;stroke-opacity:1;paint-order:markers stroke fill"
     d="M 515.13791,5.5086703 C 482.39454,5.711161 449.65106,9.0681695 417.52661,15.497582 374.74298,24.061163 332.90229,38.159019 293.6597,57.293213 a 42.755369,42.755369 0 0 1 -0.0289,0.01331 c -33.51328,16.30986 -65.26066,36.296798 -94.44019,59.469007 a 42.755369,42.755369 0 0 1 -0.007,0.007 c -24.13494,19.15848 -46.59766,40.56022 -66.9179,63.76012 a 42.755369,42.755369 0 0 1 -0.0133,0.0178 c -25.75283,29.3732 -48.200979,61.80853 -66.620124,96.30242 a 42.755369,42.755369 0 0 1 -0.0046,0.0114 C 50.140989,305.85684 37.436093,336.37207 27.750058,367.81865 15.553273,407.42438 8.1741437,448.57774 5.8589093,489.96778 a 42.755369,42.755369 0 0 1 -0.00228,0.0222 c -2.4630206,43.62677 0.6909852,87.62161 9.3555677,130.42692 a 42.755369,42.755369 0 0 1 0.0046,0.0266 c 9.078711,44.99158 24.246695,88.77637 44.957863,129.75581 a 42.755369,42.755369 0 0 1 0.0068,0.0156 c 20.715981,41.02629 47.01019,79.31147 77.8957,113.34912 a 42.755369,42.755369 0 0 1 0.0156,0.0177 c 29.25576,32.27694 62.71182,60.83464 99.18242,84.71572 0.001,9.1e-4 0.003,10e-4 0.005,0.002 0.003,0.002 0.006,0.005 0.009,0.007 32.64947,21.35754 67.82788,39.02803 104.46464,52.43565 a 42.755369,42.755369 0 0 1 0.0222,0.01 c 34.72971,12.7332 70.77125,21.6709 107.41799,26.6556 30.4073,4.125 61.26299,5.5232 91.96907,4.1622 a 42.755369,42.755369 0 0 1 0.002,0 c 43.7909,-1.9381 87.39595,-9.539 129.2647,-22.5489 a 42.755369,42.755369 0 0 1 0.0266,-0.01 c 46.22194,-14.33138 90.50768,-35.30666 130.88914,-62.00456 a 42.755369,42.755369 0 0 1 0.005,-0.002 c 4.05726,-2.6816 7.93706,-5.62546 11.91779,-8.42224 -4.29986,-3.98186 -8.60419,-7.7871 -12.88224,-11.96002 a 42.755369,42.755369 0 0 1 -0.14222,-0.13777 c -8.52687,-8.39515 -18.68436,-18.53872 -27.85784,-32.26674 a 42.755369,42.755369 0 0 1 -0.18,-0.27111 c -6.78302,-10.3189 -12.76755,-23.23489 -14.52446,-38.96008 -1.73726,-14.59193 -0.33638,-25.14858 -0.16223,-31.28895 a 42.755369,42.755369 0 0 1 0.0133,-0.42667 c 0.35844,-9.35028 0.12636,-18.38128 -0.64445,-27.09782 -0.0617,-0.0396 0.11975,0.84925 -0.7889,-2.40001 l 0.33556,1.14223 c -10.34698,-33.3862 -28.5089,-64.68035 -52.40454,-90.20017 a 42.755369,42.755369 0 0 1 -0.0355,-0.0378 C 681.04797,680.11206 652.4803,660.45711 621.3324,647.79718 a 42.755369,42.755369 0 0 1 -36.70451,51.90011 c -0.55717,0.0651 -1.11396,0.13052 -1.67112,0.19555 -3.23496,15.74351 -6.46257,31.47825 -9.72002,47.24009 a 42.755369,42.755369 0 0 1 -3.60667,10.42224 c 0.67937,-1.36254 0.96575,-2.09256 1.45111,-3.14889 -1.07561,3.25275 -2.7945,7.61357 -7.54446,13.2778 -5.92008,7.05962 -17.47928,13.70917 -27.1045,15.11115 a 42.755369,42.755369 0 0 1 -4.41778,0.4111 c -9.94948,0.40634 -24.32875,-4.77516 -31.97784,-12.1978 -7.64908,-7.42263 -9.75573,-13.85345 -10.9378,-17.32225 -2.36415,-6.93763 -3.71991,-7.64912 1.51556,3.43556 a 42.755369,42.755369 0 0 1 -2.74001,-7.57335 c -1.5838,-6.13639 -2.26592,-10.37585 -2.76222,-12.5489 a 42.755369,42.755369 0 0 1 -0.14445,-0.66001 c -2.24006,-10.57678 -4.48027,-21.15246 -6.72001,-31.72895 a 42.755369,42.755369 0 0 1 -41.76944,-52.34507 c 0.0583,-0.24427 0.14781,-0.48685 0.20667,-0.73112 -28.27435,12.83916 -54.11104,31.47924 -75.12237,54.27789 a 42.755369,42.755369 0 0 1 -0.02,0.0245 c -21.21247,22.98196 -37.84816,50.50425 -48.33565,79.99349 a 42.755369,42.755369 0 0 1 -0.0222,0.06 c -3.4939,9.77858 -6.32234,19.84829 -8.52669,30.18006 A 42.755369,42.755369 0 0 1 266.93348,849.706 c -1.51274,0.14516 -3.01235,0.2867 -4.49778,0.42667 A 42.755369,42.755369 0 0 1 229.95513,839.46361 C 191.24043,804.90554 158.88176,763.43838 134.8505,717.37448 l -0.005,-0.0114 c -0.005,-0.008 -0.009,-0.0146 -0.0133,-0.0222 C 109.19769,668.28774 93.169519,614.45757 87.792552,559.37172 v -0.009 c -5.489333,-55.75665 0.0057,-112.37113 16.140018,-166.03144 15.21678,-50.74254 39.74443,-98.55568 72.27126,-140.48471 l 0.009,-0.0114 c 0.005,-0.006 0.009,-0.0119 0.0133,-0.0178 32.72624,-42.24411 73.23655,-78.1922 119.02911,-105.6891 l 0.0156,-0.009 c 45.38889,-27.27441 95.68443,-46.07352 147.89584,-55.175667 l 0.0289,-0.0046 c 63.68539,-11.139605 129.60923,-7.843707 191.89594,9.833357 54.20343,15.30737 105.13943,41.26902 149.3914,76.06903 44.85777,35.22653 82.52495,79.28215 110.28022,129.16915 8.57291,15.39667 16.33068,31.43437 22.9956,48.09342 a 42.755369,42.755369 0 0 1 0.23777,0.61334 c 15.11568,39.53433 24.4774,80.8443 28.68006,122.41135 a 42.755369,42.755369 0 0 1 0.005,0.0356 c 5.50458,54.90146 1.86861,111.36074 -13.29559,165.67144 a 42.755369,42.755369 0 0 1 -0.002,0.007 c -8.13185,29.10381 -19.69472,57.35734 -34.56897,83.95349 9.52666,3.55276 17.54945,8.00165 23.96672,12.02669 a 42.755369,42.755369 0 0 1 0.14666,0.0911 c 15.22068,9.63337 27.84563,20.32287 39.14231,30.27116 13.87562,-23.67591 26.23542,-48.01238 36.20006,-73.10013 a 42.755369,42.755369 0 0 1 0.0177,-0.0445 c 14.17214,-35.56637 23.99034,-72.96266 28.98454,-110.8091 a 42.755369,42.755369 0 0 1 0,-0.0222 c 3.9926,-30.13239 5.1736,-60.77592 3.78,-91.43351 -1.5182,-32.68778 -6.2048,-65.28406 -13.9444,-97.14019 a 42.755369,42.755369 0 0 1 0,-0.02 c -7.7124,-31.81098 -18.53535,-62.97953 -32.20449,-92.78685 l -0.002,-0.002 C 963.89936,259.03856 936.08748,216.28858 902.68089,178.58234 a 42.755369,42.755369 0 0 1 -0.0177,-0.02 C 872.56437,144.54977 837.85666,114.52635 799.86516,89.591021 l -0.0222,-0.01331 C 779.86685,76.490054 758.9629,64.76407 737.42285,54.610977 a 42.755369,42.755369 0 0 1 -0.0156,-0.0091 C 706.50208,40.019323 674.08311,28.512636 640.88041,20.339587 599.85477,10.240606 557.45872,5.2476749 515.14905,5.5106614 a 42.755369,42.755369 0 0 1 -0.0114,-0.00228 z m 6.73557,270.2271897 c -17.69275,0.0102 -35.50137,3.61923 -51.5801,10.61336 a 42.755369,42.755369 0 0 1 -0.06,0.0266 c -19.97947,8.65473 -38.09883,22.81485 -51.46233,40.18008 a 42.755369,42.755369 0 0 1 -0.0289,0.0378 c -10.40741,13.49297 -18.27543,29.16751 -22.78227,45.48231 a 42.755369,42.755369 0 0 1 -0.0245,0.0956 c -5.13245,18.41644 -6.21063,38.45258 -3.13112,57.47795 a 42.755369,42.755369 0 0 1 0.009,0.0555 c 3.27523,20.40522 11.5629,40.22136 23.81116,56.98011 a 42.755369,42.755369 0 0 1 0.0311,0.0444 c 11.02082,15.11944 25.43635,27.9568 41.65341,37.07563 a 42.755369,42.755369 0 0 1 0.0556,0.0311 c 14.5293,8.19793 31.03907,13.48078 47.72676,15.49337 0.12479,0.11804 0.69851,0.26776 2.16668,0.35555 0.29269,0.0175 1.00513,0.18709 1.38888,0.23112 a 42.755369,42.755369 0 0 1 3.41113,0.65334 c 0.0618,-0.0174 0.11805,-0.0384 0.17999,-0.0555 0.29685,0.0647 0.40275,0.0435 0.71555,0.11777 -0.22003,-0.0562 -0.4029,-0.0993 -0.61333,-0.1511 0.26242,-0.0726 0.49478,-0.16986 0.76,-0.24001 7.44053,-1.97959 12.42966,-2.08108 15.58892,-2.1111 8.53738,-0.73859 16.81769,-1.42977 24.9645,-2.16223 18.79095,-4.95479 36.77683,-14.27718 51.46454,-26.97339 a 42.755369,42.755369 0 0 1 0.0711,-0.0622 c 15.93146,-13.71007 28.62695,-31.54293 36.50229,-51.19565 a 42.755369,42.755369 0 0 1 0.0177,-0.0444 c 5.65896,-14.07662 8.91066,-29.47568 9.44891,-44.68008 a 42.755369,42.755369 0 0 1 0.002,-0.0489 c 0.93002,-25.42431 -5.67724,-51.52976 -18.65115,-73.23348 a 42.755369,42.755369 0 0 1 -0.0555,-0.0956 C 620.617,318.03175 600.94423,299.86798 578.43562,288.87594 a 42.755369,42.755369 0 0 1 -0.0667,-0.0333 c -12.16272,-5.96548 -25.54073,-10.06132 -38.89118,-11.9067 a 42.755369,42.755369 0 0 1 -0.0177,-0.002 c -5.80322,-0.80472 -11.68911,-1.20117 -17.5867,-1.19779 z m -7.92002,264.89607 c 0.23853,0.0567 0.5773,0.20645 0.82445,0.26889 a 42.755369,42.755369 0 0 1 1.33779,0.25556 c -0.89547,-0.25672 -1.38715,-0.32654 -2.16224,-0.52445 z m 77.96683,35.53119 c 0.61422,1.45861 1.22802,2.91697 1.84223,4.37556 -0.66782,-1.92802 -1.25339,-3.20355 -1.84223,-4.37556 z m -51.68455,53.60011 c 1.89198,0.49861 4.49907,1.12187 8.12224,1.31777 a 42.755369,42.755369 0 0 1 -8.12224,-1.31777 z m 8.12224,1.31777 a 42.755369,42.755369 0 0 0 0.04,0.007 c 0.10695,0.007 0.21305,0.0265 0.32,0.0333 -0.1399,-0.006 -0.22316,-0.0325 -0.35999,-0.0399 z m 331.0362,91.55352 c 0.0784,0.0114 0.14179,0.0374 0.22,0.0489 0.0982,0.015 0.17243,0.0114 0.27112,0.0266 z" />
  <g
     id="g2286">
    <path
       d="m 524.80333,0.00315762 c -3.12186,-0.0113778 -6.24614,0.00796446 -9.37176,0.05848189 C 311.77534,-1.1742853 115.8287,130.41997 39.812745,319.32827 -42.659568,510.37975 6.1046584,747.97815 157.33735,890.98699 c 145.31976,144.59251 379.4324,187.68171 566.68235,104.15047 7.92167,-3.21154 15.79519,-6.74725 23.59256,-10.49681 -38.45319,-53.60659 -41.01865,-125.04256 -6.50985,-181.26936 12.04088,-19.43052 28.01299,-36.12755 46.89023,-49.01847 -40.9446,-93.55732 -140.01755,-161.43745 -242.36108,-166.40253 3.58857,20.05253 101.51236,94.98488 101.51236,94.98488 l -83.67009,1.80466 -31.53612,86.44048 -29.20117,-86.23322 -82.65142,0.22765 c 0,0 62.02225,-47.92187 101.078,-94.94187 l -19.75116,-0.76121 C 384.65706,603.3218 281.93766,698.81025 260.27899,813.69224 250.17391,882.43505 191.23318,787.7878 170.06326,763.98089 59.862682,613.56316 67.009192,391.25312 187.0043,248.40942 298.98331,106.16757 505.97687,51.930594 673.40492,120.28991 c 148.16689,55.97855 255.97738,200.53488 268.1844,358.41724 7.43319,81.67861 -2.9019,166.95332 -43.30788,239.05931 32.57928,7.82111 19.42801,-4.04258 83.08523,42.06819 72.56013,-131.54668 71.81343,-333.51697 8.81281,-457.27604 C 909.92508,122.6048 721.48048,0.70393908 524.80333,0.00315762 Z"
       style="display:inline;fill:#512dab;stroke-width:0;paint-order:markers stroke fill"
       id="path2277" />
    <path
       style="fill:#512dab;fill-opacity:1;stroke-width:0;paint-order:markers stroke fill"
       d="m 361.63377,459.60436 c -12.4483,-84.88394 44.99442,-164.23268 129.52075,-178.91406 84.52633,-14.68138 165.36163,40.64984 182.2659,124.75983 16.90426,84.10997 -32.18252,172.75355 -122.48145,179.19157 -12.4003,0.88411 -25.4925,-0.50487 -37.31095,1.12214 -68.99207,9.49799 -130.48233,-38.74376 -148.70715,-109.804"
       id="path2279" />
    <path
       style="display:inline;fill:#512dab;fill-opacity:1;stroke:none;stroke-width:0;stroke-opacity:1;paint-order:markers stroke fill"
       d="m 882.33258,774.92306 c -40.27336,-0.56238 -77.8694,20.11576 -98.96079,54.42922 -15.66138,25.47954 -20.71085,56.08311 -14.06485,85.24329 6.64599,29.16021 25.45438,53.09974 49.61327,70.73022 L 941.85128,1082.562 C 1060.1747,1036.4933 1053.4689,983.13024 1080.6947,918.65026 L 946.84545,796.9003 C 929.77086,786.87828 902.1292,775.1995 882.33258,774.92306 Z m -0.77114,55.20972 c 10.23242,0.14284 20.25224,2.94144 29.0777,8.1216 27.73191,16.27731 37.35021,51.74637 21.64071,79.80386 l -2.5185,4.09772 c -17.93978,26.68637 -53.92961,34.12155 -80.97573,16.72884 -27.04628,-17.39268 -35.21275,-53.22384 -18.37422,-80.61855 10.90143,-17.73587 30.33379,-28.42401 51.15004,-28.13347 z"
       id="path2281" />
  </g>
</svg>
