<svg
   width="335.37546mm"
   height="67.32mm"
   viewBox="0 0 335.37545 67.32">
  <g
     id="layer1"
     transform="translate(-152.33905,-385.46289)">
      <path
         style="fill:#512da8"
         d="m 468.34652,425.49489 q -0.432,0.072 -0.936,0.72 -0.504,0.648 -0.504,1.224 0,0.504 0.792,1.008 0.792,0.504 1.944,0.504 0.72,0 1.296,-0.216 0.576,-0.216 1.44,-0.72 0.864,-0.576 3.024,-2.232 2.232,-1.656 3.888,-1.656 0.936,0 1.8,0.504 0.864,0.432 1.8,1.656 0.936,1.224 0.936,2.952 0,2.592 -2.232,5.04 -2.16,2.448 -5.4,3.888 -3.24,1.368 -6.84,1.368 -4.176,0 -7.56,-1.8 -3.312,-1.8 -5.184,-5.688 -1.8,-3.96 -1.8,-8.496 0,-5.688 2.736,-10.944 2.736,-5.328 7.776,-8.928 5.04,-3.6 10.944,-3.6 1.584,0 3.096,0.288 1.584,0.288 3.672,1.296 2.088,0.936 3.384,3.168 1.296,2.16 1.296,4.896 0,3.456 -1.728,6.408 -1.728,2.952 -7.056,5.616 -5.328,2.664 -10.584,3.744 z m 1.08,-12.888 q -1.8,1.8 -1.8,3.96 0,1.224 0.792,1.44 1.512,0.36 4.104,-1.8 2.664,-2.16 2.664,-4.032 0,-0.576 -0.36,-1.296 -0.36,-0.792 -1.584,-0.792 -1.224,0 -2.376,1.08 -1.152,1.008 -1.44,1.44 z m -23.54399,-2.376 q -0.504,0.504 -0.576,1.008 0,0.504 0,0.576 -0.792,2.232 -1.728,6.624 -0.936,4.32 -0.792,5.832 0.216,1.728 0.72,3.672 0.576,1.944 0.576,2.448 0,0.936 -0.144,1.584 -0.144,0.576 -0.936,2.592 -0.792,2.016 -3.312,3.6 -2.448,1.584 -5.256,1.584 -2.16,0 -4.104,-1.08 -1.872,-1.152 -2.808,-2.952 -0.864,-1.8 -0.864,-4.176 0,-3.456 2.592,-10.872 2.664,-7.488 2.664,-10.296 0,-0.288 -0.936,-0.504 -0.936,-0.216 -2.016,-0.432 -0.576,0.144 -1.296,-0.504 -0.72,-0.648 -0.72,-1.944 0,-0.864 0.288,-1.8 0.288,-0.936 0.576,-1.152 0.288,-0.216 1.08,-0.216 0.864,0.072 1.44,0.072 0.864,0 2.16,-0.216 0.576,0 1.08,-0.072 0.504,-0.144 0.504,-0.864 0,-0.504 -0.144,-1.512 -0.144,-1.08 -0.648,-3.384 -0.504,-2.376 -0.504,-3.384 0,-1.296 0.288,-2.304 0.36,-1.08 1.368,-2.592 1.08,-1.584 3.312,-2.808 2.304,-1.296 4.536,-1.296 1.656,0 3.096,0.792 1.512,0.72 2.448,2.16 0.936,1.44 0.936,3.528 0,1.656 -0.288,3.024 -0.288,1.368 -1.8,6.696 -0.216,1.008 0.288,1.728 0.576,0.648 2.088,0.648 0.72,0 1.728,-0.216 1.008,-0.216 1.44,0.36 0.432,0.576 0.432,1.656 0,0.432 -0.144,1.296 -0.144,0.792 -0.36,1.584 -0.144,0.792 -3.096,1.008 -2.952,0.216 -3.168,0.504 z m -25.19994,20.376 q 0.144,0.36 0.144,1.08 0,1.872 -1.584,3.888 -1.512,1.944 -3.96,2.808 -2.376,0.864 -4.536,0.864 -2.088,0 -3.744,-0.936 -1.584,-1.008 -2.304,-2.376 -0.648,-1.368 -0.936,-1.368 -0.504,0.432 -1.728,1.512 -1.224,1.008 -3.528,2.088 -2.304,1.08 -4.608,1.08 -2.736,0 -4.68,-1.44 -1.872,-1.512 -2.664,-3.096 -0.72,-1.584 -0.72,-3.384 0,-2.304 0.936,-4.536 1.008,-2.232 3.024,-4.536 2.088,-2.376 9,-3.96 6.912,-1.656 8.568,-2.88 1.656,-1.296 1.656,-2.376 0,-1.656 -1.44,-1.656 -0.504,0 -1.008,0.216 -0.432,0.144 -3.744,2.088 -3.312,1.944 -5.256,1.944 -0.864,0 -1.512,-0.144 -0.576,-0.144 -1.728,-0.864 -1.08,-0.792 -1.584,-1.944 -0.504,-1.152 -0.504,-2.448 0,-2.592 1.872,-4.752 1.944,-2.232 6.048,-3.456 4.104,-1.296 9,-1.296 2.304,0 3.528,0.144 1.296,0.072 3.888,0.504 2.592,0.432 4.176,2.664 1.584,2.16 1.584,4.536 -0.072,0.432 -0.072,0.648 -0.144,1.44 -1.44,6.768 -1.296,5.328 -1.296,7.56 0,1.872 0.216,3.384 0.288,1.512 0.936,3.672 z m -19.296,-5.76 q -0.504,0.36 -1.008,0.648 -1.44,1.296 -1.44,2.376 0,0.864 0.792,1.224 0.792,0.288 1.368,0.288 1.872,0 3.6,-2.016 1.8,-2.088 1.8,-4.104 -0.432,-0.072 -0.72,-0.072 -1.008,0 -2.304,0.432 -1.224,0.36 -2.088,1.224 z m -20.01591,-27.432 q -2.736,1.368 -5.328,1.368 -2.664,0 -4.824,-1.296 -2.088,-1.368 -2.088,-3.528 0,-0.792 0.072,-1.224 0.144,-0.504 0.864,-2.232 0.72,-1.728 3.024,-3.168 2.376,-1.512 5.112,-1.512 2.592,0 4.248,1.008 1.656,1.008 2.232,2.088 0.648,1.008 0.648,2.16 0,1.8 -1.152,3.6 -1.152,1.8 -2.808,2.736 z m -4.608,29.808 q 0.864,1.8 0.864,3.384 0,0.792 -0.288,1.728 -0.216,0.936 -0.792,2.664 -0.504,1.656 -2.952,2.952 -2.376,1.296 -5.112,1.296 -1.368,0 -3.024,-0.432 -1.584,-0.504 -2.88,-1.728 -1.296,-1.296 -1.296,-3.456 0,-3.384 1.944,-11.304 2.016,-7.92 2.016,-11.304 0,-0.648 0,-1.296 -0.144,-0.864 -0.144,-1.296 -0.36,-3.24 2.16,-5.184 2.592,-2.016 6.264,-2.016 2.808,0 4.464,0.936 1.656,0.864 2.088,1.872 0.432,1.008 0.432,2.16 0,0.288 0,0.576 -0.144,0.36 -0.864,3.024 -0.72,2.592 -1.944,7.848 -1.224,5.256 -1.224,7.776 0,1.224 0.288,1.8 z m -25.77597,-11.808 q -0.864,0.288 -1.728,0.288 -1.584,0 -3.6,-1.296 -2.016,-1.296 -2.664,-1.296 -1.8,-0.144 -3.024,2.808 -1.152,2.88 -1.152,6.336 0,0.936 0.072,1.512 0.072,0.576 0.36,1.8 0.288,1.152 1.944,1.152 0.432,0 2.088,-1.368 1.656,-1.44 4.608,-1.44 2.736,0 3.816,1.944 1.152,1.872 1.152,3.528 0,1.296 -0.576,2.592 -0.504,1.296 -1.944,3.096 -1.44,1.728 -4.248,2.88 -2.736,1.08 -5.832,1.08 -3.672,0 -7.488,-1.44 -3.816,-1.512 -5.76,-4.752 -1.872,-3.24 -1.872,-7.704 0,-4.68 1.8,-9.432 1.8,-4.824 4.464,-8.28 2.664,-3.528 6.336,-5.184 3.672,-1.728 7.992,-1.728 2.808,0 5.616,0.72 2.808,0.72 4.248,2.664 1.44,1.872 1.44,4.392 0,0.864 -0.36,2.304 -0.36,1.368 -1.944,2.736 -1.584,1.368 -3.744,2.088 z m -58.96789,21.816 q -2.232,-1.872 -3.24,-4.464 -0.936,-2.592 -0.936,-5.976 0,-6.048 3.096,-12.672 3.096,-6.624 5.904,-8.928 2.88,-2.304 5.832,-3.384 2.952,-1.08 5.904,-1.08 2.952,0 6.192,1.368 3.312,1.368 5.112,4.68 1.872,3.24 1.872,7.704 0,5.04 -2.088,10.368 -2.016,5.328 -4.536,8.496 -2.448,3.096 -6.48,4.968 -3.96,1.872 -8.208,1.872 -2.448,0 -4.536,-0.72 -2.016,-0.648 -3.888,-2.232 z m 14.616,-24.552 q -1.152,-0.144 -2.448,0.936 -1.224,1.008 -1.512,2.736 l -1.656,8.424 q -0.072,0.36 -0.072,1.08 0,1.44 0.576,2.232 0.576,0.72 1.656,0.936 1.368,0.216 2.592,-1.584 1.296,-1.8 1.512,-3.528 l 1.296,-7.272 q 0.072,-0.36 0.072,-1.008 0,-2.736 -2.016,-2.952 z m -37.07995,-0.288 q -0.72,-0.36 -1.296,-0.36 -0.936,0 -1.584,0.504 -0.648,0.504 -0.648,1.224 0,0.432 0.36,0.864 0.432,0.36 7.776,3.384 7.344,2.952 7.344,7.488 0,1.584 -1.296,5.256 -1.224,3.672 -6.048,6.336 -4.824,2.664 -11.088,2.664 -5.256,0 -8.496,-1.224 -3.168,-1.224 -4.104,-2.016 -0.936,-0.792 -1.584,-2.016 -0.576,-1.224 -0.576,-2.952 0,-2.592 1.656,-4.68 1.728,-2.16 3.384,-2.592 1.656,-0.432 2.448,-0.432 2.088,0 5.544,1.872 3.456,1.8 4.32,2.088 0.864,0.288 1.296,0.288 0.864,0 1.44,-0.792 0.648,-0.792 0.288,-1.728 -6.264,-2.808 -10.44,-4.968 -4.176,-2.16 -4.464,-4.176 -0.216,-2.016 -0.216,-2.448 0,-0.504 0,-0.792 0,-4.032 2.304,-7.128 2.376,-3.168 5.328,-4.176 2.952,-1.008 5.328,-1.44 2.448,-0.504 4.536,-0.504 2.88,0 5.4,0.864 2.592,0.792 4.608,2.664 2.016,1.872 2.016,4.536 0,1.944 -1.656,4.176 -1.584,2.16 -5.256,2.16 -3.168,0 -6.624,-1.944 z m -39.59994,0 q -0.72,-0.36 -1.296,-0.36 -0.936,0 -1.584,0.504 -0.648,0.504 -0.648,1.224 0,0.432 0.36,0.864 0.432,0.36 7.776,3.384 7.344,2.952 7.344,7.488 0,1.584 -1.296,5.256 -1.224,3.672 -6.048,6.336 -4.824,2.664 -11.088,2.664 -5.256,0 -8.496,-1.224 -3.168,-1.224 -4.104,-2.016 -0.936,-0.792 -1.584,-2.016 -0.576,-1.224 -0.576,-2.952 0,-2.592 1.656,-4.68 1.728,-2.16 3.384,-2.592 1.656,-0.432 2.448,-0.432 2.088,0 5.544,1.872 3.456,1.8 4.32,2.088 0.864,0.288 1.296,0.288 0.864,0 1.44,-0.792 0.648,-0.792 0.288,-1.728 -6.264,-2.808 -10.44,-4.968 -4.176,-2.16 -4.464,-4.176 -0.216,-2.016 -0.216,-2.448 0,-0.504 0,-0.792 0,-4.032 2.304,-7.128 2.376,-3.168 5.328,-4.176 2.952,-1.008 5.328,-1.44 2.448,-0.504 4.536,-0.504 2.88,0 5.4,0.864 2.592,0.792 4.608,2.664 2.016,1.872 2.016,4.536 0,1.944 -1.656,4.176 -1.584,2.16 -5.256,2.16 -3.168,0 -6.624,-1.944 z m -37.43988,-10.512 q -0.792,-0.288 -1.584,-0.288 -2.88,0 -4.176,2.952 -1.296,2.952 -2.664,8.28 -0.36,1.296 0.648,2.088 1.008,0.792 1.656,0.36 1.296,-1.008 4.104,-6.048 2.808,-5.112 6.192,-5.112 0.432,0 1.656,0.216 1.296,0.216 2.16,1.368 0.864,1.152 0.864,2.664 0,0.432 -0.36,1.872 -0.36,1.44 -0.72,3.744 -0.288,2.304 -0.288,4.248 0,2.16 0.36,4.176 0.432,1.944 1.152,3.6 0.72,1.584 0.72,3.456 0,3.6 -2.808,6.264 -2.736,2.592 -6.552,2.592 -1.44,0 -4.032,-0.792 -2.592,-0.864 -3.456,-3.744 -0.864,-2.88 -0.864,-4.68 0,-0.576 0.072,-1.656 0.072,-1.08 0.072,-1.44 0,-1.44 -0.432,-2.016 -0.36,-0.576 -0.864,-1.08 -0.432,-0.504 -1.08,-0.504 -0.792,0 -1.152,0.72 -0.288,0.648 -2.448,9.072 -2.088,8.424 -5.976,13.752 -3.888,5.4 -8.352,6.12 -4.392,0.72 -4.968,0.72 -2.52,0 -4.392,-1.368 -1.872,-1.296 -2.232,-2.736 -0.288,-1.368 -0.36,-2.16 -0.072,-0.72 -0.072,-1.296 0,-4.464 5.4,-7.632 5.4,-3.24 6.48,-5.112 1.08,-1.872 2.592,-6.192 1.584,-4.32 1.8,-6.624 -0.072,-0.288 -0.072,-0.504 0,-0.288 0,-0.36 0,-0.72 -1.008,-1.008 -2.592,2.592 -5.616,2.592 -2.304,0 -3.456,-2.16 -0.648,-1.44 -0.648,-2.736 0,-2.736 2.088,-4.968 2.088,-2.232 4.104,-2.736 2.088,-0.504 3.24,-0.576 1.224,-0.144 2.808,-0.144 h 1.224 q 0.504,0 0.936,-0.576 0.432,-0.792 1.224,-2.448 0.864,-1.656 2.448,-4.824 3.024,-5.4 7.92,-9.216 4.968,-3.888 12.24,-3.888 2.664,0 5.616,0.648 2.952,0.576 4.392,2.448 1.512,1.872 1.512,4.392 0,1.008 -0.648,3.168 -0.648,2.16 -3.6,4.032 -2.952,1.8 -6.624,1.8 -1.872,0 -4.176,-0.72 z" />
    </g>
</svg>
