<?xml version="1.0" encoding="UTF-8" standalone="no"?>
<!-- Created with Inkscape (http://www.inkscape.org/) -->

<svg
   width="397.97684mm"
   height="390.58096mm"
   viewBox="0 0 397.97684 390.58096"
   version="1.1"
   id="svg5"
   sodipodi:docname="booo.svg"
   inkscape:version="1.1.2 (0a00cf5339, 2022-02-04)"
   xmlns:inkscape="http://www.inkscape.org/namespaces/inkscape"
   xmlns:sodipodi="http://sodipodi.sourceforge.net/DTD/sodipodi-0.dtd"
   xmlns:xlink="http://www.w3.org/1999/xlink"
   xmlns="http://www.w3.org/2000/svg"
   xmlns:svg="http://www.w3.org/2000/svg">
  <sodipodi:namedview
     id="namedview7"
     pagecolor="#ffffff"
     bordercolor="#666666"
     borderopacity="1.0"
     inkscape:pageshadow="2"
     inkscape:pageopacity="0.0"
     inkscape:pagecheckerboard="0"
     inkscape:document-units="mm"
     showgrid="false"
     inkscape:zoom="0.43762991"
     inkscape:cx="902.58913"
     inkscape:cy="635.23995"
     inkscape:window-width="1920"
     inkscape:window-height="1022"
     inkscape:window-x="0"
     inkscape:window-y="0"
     inkscape:window-maximized="1"
     inkscape:current-layer="layer4"
     inkscape:snap-nodes="false"
     inkscape:snap-bbox="false"
     inkscape:snap-global="false" />
  <defs
     id="defs2">
    <rect
       x="219.1974"
       y="80.036049"
       width="1089.0276"
       height="201.97285"
       id="rect117112" />
    <rect
       x="1062.6676"
       y="590.16565"
       width="157.42814"
       height="301.69585"
       id="rect105966" />
    <rect
       x="409.26624"
       y="545.17978"
       width="186.07624"
       height="265.78067"
       id="rect59130" />
  </defs>
  <g
     inkscape:groupmode="layer"
     id="layer4"
     inkscape:label="Layer 4">
    <rect
       style="display:inline;fill:#512dab;fill-opacity:1;fill-rule:evenodd;stroke-width:0.411001;paint-order:stroke fill markers"
       id="rect4136"
       width="397.97684"
       height="390.58096"
       x="-126.24397"
       y="-123.60837"
       rx="0"
       ry="0"
       transform="translate(126.24397,123.60837)" />
    <text
       xml:space="preserve"
       transform="scale(0.26458333)"
       id="text105964"
       style="font-style:normal;font-weight:normal;font-size:40px;line-height:1.25;font-family:sans-serif;white-space:pre;shape-inside:url(#rect105966);fill:#000000;fill-opacity:1;stroke:none" />
  </g>
  <g
     inkscape:label="Layer 1"
     inkscape:groupmode="layer"
     id="layer1"
     transform="translate(126.24397,123.60837)"
     style="display:none">
    <g
       id="g4990"
       transform="matrix(1.39502,0,0,1.39502,-35.557206,-74.277195)"
       style="fill:#ffffff;stroke-width:0.716835">
      <g
         id="g5587"
         style="fill:#ffffff">
        <g
           id="g8372"
           style="fill:#ffffff" />
        <g
           id="g9949"
           style="fill:#ffffff" />
      </g>
    </g>
    <g
       id="g17391"
       style="fill:#ffffff;stroke-width:1.08978"
       transform="matrix(0.9047894,0,0,0.93061244,9.0058093,-18.401525)" />
  </g>
  <g
     inkscape:groupmode="layer"
     id="layer2"
     inkscape:label="Layer 2"
     style="display:none">
    <path
       style="fill:#ffffff;stroke-width:1.50196"
       sodipodi:type="inkscape:offset"
       inkscape:radius="3.2665033"
       inkscape:original="M 255.08203 103.13867 C 250.53599 103.04654 245.69663 103.9116 240.5625 106.01172 C 223.46764 113.00436 217.61701 135.38183 198.5293 135.62695 C 178.80072 135.88031 163.54244 107.71618 143.89062 108.73438 C 115.97894 110.18051 93.750148 125.33562 77.089844 150.51172 C 60.429544 175.68781 52.128327 233.31752 50.263672 254.09375 C 48.399017 274.86998 50.993867 274.4667 60.0625 266.57031 C 69.131134 258.67392 71.175699 266.25112 72.238281 247.21875 C 73.300861 228.18639 80.833496 175.51846 95.449219 156.33594 C 110.06495 137.15342 127.22511 121.85621 144.44922 127.02148 C 165.3251 133.28185 174.09397 154.4331 195.5918 154.07031 C 217.08964 153.70752 228.29971 134.70036 243.74023 126.18945 C 259.18074 117.67854 271.1493 126.75746 278.94727 140.44922 L 308.53125 192.39258 C 312.70311 199.71757 317.84787 189.70684 315.41797 174.4668 C 313.47564 162.28476 308.34519 152.40813 297.90625 135.97852 C 288.98541 121.93819 274.78155 103.5379 255.08203 103.13867 z "
       xlink:href="#path34134"
       id="path45961"
       d="m 255.14844,99.873047 c -5.00712,-0.101474 -10.31333,0.861793 -15.82227,3.115233 -9.55668,3.90915 -15.57607,11.78616 -21.43555,18.14844 -5.85947,6.36228 -11.13038,11.11838 -19.40234,11.22461 -8.29946,0.10658 -16.5374,-6.14274 -25.28516,-13.03321 -8.74775,-6.89046 -18.05867,-14.44735 -29.48242,-13.85546 -28.99984,1.5025 -52.290162,17.44821 -69.355466,43.23632 -8.825371,13.3364 -14.998821,34.22302 -19.427734,54.54883 -4.428913,20.32582 -6.980866,39.99284 -7.927734,50.54297 -0.47211,5.2603 -0.676338,9.22041 -0.541016,12.26367 0.135322,3.04327 0.270136,5.36791 2.314453,7.35938 1.022159,0.99573 2.664464,1.50545 3.957031,1.40429 1.292568,-0.10115 2.305371,-0.55498 3.283204,-1.0957 1.955665,-1.08144 3.868637,-2.6835 6.183593,-4.69922 4.052388,-3.52856 6.008603,-2.94615 9.029297,-5.44726 1.510347,-1.25056 2.540119,-3.22585 3.109375,-5.68946 0.569256,-2.4636 0.884729,-5.66774 1.154297,-10.49609 0.516691,-9.25469 2.653202,-27.13074 6.455078,-44.88281 3.801876,-17.75207 9.49341,-35.54107 16.091797,-44.20117 7.188055,-9.43401 14.969755,-17.81435 22.750005,-23.06055 7.78024,-5.24621 15.23852,-7.34751 22.71484,-5.10547 9.58896,2.87559 16.61711,9.30029 24.22851,15.42383 7.61141,6.12354 16.07902,11.96131 27.90625,11.76172 11.70162,-0.19747 20.66733,-5.54579 28.31641,-11.58789 7.64908,-6.04211 14.24088,-12.77674 21.35352,-16.69727 6.97773,-3.84617 12.41204,-3.61896 17.44531,-1.1289 5.03327,2.49005 9.65068,7.65334 13.34766,14.14453 l 29.58398,51.94336 c 0.6721,1.18008 1.43109,2.18053 2.48437,2.96289 1.05328,0.78235 2.54758,1.291 3.99024,1.08593 2.88531,-0.41013 4.319,-2.63617 5.2832,-4.875 1.9284,-4.47765 2.48226,-11.14664 1.19336,-19.23047 -2.03993,-12.79416 -7.48355,-23.2057 -17.98047,-39.72656 -4.53487,-7.13734 -10.4502,-15.47848 -17.94531,-22.21289 -7.49511,-6.73441 -16.72006,-11.92073 -27.57031,-12.140623 z"
       transform="matrix(0.66667018,0,0,0.66491651,41.177445,93.735708)" />
    <path
       id="path34132"
       style="fill:none;stroke-width:3.7795"
       d="M 542.9062,179.17051 C 560.05459,113.24849 620.37125,63.865563 689.35839,63.473586 v 0 C 755.8403,60.82296 816.07416,110.18305 836.36916,173.12947"
       transform="scale(0.26458333)" />
    <path
       id="path34395"
       style="fill:none;stroke-width:3.7795"
       d="m 546.51412,376.74991 c -14.85437,-48.7281 -6.51018,-103.51746 -8.37973,-154.13152 -0.52902,-15.0122 1.16829,-29.5952 4.77181,-43.44788"
       transform="scale(0.26458333)" />
    <path
       id="path34393"
       style="fill:none;stroke-width:3.7795"
       d="m 835.78872,371.40476 c -6.13001,23.29539 -16.80417,44.93836 -35.02362,63.25561 -63.49289,69.94356 -187.47519,59.78343 -237.58307,-21.6364 -7.47596,-11.57253 -12.84158,-23.7222 -16.66791,-36.27406"
       transform="scale(0.26458333)" />
    <path
       id="path34391"
       style="fill:none;stroke-width:3.7795"
       d="m 836.36916,173.12947 c 6.69415,20.76242 9.04311,43.00297 5.83786,65.34279 0.87822,43.10121 4.68734,90.72865 -6.4183,132.9325"
       transform="scale(0.26458333)" />
  </g>
  <g
     inkscape:groupmode="layer"
     id="layer3"
     inkscape:label="Layer 3"
     style="display:inline">
    <path
       id="path1394"
       style="display:inline;fill:#ffffff;fill-opacity:1;fill-rule:evenodd;stroke-width:1.55339;paint-order:stroke fill markers"
       d="m 540.4082,851.38672 c -49.96473,26.64531 -90.33636,62.51499 -113.98632,104.32031 -55.36477,91.39837 -25.71952,205.53457 72.05664,277.39647 95.41836,73.5924 252.6817,100.0252 382.0996,64.2246 28.02456,-7.1911 54.35716,-17.1573 78.4961,-29.3398 32.73003,60.2323 108.93088,109.8844 196.09378,125.6387 35.3947,7.4877 82.0111,-7.399 77.2246,-38.2813 -11.585,-69.862 -94.9902,-125.6974 -182.1758,-151.209 l -2.7344,-0.5488 c 37.2664,-38.9363 59.8669,-85.1899 61.8653,-132.9941 6.362,-84.08764 -51.3607,-168.22746 -144.96489,-218.48442 l -19.93945,45.10546 c 64.57264,41.58721 107.70134,103.74506 106.81254,178.13866 -6.7334,91.4925 -102.6387,174.4615 -226.88481,194.3731 -16.63116,3.0238 -33.55176,4.85 -50.53711,5.5527 -108.80466,4.5004 -220.26859,-37.1582 -275.3789,-106.1563 -70.02229,-81.4334 -53.57694,-194.2755 38.39258,-262.19331 8.78808,-6.533 17.83843,-12.52657 27.09375,-18.03516 z m 484.2949,373.55668 v 0 c 59.383,35.548 124.9086,73.1537 156.1035,125.1718 3.1461,16.0495 -30.6076,3.8256 -37.3554,0.039 -58.0134,-26.3669 -111.9436,-61.8668 -153.19143,-99.9023 12.27823,-7.8443 23.77483,-16.3211 34.44333,-25.3125 z"
       transform="scale(0.26458333)" />
    <path
       id="path1964"
       style="fill:#ffffff;stroke-width:0.768897"
       transform="matrix(1.2606639,0,0,1.3417254,-51.440453,-20.545947)"
       d="m 198.50391,51.099609 c -0.79869,-0.0034 -1.59567,0.01597 -2.39258,0.05859 -7.65035,0.409233 -15.16007,2.948486 -21.35938,7.835938 -22.42391,15.984573 -25.64177,51.108173 -7.60937,71.587893 6.5e-4,6.8e-4 10e-4,0.001 0.002,0.002 0.86419,0.86803 1.62723,1.6829 2.18359,2.38672 0.55637,0.70382 0.90286,1.29947 0.94727,1.70703 0.0222,0.20379 -0.0245,0.35547 -0.1543,0.46875 -0.12983,0.11328 -0.35099,0.18933 -0.67968,0.20899 -0.65739,0.0393 -1.73619,-0.14384 -3.32618,-0.60742 -0.001,-5e-5 -0.003,-5e-5 -0.004,0 -14.28672,-3.00054 -26.31371,-12.12296 -39.26172,-18.48243 -6.7e-4,-1e-5 -10e-4,-1e-5 -0.002,0 -5.13314,-2.29537 -10.30448,-5.86998 -15.69922,-8.37695 -5.39475,-2.50696 -11.01787,-3.94604 -17.044924,-1.96094 -16.305959,5.01915 -20.681203,28.00422 -9.269532,39.95313 0.0018,0.002 0.0038,0.004 0.0059,0.006 9.539548,7.27357 20.739596,12.14597 31.031246,18.27148 10e-4,7.2e-4 0.003,0.001 0.004,0.002 15.83476,7.66854 30.24829,24.65121 35.35742,37.49023 2.55227,6.41374 2.86283,15.35404 3.04297,23.31055 0.0901,3.97825 0.14713,7.71147 0.43945,10.76172 0.29233,3.05024 0.81556,5.41816 1.85547,6.67578 0.5166,0.62475 1.03028,1.00605 1.53907,1.16797 0.50878,0.16191 1.01124,0.10011 1.48828,-0.15039 0.95408,-0.501 1.81751,-1.74714 2.5625,-3.50196 6.73427,-22.72282 0.0705,-52.62214 -18.26563,-68.52344 -6.5e-4,-6.8e-4 -0.001,-0.001 -0.002,-0.002 -14.79984,-14.3418 -34.83502,-21.2496 -51.726544,-32.61932 l -0.0039,-0.004 c -4.602969,-3.81097 -5.140548,-10.32541 -2.96289,-15.50585 1.089166,-2.59103 2.857105,-4.84484 5.130859,-6.25977 2.273755,-1.41493 5.053386,-1.99173 8.175785,-1.22461 15.6049,6.70531 29.94038,16.08445 45.23828,23.49219 10.13764,6.33019 22.13555,6.58349 33.66016,6.375 18.16293,-0.18326 36.47855,0.89137 54.54882,-1.07227 0.003,-3.4e-4 0.007,-0.001 0.01,-0.002 20.9315,-6.58829 38.6712,-20.39526 58.79492,-28.80078 2.93524,-0.75887 5.59571,-0.26716 7.81641,1.02148 2.22222,1.28952 4.0031,3.37796 5.16797,5.81055 2.32974,4.86518 2.19076,11.09796 -1.78907,15.05078 -11.07035,8.54676 -24.24446,13.88147 -36.05859,21.3457 -20.71872,13.82023 -36.00996,33.17372 -37.12305,57.7168 -1.62429,7.78491 -0.77321,20.27793 1.1836,25.64258 0.4892,1.34116 1.04164,2.24316 1.67383,2.51172 0.31609,0.13428 0.65299,0.0996 0.98632,-0.11914 0.33333,-0.21879 0.66768,-0.61695 1.00782,-1.21875 1.36055,-2.4072 2.80984,-8.07338 4.19336,-18.5 5.53255,-28.1409 12.71917,-44.50622 39.4414,-62.62305 7.70983,-3.57079 16.04434,-6.49685 23.04883,-10.8418 l 0.004,-0.002 c 10e-4,-7.6e-4 0.003,-0.001 0.004,-0.002 15.98438,-6.37434 19.58336,-30.03099 6.60743,-41.11328 -2.59676,-2.91844 -5.86312,-4.27726 -9.36133,-4.88672 -3.49822,-0.60947 -7.23099,-0.4718 -10.77149,-0.39649 -0.008,7.4e-4 -0.0164,0.003 -0.0234,0.008 -16.11748,8.63574 -32.03884,17.64341 -48.38476,25.83789 -0.004,0.002 -0.007,0.004 -0.01,0.006 -0.56883,0.45243 -2.10481,1.17628 -3.98437,1.89649 -1.87957,0.7202 -4.10632,1.44179 -6.07617,1.9082 -0.98493,0.23321 -1.90611,0.4026 -2.68555,0.47657 -0.77944,0.074 -1.41904,0.0523 -1.83398,-0.0918 -0.20748,-0.072 -0.35606,-0.17448 -0.44532,-0.30469 -0.0893,-0.13021 -0.12245,-0.29201 -0.0859,-0.5 0.073,-0.41598 0.43249,-1.00746 1.16211,-1.79101 17.03829,-17.81408 18.07089,-48.151472 1.73632,-66.744146 l -0.002,-0.002 C 222.5157,56.34536 210.48337,51.149927 198.50391,51.099609 Z m -0.28125,10.431641 c 0.83164,0.005 1.6638,0.04218 2.49414,0.113281 11.07112,0.947988 21.81938,7.686558 26.79492,17.882813 6.5e-4,6.85e-4 0.001,0.0014 0.002,0.002 11.53935,19.567162 1.37057,48.680966 -21.14062,54.589846 -8.4547,2.35114 -17.57449,0.35059 -24.88477,-4.29883 1e-5,-6.7e-4 1e-5,-0.001 0,-0.002 -21.7721,-13.45778 -21.86108,-49.798262 0.12695,-63.125004 10e-4,-6.09e-4 0.003,-0.0013 0.004,-0.002 4.98513,-3.586285 10.78201,-5.195131 16.60352,-5.160156 z m -18.58204,31.830078 c -4.0098,1.574274 -2.92634,1.261175 -4.64257,3.261719 -0.006,0.008 -0.009,0.01746 -0.01,0.02734 -1.39217,11.487983 6.30269,23.818443 17.60938,26.990233 l -0.002,-0.002 c 7.35733,2.30622 14.68303,0.17338 20.24024,-4.36133 5.5572,-4.53471 9.35101,-11.47097 9.65234,-18.77539 0.47489,-2.548928 -0.016,-4.332563 -1.00195,-5.421876 -0.987,-1.090485 -2.46381,-1.480172 -3.94141,-1.259766 -2.95346,0.440555 -5.92126,3.322692 -5.05273,7.921882 -0.68462,5.66205 -4.99541,9.91049 -10.03516,11.52929 -5.04214,1.61958 -10.80552,0.60782 -14.40039,-4.25586 -6.1e-4,-10e-4 -10e-4,-0.003 -0.002,-0.004 -1.51702,-1.66941 -2.51517,-5.3277 -3.61133,-8.6836 -0.54808,-1.677947 -1.12215,-3.279828 -1.80664,-4.52539 -0.68449,-1.245561 -1.48089,-2.139958 -2.48047,-2.378906 -0.16659,-0.03982 -0.33824,-0.06073 -0.51563,-0.0625 z"
       sodipodi:nodetypes="cccccssssccccscccccsssssscccccsscccsccsscccssssccccccsccccssscsccccccsccccccccccccccscsscsccssscc" />
  </g>
  <g
     inkscape:groupmode="layer"
     id="layer5"
     inkscape:label="Layer 5"
     style="display:none">
    <path
       id="path33588-5"
       style="display:inline;fill:#ffffff;stroke-width:1.49998"
       transform="matrix(0.66667018,0,0,0.66667018,48.895958,73.110404)"
       d="m 163.84298,11.302721 c -14.2743,-13.6774601 -49.83134,-25.382228 -52.50343,2.915017 -1.54726,16.385347 12.57577,28.355139 8.67942,49.05977 -3.77015,20.033993 2.27828,41.337292 14.94587,59.302572 16.42324,23.29157 58.07764,29.27447 83.37876,8.19179 31.6935,-24.38283 35.49394,-88.150299 15.58125,-113.941783 -1.0928,-32.741574 -34.1773,-15.3726853 -70.08187,-5.527366 z m 21.19238,32.626623 c 24.00004,12.196494 19.87525,-26.736915 29.74654,-7.801307 27.43593,110.731783 -92.17164,101.953733 -67.98838,16.383151 5.59367,-16.671257 14.24181,-20.778337 38.24184,-8.581844 z"
       sodipodi:nodetypes="csssccczccz" />
  </g>
</svg>
