<?xml version="1.0" encoding="UTF-8" standalone="no"?>
<!-- Created with Inkscape (http://www.inkscape.org/) -->

<svg
   inkscape:version="1.1.2 (0a00cf5339, 2022-02-04)"
   sodipodi:docname="drawing.svg"
   id="svg5"
   version="1.1"
   viewBox="0 0 397.97684 390.58096"
   height="390.58096mm"
   width="397.97684mm"
   xmlns:inkscape="http://www.inkscape.org/namespaces/inkscape"
   xmlns:sodipodi="http://sodipodi.sourceforge.net/DTD/sodipodi-0.dtd"
   xmlns:xlink="http://www.w3.org/1999/xlink"
   xmlns="http://www.w3.org/2000/svg"
   xmlns:svg="http://www.w3.org/2000/svg">
  <sodipodi:namedview
     id="namedview7"
     pagecolor="#ffffff"
     bordercolor="#666666"
     borderopacity="1.0"
     inkscape:pageshadow="2"
     inkscape:pageopacity="0.0"
     inkscape:pagecheckerboard="0"
     inkscape:document-units="mm"
     showgrid="false"
     inkscape:zoom="0.30945108"
     inkscape:cx="1269.9907"
     inkscape:cy="-334.46321"
     inkscape:window-width="1920"
     inkscape:window-height="1022"
     inkscape:window-x="0"
     inkscape:window-y="0"
     inkscape:window-maximized="1"
     inkscape:current-layer="layer3"
     inkscape:snap-nodes="false"
     inkscape:snap-bbox="false"
     inkscape:snap-global="false" />
  <defs
     id="defs2">
    <rect
       x="219.1974"
       y="80.036049"
       width="1089.0276"
       height="201.97285"
       id="rect117112" />
    <rect
       x="1062.6676"
       y="590.16565"
       width="157.42814"
       height="301.69585"
       id="rect105966" />
    <rect
       x="409.26624"
       y="545.17978"
       width="186.07624"
       height="265.78067"
       id="rect59130" />
  </defs>
  <g
     inkscape:groupmode="layer"
     id="layer4"
     inkscape:label="Layer 4"
     sodipodi:insensitive="true">
    <rect
       style="display:inline;fill:#512dab;fill-opacity:1;fill-rule:evenodd;stroke-width:0.411001;paint-order:stroke fill markers"
       id="rect4136"
       width="590.63623"
       height="390.58096"
       x="-192.36882"
       y="0.49706975"
       rx="0"
       ry="0" />
    <text
       xml:space="preserve"
       transform="scale(0.26458333)"
       id="text105964"
       style="font-style:normal;font-weight:normal;font-size:40px;line-height:1.25;font-family:sans-serif;white-space:pre;shape-inside:url(#rect105966);fill:#000000;fill-opacity:1;stroke:none" />
  </g>
  <g
     inkscape:label="Layer 1"
     inkscape:groupmode="layer"
     id="layer1"
     transform="translate(126.24397,123.60837)"
     style="display:none">
    <g
       id="g4990"
       transform="matrix(1.39502,0,0,1.39502,-35.557206,-74.277195)"
       style="fill:#ffffff;stroke-width:0.716835">
      <g
         id="g5587"
         style="fill:#ffffff">
        <g
           id="g8372"
           style="fill:#ffffff" />
        <g
           id="g9949"
           style="fill:#ffffff" />
      </g>
    </g>
    <g
       id="g17391"
       style="fill:#ffffff;stroke-width:1.08978"
       transform="matrix(0.9047894,0,0,0.93061244,9.0058093,-18.401525)" />
  </g>
  <g
     inkscape:groupmode="layer"
     id="layer2"
     inkscape:label="Layer 2"
     style="display:none">
    <path
       style="fill:#ffffff;stroke-width:1.50196"
       sodipodi:type="inkscape:offset"
       inkscape:radius="3.2665033"
       inkscape:original="M 255.08203 103.13867 C 250.53599 103.04654 245.69663 103.9116 240.5625 106.01172 C 223.46764 113.00436 217.61701 135.38183 198.5293 135.62695 C 178.80072 135.88031 163.54244 107.71618 143.89062 108.73438 C 115.97894 110.18051 93.750148 125.33562 77.089844 150.51172 C 60.429544 175.68781 52.128327 233.31752 50.263672 254.09375 C 48.399017 274.86998 50.993867 274.4667 60.0625 266.57031 C 69.131134 258.67392 71.175699 266.25112 72.238281 247.21875 C 73.300861 228.18639 80.833496 175.51846 95.449219 156.33594 C 110.06495 137.15342 127.22511 121.85621 144.44922 127.02148 C 165.3251 133.28185 174.09397 154.4331 195.5918 154.07031 C 217.08964 153.70752 228.29971 134.70036 243.74023 126.18945 C 259.18074 117.67854 271.1493 126.75746 278.94727 140.44922 L 308.53125 192.39258 C 312.70311 199.71757 317.84787 189.70684 315.41797 174.4668 C 313.47564 162.28476 308.34519 152.40813 297.90625 135.97852 C 288.98541 121.93819 274.78155 103.5379 255.08203 103.13867 z "
       xlink:href="#path34134"
       id="path45961"
       d="m 255.14844,99.873047 c -5.00712,-0.101474 -10.31333,0.861793 -15.82227,3.115233 -9.55668,3.90915 -15.57607,11.78616 -21.43555,18.14844 -5.85947,6.36228 -11.13038,11.11838 -19.40234,11.22461 -8.29946,0.10658 -16.5374,-6.14274 -25.28516,-13.03321 -8.74775,-6.89046 -18.05867,-14.44735 -29.48242,-13.85546 -28.99984,1.5025 -52.290162,17.44821 -69.355466,43.23632 -8.825371,13.3364 -14.998821,34.22302 -19.427734,54.54883 -4.428913,20.32582 -6.980866,39.99284 -7.927734,50.54297 -0.47211,5.2603 -0.676338,9.22041 -0.541016,12.26367 0.135322,3.04327 0.270136,5.36791 2.314453,7.35938 1.022159,0.99573 2.664464,1.50545 3.957031,1.40429 1.292568,-0.10115 2.305371,-0.55498 3.283204,-1.0957 1.955665,-1.08144 3.868637,-2.6835 6.183593,-4.69922 4.052388,-3.52856 6.008603,-2.94615 9.029297,-5.44726 1.510347,-1.25056 2.540119,-3.22585 3.109375,-5.68946 0.569256,-2.4636 0.884729,-5.66774 1.154297,-10.49609 0.516691,-9.25469 2.653202,-27.13074 6.455078,-44.88281 3.801876,-17.75207 9.49341,-35.54107 16.091797,-44.20117 7.188055,-9.43401 14.969755,-17.81435 22.750005,-23.06055 7.78024,-5.24621 15.23852,-7.34751 22.71484,-5.10547 9.58896,2.87559 16.61711,9.30029 24.22851,15.42383 7.61141,6.12354 16.07902,11.96131 27.90625,11.76172 11.70162,-0.19747 20.66733,-5.54579 28.31641,-11.58789 7.64908,-6.04211 14.24088,-12.77674 21.35352,-16.69727 6.97773,-3.84617 12.41204,-3.61896 17.44531,-1.1289 5.03327,2.49005 9.65068,7.65334 13.34766,14.14453 l 29.58398,51.94336 c 0.6721,1.18008 1.43109,2.18053 2.48437,2.96289 1.05328,0.78235 2.54758,1.291 3.99024,1.08593 2.88531,-0.41013 4.319,-2.63617 5.2832,-4.875 1.9284,-4.47765 2.48226,-11.14664 1.19336,-19.23047 -2.03993,-12.79416 -7.48355,-23.2057 -17.98047,-39.72656 -4.53487,-7.13734 -10.4502,-15.47848 -17.94531,-22.21289 -7.49511,-6.73441 -16.72006,-11.92073 -27.57031,-12.140623 z"
       transform="matrix(0.66667018,0,0,0.66491651,41.177445,93.735708)" />
    <path
       id="path34132"
       style="fill:none;stroke-width:3.7795"
       d="M 542.9062,179.17051 C 560.05459,113.24849 620.37125,63.865563 689.35839,63.473586 v 0 C 755.8403,60.82296 816.07416,110.18305 836.36916,173.12947"
       transform="scale(0.26458333)" />
    <path
       id="path34395"
       style="fill:none;stroke-width:3.7795"
       d="m 546.51412,376.74991 c -14.85437,-48.7281 -6.51018,-103.51746 -8.37973,-154.13152 -0.52902,-15.0122 1.16829,-29.5952 4.77181,-43.44788"
       transform="scale(0.26458333)" />
    <path
       id="path34393"
       style="fill:none;stroke-width:3.7795"
       d="m 835.78872,371.40476 c -6.13001,23.29539 -16.80417,44.93836 -35.02362,63.25561 -63.49289,69.94356 -187.47519,59.78343 -237.58307,-21.6364 -7.47596,-11.57253 -12.84158,-23.7222 -16.66791,-36.27406"
       transform="scale(0.26458333)" />
    <path
       id="path34391"
       style="fill:none;stroke-width:3.7795"
       d="m 836.36916,173.12947 c 6.69415,20.76242 9.04311,43.00297 5.83786,65.34279 0.87822,43.10121 4.68734,90.72865 -6.4183,132.9325"
       transform="scale(0.26458333)" />
  </g>
  <g
     inkscape:groupmode="layer"
     id="layer3"
     inkscape:label="Layer 3"
     style="display:inline">
    <path
       id="path1394"
       style="display:inline;fill:#ffffff;fill-opacity:1;fill-rule:evenodd;stroke-width:0.411002;paint-order:stroke fill markers"
       d="m 341.27149,37.929291 c -18.67664,-18.341747 -45.15034,-27.177292 -64.3323,-21.471419 -19.47088,5.166839 -30.37951,24.503737 -26.51175,46.997145 3.32139,22.420423 21.20555,46.515423 43.45253,58.543313 4.74401,2.68063 9.62115,4.76429 14.49083,6.26157 -3.43817,12.43297 0.40748,29.10216 10.17528,42.60636 3.82379,5.63153 12.09744,9.69398 15.48808,4.88384 7.56759,-10.98019 3.55373,-29.42695 -4.94064,-44.25667 l -0.29956,-0.43095 c 10.1513,-0.41668 19.26965,-3.73797 25.79493,-9.95675 14.10851,-12.56637 15.93313,-36.96308 4.43323,-59.269003 -4.34377,-8.640852 -10.46339,-16.884043 -17.75063,-23.907436 z m 4.81116,76.244339 c -12.88342,11.52272 -36.75313,10.25907 -56.21955,-3.24783 -2.65262,-1.75938 -5.18796,-3.71866 -7.58495,-5.83888 -15.35467,-13.58168 -25.03147,-33.76679 -23.4837,-50.307027 1.15095,-20.170719 18.14559,-33.320218 39.51221,-30.530019 8.54193,0.832681 17.6237,4.618253 25.85358,9.39057 33.96964,20.060362 42.52406,66.181986 21.92241,80.533186 z m -23.1743,16.81258 c 3.40825,12.56369 7.38101,26.20755 4.80912,37.32699 -1.67277,2.58571 -4.65454,-3.47361 -5.07537,-4.86648 -4.4235,-11.14063 -7.09779,-22.9867 -7.71945,-33.52214 2.69249,0.5383 5.36153,0.88885 7.98568,1.06165 z"
       sodipodi:nodetypes="ccccccccccccccscccccccccc" />
    <path
       id="path1394-7"
       style="display:inline;fill:#ffffff;fill-opacity:1;fill-rule:evenodd;stroke-width:1.55339;paint-order:stroke fill markers"
       d="m -125.51829,246.77556 c 1.76542,6.6692 4.96476,22.70764 0.90501,36.82014 l -3.56764,13.37075 c 83.499594,54.26099 127.8155815,138.31498 102.077404,208.80113 -20.138572,85.79376 -123.038254,152.43555 -243.144534,155.85156 -16.131,0.79676 -32.35378,0.42565 -48.46875,-1.01953 -103.22905,-9.25773 -202.00755,-62.55358 -243.54882,-134.73242 -53.72134,-85.80613 -21.20871,-190.60712 75.71289,-243.48828 26.44738,-15.54698 50.03884,-26.10458 83.10286,-32.80942 0,0 6.72468,-14.09916 11.34079,-20.34028 5.3006,-7.16655 18.52013,-19.29007 18.52013,-19.29007 l -24.70401,-8.18296 c -98.24028,7.20402 -151.48862,51.307 -199.69337,113.08757 -65.96054,79.66218 -55.22335,191.41579 26.09961,271.60742 78.83989,81.53722 223.07906,126.10494 350.45508,108.28711 27.49784,-3.32697 53.81838,-9.49147 78.40625,-18.02734 21.76887,61.09803 86.104958,117.57927 165.882812,143.32617 32.231355,11.48776 78.412598,3.18554 78.556638,-26.65039 C 102.02651,725.79803 31.832387,662.56485 -46.496094,627.57617 l -2.49414,-0.85742 C -7.9963805,594.4821 20.277273,553.49604 29.367188,508.48047 51.338136,415.72735 -15.224472,303.65557 -125.51829,246.77556 Z m 51.836649,397.33577 c 50.611051,41.0372 106.703321,84.7861 128.263672,137.91601 0.545726,15.58742 -29.427203,-0.17933 -35.216797,-4.59961 -50.7041,-32.17394 -96.181125,-72.4895 -129.324214,-113.6289 12.755032,-5.90162 24.866643,-12.49933 36.277339,-19.6875 z"
       transform="scale(0.26458333)"
       sodipodi:nodetypes="cccccccccaccccccccccccccccc" />
    <path
       id="path1394-4"
       style="display:inline;fill:#ffffff;fill-opacity:1;fill-rule:evenodd;stroke-width:0.411001;paint-order:stroke fill markers"
       d="m -115.1382,74.46766 c -0.87582,13.436431 9.60511,26.06 25.468737,30.6761 15.67568,4.91949 35.687831,1.52328 48.637641,-8.25461 13.24081,-9.558293 16.42315,-23.498528 12.87661,-37.199055 -1.87238,-7.233147 -9.51633,-12.943075 -16.18681,-16.629879 -6.87612,-3.800464 -13.97769,-4.433135 -22.29581,-4.402767 -17.384181,-0.263407 -35.185088,8.223217 -43.245568,20.617109 -3.19173,4.762058 -5.00403,10.000334 -5.25481,15.193121 z m 49.072418,-30.222554 c 15.90713,0.222745 29.93508,9.096566 32.85409,21.001859 0.45322,1.591916 0.69669,3.217377 0.74398,4.854357 0.30283,10.486128 -7.44652,21.444788 -19.70883,27.089108 -14.49434,7.14245 -34.077283,6.08146 -45.501075,-2.48261 -4.760153,-3.31794 -7.840283,-7.930785 -9.715023,-12.613009 -7.49085,-19.461924 18.672955,-39.73055 41.326858,-37.849705 z"
       sodipodi:nodetypes="cccaacccccsccccc"
       inkscape:transform-center-x="-81.291642"
       inkscape:transform-center-y="-3.8588884" />
    <path
       id="path1394-4-5"
       style="display:inline;fill:#ffffff;fill-opacity:1;fill-rule:evenodd;stroke-width:0.411001;paint-order:stroke fill markers"
       inkscape:transform-center-x="-128.22005"
       inkscape:transform-center-y="-22.898636"
       d="m -73.985376,106.80682 c -8.195268,-0.009 -16.791805,1.42347 -25.054801,4.38733 -8.538123,2.97199 -16.641533,7.40242 -23.501923,12.85193 -13.02678,10.1356 -20.94352,23.90833 -21.95732,36.76106 l 9.6666,7.06417 c -0.74828,-3.16769 -0.93444,-6.51778 -0.46199,-9.9751 0.6508,-6.84687 4.23936,-13.94651 8.8315,-20.29695 19.31625,-26.18964 65.199362,-30.23711 79.968763,-12.70879 11.781078,11.11958 11.024367,30.31859 -2.053621,45.20189 -1.70098,2.03311 -3.604133,3.95918 -5.670971,5.76348 -3.696893,3.22731 -7.917823,6.06423 -12.441618,8.42894 l 14.243057,-1.42059 c 5.938068,-4.4749 11.049336,-9.66857 14.843022,-15.32878 2.57687,-3.66501 4.63682,-7.5896 5.947439,-11.31455 2.017691,-5.73461 29.1050977,-78.996917 2.790529,-16.53491 l 0.344164,-1.22163 c 2.592261,-9.20716 -4.909584,-14.35759 -11.258743,-20.01325 -8.030858,-7.60857 -20.575306,-11.62878 -34.234087,-11.64425 z" />
    <path
       id="path1394-2"
       style="display:inline;fill:#ffffff;fill-opacity:1;fill-rule:evenodd;stroke-width:0.411002;paint-order:stroke fill markers"
       d="m 271.38768,132.05517 c -5.76522,-3.92385 -16.33458,1.77129 -25.68394,13.83907 -9.40289,11.83962 -16.96745,29.2569 -18.38475,42.33114 -1.65071,13.2635 2.95758,21.30478 11.19655,19.5379 1.74072,-0.30083 3.59099,-0.991 5.58624,-2.1825 2.81167,-1.67911 8.09974,-3.48482 8.78771,-6.87334 0,0 -0.10415,-0.0508 -0.0734,-0.15265 1.94071,-6.42544 9.1136,-10.81513 12.89154,-17.72599 8.04555,-14.36547 12.26666,-31.15868 10.25496,-40.79742 -0.72979,-3.78207 -2.30689,-6.53253 -4.57495,-7.97621 z m -8.50435,47.91887 c -7.35359,13.14922 -17.81954,22.68043 -24.61218,22.2704 -0.93695,-0.003 -1.79368,-0.18727 -2.56625,-0.53754 -4.94896,-2.24366 -6.44406,-11.28268 -3.44372,-22.80282 3.3305,-13.7291 12.74431,-29.72964 21.88103,-37.1732 3.69218,-3.16126 7.21258,-4.62008 10.21534,-5.06197 12.34366,-1.58646 9.71566,24.95091 -1.47422,43.30513 z m -12.6807,21.08523 c 1e-5,1e-5 1e-5,-4e-5 1e-5,-6e-5 z"
       sodipodi:nodetypes="ccccacacccccsccccccc"
       inkscape:transform-center-x="41.205058"
       inkscape:transform-center-y="62.497727" />
  </g>
  <g
     inkscape:groupmode="layer"
     id="layer5"
     inkscape:label="Layer 5"
     style="display:none">
    <path
       id="path33588-5"
       style="display:inline;fill:#ffffff;stroke-width:1.49998"
       transform="matrix(0.66667018,0,0,0.66667018,48.895958,73.110404)"
       d="m 163.84298,11.302721 c -14.2743,-13.6774601 -49.83134,-25.382228 -52.50343,2.915017 -1.54726,16.385347 12.57577,28.355139 8.67942,49.05977 -3.77015,20.033993 2.27828,41.337292 14.94587,59.302572 16.42324,23.29157 58.07764,29.27447 83.37876,8.19179 31.6935,-24.38283 35.49394,-88.150299 15.58125,-113.941783 -1.0928,-32.741574 -34.1773,-15.3726853 -70.08187,-5.527366 z m 21.19238,32.626623 c 24.00004,12.196494 19.87525,-26.736915 29.74654,-7.801307 27.43593,110.731783 -92.17164,101.953733 -67.98838,16.383151 5.59367,-16.671257 14.24181,-20.778337 38.24184,-8.581844 z"
       sodipodi:nodetypes="csssccczccz" />
  </g>
</svg>
