<svg>
  <g>
    <path
       style="fill:#512dab;fill-rule:evenodd;stroke-width:0.411002;paint-order:stroke fill markers"
       d="M 93.484481,2.1478836 C 50.49918,1.8834779 10.541941,36.873109 4.9393129,79.498778 -0.25073565,111.46694 13.786376,145.77361 40.6024,164.19769 c 5.26634,-6.16892 6.683151,-17.72545 12.448797,-24.89148 6.317088,-10.88898 17.458161,-18.26104 29.595134,-21.01368 l -4.928227,11.63624 12.080283,-4.53496 c 3.54211,14.76261 4.148804,32.04893 6.017392,45.79945 2.696103,-10.82309 4.038566,-46.46826 4.038566,-46.46826 l 11.625265,5.88764 -3.66149,-11.45898 c 0.13368,-0.37703 4.50328,1.10262 6.57735,2.36506 16.5944,7.95427 28.75755,24.539 30.81925,42.79711 7.3149,2.64264 8.86115,13.08811 15.17859,17.75829 5.60467,6.09179 15.07892,10.63506 22.67296,5.20248 7.97154,-5.0072 13.67253,-15.79033 10.38369,-25.06213 -5.45115,-9.87838 -16.07198,-15.39044 -25.7168,-20.43042 11.75998,-17.22368 16.34003,-38.55629 14.19785,-59.17603 C 179.55048,52.961931 161.23056,25.252246 134.46579,12.063842 121.84361,5.5904668 107.67887,2.1023753 93.484481,2.1478836 Z M 94.157446,14.41671 c 39.385104,-1.003924 76.041504,33.599322 76.108624,73.245036 0.4692,19.259944 -6.17994,38.530524 -18.11449,53.616334 -7.42152,-15.61853 -21.30129,-28.21191 -37.85539,-33.4316 23.04227,-14.371313 24.86716,-51.748273 3.58818,-68.526896 C 102.14282,25.925708 75.620889,29.280837 64.156585,46.66064 50.558908,65.075995 54.395571,94.747212 73.989492,107.46862 41.996876,117.80903 34.772456,141.72921 34.772456,141.72921 9.2178609,110.22863 12.945554,59.5509 43.584676,33.107612 57.398995,20.958455 75.810681,14.381212 94.157446,14.41671 Z m 1.02595,31.42371 C 114.25672,45.748691 127.03302,70.019522 116.79175,85.934755 108.92168,99.924525 87.134636,103.6272 76.169007,91.223734 64.277599,79.297142 66.959761,56.318816 82.558665,48.861853 86.422414,46.814872 90.807209,45.734809 95.183396,45.84042 Z m 66.346174,104.67842 c 7.7419,4.98142 19.25937,8.01736 21.7738,18 1.23903,12.54439 -13.67796,11.5439 -18.37496,2.65701 -4.1238,-6.77431 -15.1419,-15.41244 -3.39884,-20.65701 z" />
  </g>
</svg>
