<?xml version="1.0" encoding="UTF-8" standalone="no"?>
<svg
   width="1024"
   height="1024"
   viewBox="0 0 1024 1024"
   version="1.1"
   id="svg5"
   sodipodi:docname="fa_logo.svg"
   inkscape:version="1.1.2 (0a00cf5339, 2022-02-04)"
   xmlns:inkscape="http://www.inkscape.org/namespaces/inkscape"
   xmlns:sodipodi="http://sodipodi.sourceforge.net/DTD/sodipodi-0.dtd"
   xmlns="http://www.w3.org/2000/svg"
   xmlns:svg="http://www.w3.org/2000/svg">
  <defs
     id="defs9" />
  <sodipodi:namedview
     id="namedview7"
     pagecolor="#ffffff"
     bordercolor="#666666"
     borderopacity="1.0"
     inkscape:pageshadow="2"
     inkscape:pageopacity="0.0"
     inkscape:pagecheckerboard="0"
     showgrid="false"
     inkscape:snap-global="true"
     inkscape:zoom="0.58004853"
     inkscape:cx="364.62466"
     inkscape:cy="624.08571"
     inkscape:window-width="1920"
     inkscape:window-height="1022"
     inkscape:window-x="0"
     inkscape:window-y="0"
     inkscape:window-maximized="1"
     inkscape:current-layer="layer2" />
  <g
     inkscape:groupmode="layer"
     id="layer1"
     inkscape:label="Layer 1"
     style="display:inline">
    <rect
       style="fill:#512da8;stroke:#512da8;stroke-width:3.085;stroke-linejoin:round;paint-order:stroke fill markers"
       id="rect1378"
       width="0"
       height="0"
       x="90.259766"
       y="83.817032" />
    <rect
       style="fill:#512da8;stroke:#512da8;stroke-width:3.02144;stroke-linejoin:round;paint-order:stroke fill markers"
       id="rect2815"
       width="1020.9785"
       height="1020.9786"
       x="1.5107422"
       y="1.5107117"
       ry="117.2885" />
  </g>
  <g
     inkscape:groupmode="layer"
     id="layer2"
     inkscape:label="Layer 2"
     style="display:inline">
    <path
       style="fill:#ffffff;fill-opacity:1;stroke-width:2.06381"
       d="m 672.21688,188.15553 c -12.11167,0.2463 -24.22448,1.26563 -36.14927,3.4378 -3.03535,0.55291 -6.39489,1.24221 -9.52827,1.9826 -8.5498,1.99346 -17.16,4.67901 -25.18694,7.88224 -3.10197,1.24355 -5.90145,2.44394 -8.93909,3.87431 -14.18964,6.59671 -27.30247,15.72528 -39.15079,25.68419 -13.74405,11.63045 -26.50838,24.43372 -38.04336,38.2596 -5.53857,6.68914 -10.89579,13.81021 -15.73688,20.8509 -7.64337,11.11531 -14.65131,23.06148 -20.6006,35.33074 -10.07572,20.22235 -20.48857,40.27851 -30.39555,60.58483 -4.74408,8.59545 -13.53582,15.36534 -23.5222,16.09442 -7.31762,0.0293 -14.8346,-0.0811 -22.03139,0.14735 -10.14838,0.31707 -20.54808,1.05872 -30.70746,2.73769 -5.56091,0.90509 -11.08724,2.02401 -16.56386,3.34561 -1.80707,0.4611 -4.0092,1.08331 -5.927,1.74869 -4.92108,1.61479 -9.50165,4.1249 -13.62591,7.2452 -0.73717,0.5575 -1.95278,1.412 -2.85417,2.1248 -10.45926,7.98256 -19.80395,17.81169 -25.75881,29.63996 -6.68267,13.85214 -6.75024,30.9783 0.72417,44.53513 3.53347,6.40862 10.33268,11.25001 17.80044,11.28667 13.07064,0.65443 25.86046,-4.39048 36.31043,-11.98361 4.12577,-2.90862 7.90459,-6.29752 11.24718,-10.07566 4.98892,-4.71614 12.85467,-5.66383 19.01436,-2.81285 7.4087,2.48774 14.06765,7.76881 17.2353,15.02876 1.97816,4.31634 2.56387,9.14013 2.34139,13.84243 0.57624,4.59949 0.88437,9.34228 -0.36686,13.86157 -4.82375,29.76156 -15.98198,57.93583 -26.18198,86.15149 -6.76857,17.01533 -13.16882,34.41808 -23.41893,49.72251 -11.05349,14.31293 -25.9556,25.06267 -40.66859,35.1916 -12.68254,8.98276 -26.40875,16.3527 -39.26217,25.07319 -11.73216,8.11073 -22.5601,18.15239 -29.33727,30.86083 -4.61367,8.45161 -6.676,18.16389 -6.32822,27.76066 0.41352,9.11633 1.4541,18.2415 3.57704,27.12652 0.62523,2.7313 1.45007,5.45289 3.13654,7.73631 4.35784,6.40341 10.80474,10.99492 17.26885,15.07696 11.38541,7.27844 25.48032,9.6148 38.7526,7.70699 13.39945,-2.1528 26.80804,-3.98611 40.15798,-6.29363 8.68402,-1.57855 17.29423,-4.07106 25.00276,-8.46081 13.98687,-7.56497 26.041,-18.2679 36.43591,-30.21847 6.87829,-7.834 13.2595,-16.34859 19.00757,-24.89107 11.14849,-16.43946 20.58508,-34.31356 28.49134,-52.64123 3.99313,-9.2911 7.59011,-18.58177 10.93819,-28.28608 1.02699,-2.89473 1.97589,-5.8248 2.97982,-8.83718 4.89175,-14.88732 8.77931,-30.07273 12.75256,-45.22311 6.89468,-26.57498 13.51591,-53.35559 21.31448,-79.7353 1.34868,-4.69493 2.66946,-9.58464 5.84862,-13.4256 7.03552,-9.25286 19.7933,-13.83735 31.05813,-10.70718 8.48483,1.97368 15.32678,8.04521 20.4755,14.82502 4.59634,5.61642 8.99477,11.70799 10.76008,18.86775 3.32946,11.58139 2.07467,23.75228 1.365,35.59371 -0.39577,6.24685 -0.66056,12.51255 -0.40118,18.77102 0.0648,1.23558 0.15231,2.97422 0.28883,4.40017 0.62812,7.537 2.58905,14.872 4.21098,22.23607 1.31851,5.5917 2.82187,11.15493 4.91318,16.51302 0.35157,0.91454 0.94456,2.31599 1.42031,3.40841 2.3817,5.75343 6.31678,10.84573 11.39332,14.46974 4.87031,3.61306 10.63087,5.82462 16.51927,7.11859 6.36105,1.81235 12.85481,3.41418 19.49358,4.44014 8.89008,1.42996 18.23482,1.32243 27.16293,-0.58762 21.99123,-4.30045 41.37639,-18.86781 52.82956,-37.96809 3.7114,-6.19125 6.43784,-12.98863 7.84497,-20.07625 0.16366,-0.84311 0.43823,-2.22896 0.59644,-3.29791 0.21765,-1.3815 0.39877,-2.76931 0.54063,-4.30786 0.41273,-4.45047 0.40043,-8.93763 -0.0103,-13.38773 -0.0545,-0.58474 -0.18575,-1.83328 -0.29812,-2.66081 -1.01131,-7.98248 -3.4406,-15.7383 -6.85174,-23.01236 -8.4717,-20.07272 -13.35767,-41.61166 -14.67727,-63.34815 -1.84687,-28.25091 0.5255,-56.67227 5.82434,-84.44966 1.87603,-10.13698 4.27274,-20.16727 6.74694,-30.17103 1.37534,-6.71552 0.54373,-14.00424 -3.11143,-19.89127 -2.9774,-5.06676 -7.88744,-9.45922 -13.91416,-10.15912 -7.34581,-1.35196 -15.12269,-2.84121 -22.41594,-0.42403 -8.48293,3.0665 -15.64392,8.98545 -21.57677,15.66353 -11.92035,13.48686 -19.69839,29.87947 -28.86407,45.21643 -9.07774,15.40817 -18.60279,30.7326 -30.71902,43.97066 -5.55211,5.66952 -13.27672,9.90758 -21.41342,9.26997 -8.58038,-0.61869 -16.57487,-4.85494 -22.9023,-10.52407 -7.28808,-6.67034 -12.15534,-16.36686 -11.75085,-26.37655 0.16284,-8.94347 3.51457,-17.3661 5.60715,-25.95585 7.29572,-26.35741 15.03432,-52.77279 26.84389,-77.52289 7.47445,-14.86944 20.86116,-27.0822 37.01485,-31.66783 12.29337,-3.55205 25.58063,-3.03917 37.74872,0.77645 5.80411,1.80866 11.60063,3.68983 17.59527,4.7767 15.35641,3.07369 31.34758,3.0558 46.66864,-0.22898 1.80712,-0.39275 4.02689,-0.91689 5.97111,-1.46087 16.18475,-4.40084 31.35806,-12.6495 43.69233,-24.0318 5.6376,-5.35518 10.80858,-11.54937 13.34034,-19.01288 2.50725,-7.03201 3.88876,-14.39517 5.47105,-21.67308 3.20409,-18.91654 -5.23109,-39.33813 -20.93214,-50.38863 -7.62238,-5.25253 -16.64083,-7.94609 -25.58991,-9.92407 -1.58204,-0.3532 -3.59913,-0.75936 -5.21769,-1.05785 -11.48378,-2.06534 -23.02945,-3.94855 -34.69022,-4.63906 -0.94258,-0.0423 -2.45596,-0.12795 -3.61737,-0.18698 -2.81993,-0.14104 -6.07644,-0.22237 -9.10333,-0.2576 -1.79696,-0.0303 -3.59448,-0.002 -5.39159,-0.007 z"
       id="path3" />
  </g>
</svg>
