<?xml version="1.0" encoding="UTF-8" standalone="no"?>
<svg
   width="108"
   height="108"
   viewBox="0 0 108 108"
   version="1.1"
   id="svg5"
   sodipodi:docname="fa_logo_adaptive.svg"
   inkscape:export-filename="/home/dpk/Documents/project/connect/assets/images/ic_monochrome.png"
   inkscape:export-xdpi="96"
   inkscape:export-ydpi="96"
   inkscape:version="1.1.2 (0a00cf5339, 2022-02-04)"
   xmlns:inkscape="http://www.inkscape.org/namespaces/inkscape"
   xmlns:sodipodi="http://sodipodi.sourceforge.net/DTD/sodipodi-0.dtd"
   xmlns="http://www.w3.org/2000/svg"
   xmlns:svg="http://www.w3.org/2000/svg">
  <defs
     id="defs9" />
  <sodipodi:namedview
     id="namedview7"
     pagecolor="#ffffff"
     bordercolor="#666666"
     borderopacity="1.0"
     inkscape:pageshadow="2"
     inkscape:pageopacity="0.0"
     inkscape:pagecheckerboard="0"
     showgrid="false"
     inkscape:snap-global="true"
     inkscape:zoom="3.28125"
     inkscape:cx="56.838095"
     inkscape:cy="71.009524"
     inkscape:window-width="1920"
     inkscape:window-height="1022"
     inkscape:window-x="0"
     inkscape:window-y="0"
     inkscape:window-maximized="1"
     inkscape:current-layer="layer2" />
  <g
     inkscape:groupmode="layer"
     id="layer1"
     inkscape:label="Layer 1"
     style="display:inline"
     transform="translate(-451.58557,-439.87521)">
    <rect
       style="fill:#512da8;stroke:#512da8;stroke-width:3.085;stroke-linejoin:round;paint-order:stroke fill markers"
       id="rect1378"
       width="0"
       height="0"
       x="90.259766"
       y="83.817032" />
    <rect
       style="fill:#512dab;fill-rule:evenodd;stroke-width:0.217028;paint-order:stroke fill markers"
       id="rect953"
       width="108"
       height="108"
       x="451.58557"
       y="439.87521"
       rx="0"
       inkscape:export-filename="/home/dpk/Documents/project/connect/assets/images/ic_background.png"
       inkscape:export-xdpi="96"
       inkscape:export-ydpi="96" />
  </g>
  <g
     inkscape:groupmode="layer"
     id="layer2"
     inkscape:label="Layer 2"
     style="display:inline"
     transform="translate(-451.58557,-439.87521)">
    <path
       style="fill:#ffffff;fill-opacity:1;stroke-width:0.152946"
       d="m 517.45886,469.87568 c -0.89757,0.0183 -1.79523,0.0938 -2.67896,0.25478 -0.22494,0.041 -0.47391,0.092 -0.70612,0.14693 -0.63361,0.14772 -1.2717,0.34674 -1.86656,0.58413 -0.22988,0.0922 -0.43734,0.18112 -0.66246,0.28712 -1.05157,0.48887 -2.02334,1.16537 -2.90139,1.90341 -1.01855,0.86191 -1.96449,1.81074 -2.81933,2.83535 -0.41045,0.49572 -0.80747,1.02345 -1.16624,1.54522 -0.56643,0.82374 -1.08578,1.70905 -1.52667,2.6183 -0.74669,1.49865 -1.51837,2.98497 -2.25256,4.48983 -0.35157,0.637 -1.00311,1.13871 -1.74319,1.19273 -0.54229,0.002 -1.09936,-0.006 -1.6327,0.0109 -0.75208,0.0235 -1.52278,0.0785 -2.27568,0.20288 -0.41211,0.0671 -0.82165,0.15 -1.22752,0.24794 -0.13392,0.0342 -0.29711,0.0803 -0.43924,0.12959 -0.36468,0.11967 -0.70415,0.30569 -1.00979,0.53693 -0.0547,0.0413 -0.14472,0.10464 -0.21152,0.15747 -0.77511,0.59157 -1.46763,1.31999 -1.90893,2.19656 -0.49525,1.02656 -0.50025,2.29575 0.0537,3.30042 0.26186,0.47493 0.76574,0.83372 1.31916,0.83644 0.96864,0.0485 1.91648,-0.32537 2.69091,-0.88809 0.30575,-0.21555 0.58579,-0.46669 0.8335,-0.74669 0.36972,-0.3495 0.95264,-0.41973 1.40912,-0.20845 0.54905,0.18436 1.04253,0.57573 1.27728,1.11375 0.1466,0.31988 0.19,0.67736 0.17352,1.02584 0.0427,0.34086 0.0655,0.69234 -0.0272,1.02726 -0.35748,2.20558 -1.1844,4.29352 -1.94031,6.38453 -0.5016,1.26098 -0.97591,2.55066 -1.73553,3.68485 -0.81915,1.0607 -1.92352,1.85735 -3.01388,2.60799 -0.93987,0.66569 -1.9571,1.21186 -2.90965,1.85812 -0.86944,0.60108 -1.67189,1.34525 -2.17413,2.28705 -0.34191,0.62633 -0.49475,1.34609 -0.46897,2.05729 0.0307,0.6756 0.10776,1.35184 0.26508,2.0103 0.0463,0.20241 0.10746,0.4041 0.23245,0.57332 0.32295,0.47455 0.80072,0.81482 1.27977,1.11733 0.84374,0.53939 1.88829,0.71254 2.87188,0.57115 0.993,-0.15954 1.98669,-0.2954 2.97604,-0.46641 0.64355,-0.11699 1.28164,-0.3017 1.85291,-0.62701 1.03654,-0.56063 1.92985,-1.35381 2.7002,-2.23944 0.50973,-0.58057 0.98263,-1.21157 1.40861,-1.84463 0.8262,-1.21831 1.52553,-2.54292 2.11144,-3.90115 0.29593,-0.68855 0.5625,-1.37707 0.81062,-2.09624 0.0761,-0.21452 0.14643,-0.43166 0.22083,-0.6549 0.36252,-1.10327 0.65061,-2.22864 0.94507,-3.35141 0.51095,-1.96942 1.00163,-3.95409 1.57957,-5.90904 0.0999,-0.34793 0.19783,-0.7103 0.43344,-0.99495 0.52138,-0.68571 1.46684,-1.02546 2.30166,-0.79349 0.62879,0.14627 1.13584,0.59622 1.5174,1.09866 0.34063,0.41622 0.66659,0.86766 0.79741,1.39826 0.24674,0.85827 0.15375,1.76023 0.10116,2.63778 -0.0293,0.46294 -0.0489,0.92729 -0.0297,1.39109 0.005,0.0916 0.0113,0.22041 0.0214,0.32608 0.0465,0.55856 0.19186,1.10215 0.31206,1.64788 0.0977,0.4144 0.20912,0.82668 0.36411,1.22375 0.0261,0.0678 0.07,0.17164 0.10525,0.2526 0.17651,0.42637 0.46813,0.80375 0.84435,1.07232 0.36092,0.26776 0.78783,0.43165 1.22421,0.52755 0.4714,0.13431 0.95264,0.25302 1.44463,0.32905 0.65883,0.10597 1.35135,0.098 2.013,-0.0435 1.62973,-0.3187 3.06633,-1.39827 3.9151,-2.81376 0.27505,-0.45882 0.4771,-0.96256 0.58138,-1.48781 0.0121,-0.0625 0.0325,-0.16518 0.0442,-0.2444 0.0161,-0.10238 0.0295,-0.20523 0.0401,-0.31925 0.0306,-0.32982 0.0297,-0.66235 -6.7e-4,-0.99214 -0.004,-0.0433 -0.0138,-0.13586 -0.0221,-0.19718 -0.0749,-0.59157 -0.25498,-1.16634 -0.50777,-1.70542 -0.62782,-1.48755 -0.98991,-3.08376 -1.0877,-4.69461 -0.13687,-2.09363 0.0389,-4.19988 0.43162,-6.25841 0.13904,-0.75124 0.31665,-1.49457 0.50001,-2.23593 0.10192,-0.49767 0.0403,-1.03783 -0.23059,-1.4741 -0.22064,-0.37549 -0.58452,-0.70101 -1.03115,-0.75288 -0.54438,-0.10019 -1.12071,-0.21056 -1.6612,-0.0314 -0.62865,0.22726 -1.15934,0.6659 -1.59902,1.1608 -0.88339,0.99949 -1.45981,2.21432 -2.13906,3.35091 -0.67274,1.14187 -1.37863,2.27754 -2.27653,3.25859 -0.41147,0.42016 -0.98392,0.73423 -1.58692,0.68698 -0.63587,-0.0459 -1.22833,-0.35979 -1.69725,-0.77992 -0.5401,-0.49433 -0.90081,-1.21292 -0.87083,-1.95472 0.0121,-0.66279 0.26046,-1.28697 0.41554,-1.92354 0.54067,-1.9533 1.11416,-3.9109 1.98935,-5.74509 0.55392,-1.10194 1.54598,-2.00701 2.74311,-2.34685 0.91103,-0.26323 1.89573,-0.22522 2.79748,0.0575 0.43014,0.13404 0.85971,0.27345 1.30396,0.35399 1.13804,0.22779 2.32311,0.22646 3.45853,-0.017 0.13392,-0.0291 0.29843,-0.0679 0.44251,-0.10826 1.19942,-0.32614 2.32389,-0.93743 3.23796,-1.78096 0.41779,-0.39686 0.801,-0.8559 0.98863,-1.40901 0.18581,-0.52112 0.28819,-1.0668 0.40545,-1.60615 0.23744,-1.40187 -0.38767,-2.91528 -1.55125,-3.73421 -0.56488,-0.38926 -1.23322,-0.58887 -1.89642,-0.73546 -0.11724,-0.0262 -0.26672,-0.0563 -0.38667,-0.0784 -0.85104,-0.15306 -1.70668,-0.29262 -2.57083,-0.3438 -0.0699,-0.003 -0.18201,-0.009 -0.26808,-0.0139 -0.20898,-0.0105 -0.45031,-0.0165 -0.67463,-0.0191 -0.13317,-0.002 -0.26638,-2e-4 -0.39956,-4.9e-4 z"
       id="path3"
       inkscape:export-filename="/home/dpk/Documents/project/connect/assets/images/fa_logo.png"
       inkscape:export-xdpi="96"
       inkscape:export-ydpi="96" />
  </g>
</svg>
