<?xml version="1.0" encoding="UTF-8" standalone="no"?>
<svg
   width="1024"
   height="1024"
   viewBox="0 0 1024 1024"
   version="1.1"
   id="svg5"
   sodipodi:docname="fa_logo_adaptive.svg"
   inkscape:export-filename="/home/dpk/Documents/project/connect/assets/images/fa_logo_circular.png"
   inkscape:export-xdpi="96"
   inkscape:export-ydpi="96"
   inkscape:version="1.1.2 (0a00cf5339, 2022-02-04)"
   xmlns:inkscape="http://www.inkscape.org/namespaces/inkscape"
   xmlns:sodipodi="http://sodipodi.sourceforge.net/DTD/sodipodi-0.dtd"
   xmlns="http://www.w3.org/2000/svg"
   xmlns:svg="http://www.w3.org/2000/svg">
  <defs
     id="defs9" />
  <sodipodi:namedview
     id="namedview7"
     pagecolor="#ffffff"
     bordercolor="#666666"
     borderopacity="1.0"
     inkscape:pageshadow="2"
     inkscape:pageopacity="0.0"
     inkscape:pagecheckerboard="0"
     showgrid="false"
     inkscape:snap-global="true"
     inkscape:zoom="0.58004853"
     inkscape:cx="97.405643"
     inkscape:cy="624.08571"
     inkscape:window-width="1920"
     inkscape:window-height="1022"
     inkscape:window-x="0"
     inkscape:window-y="0"
     inkscape:window-maximized="1"
     inkscape:current-layer="layer2" />
  <g
     inkscape:groupmode="layer"
     id="layer1"
     inkscape:label="Layer 1"
     style="display:inline">
    <rect
       style="fill:#512da8;stroke:#512da8;stroke-width:3.085;stroke-linejoin:round;paint-order:stroke fill markers"
       id="rect1378"
       width="0"
       height="0"
       x="90.259766"
       y="83.817032" />
  </g>
  <g
     inkscape:groupmode="layer"
     id="layer2"
     inkscape:label="Layer 2"
     style="display:inline">
    <circle
       style="fill:#512da8;fill-opacity:1;stroke-width:1.54553"
       id="path3832"
       cx="512"
       cy="512"
       r="383.42191"
       inkscape:export-filename="/home/dpk/Documents/project/connect/assets/images/fa_logo_circular_monochrome.png"
       inkscape:export-xdpi="96"
       inkscape:export-ydpi="96" />
    <path
       style="fill:#ffffff;fill-opacity:1;stroke-width:1.54553"
       d="m 631.98176,269.48231 c -9.07008,0.18444 -18.14101,0.94779 -27.07114,2.57446 -2.27308,0.41406 -4.78895,0.93026 -7.13544,1.48472 -6.4027,1.49284 -12.85063,3.50397 -18.86177,5.90278 -2.32297,0.93125 -4.41942,1.83019 -6.69422,2.90135 -10.62621,4.94009 -20.44603,11.77621 -29.31889,19.23415 -10.29252,8.7097 -19.85135,18.2977 -28.48956,28.6515 -4.14768,5.0093 -8.15954,10.34206 -11.7849,15.61463 -5.72389,8.32393 -10.97194,17.27007 -15.42719,26.45816 -7.54541,15.14393 -15.34329,30.1634 -22.76234,45.37022 -3.5527,6.43688 -10.13658,11.50665 -17.61509,12.05264 -5.47995,0.0219 -11.1092,-0.0607 -16.49866,0.11034 -7.59983,0.23745 -15.38786,0.79285 -22.99593,2.05018 -4.1644,0.6778 -8.30291,1.51572 -12.40419,2.50543 -1.35326,0.3453 -3.00237,0.81126 -4.43856,1.30954 -3.68525,1.20927 -7.11551,3.08902 -10.20404,5.42572 -0.55205,0.4175 -1.46238,1.05741 -2.13741,1.5912 -7.83263,5.97791 -14.8306,13.33866 -19.29002,22.19651 -5.00446,10.37346 -5.05506,23.19874 0.54231,33.35106 2.64611,4.79923 7.73784,8.4248 13.33023,8.45226 9.78822,0.49008 19.36614,-3.28791 27.19182,-8.97418 3.08967,-2.17818 5.91952,-4.71603 8.42269,-7.54537 3.73605,-3.53178 9.62649,-4.24148 14.2393,-2.10646 5.54816,1.863 10.53485,5.81784 12.90701,11.2546 1.48139,3.23238 1.92001,6.84478 1.7534,10.36619 0.43153,3.44443 0.66228,6.99617 -0.27473,10.38053 -3.61237,22.28757 -11.96844,43.38646 -19.60692,64.51634 -5.06879,12.74229 -9.86175,25.7747 -17.53776,37.23574 -8.27763,10.71854 -19.43739,18.76871 -30.45552,26.35397 -9.49758,6.72692 -19.77674,12.24606 -29.4023,18.77658 -8.78587,6.07389 -16.8946,13.5938 -21.96982,23.11078 -3.45505,6.32916 -4.99946,13.6024 -4.73902,20.78915 0.30967,6.82695 1.08893,13.66052 2.67874,20.31426 0.46822,2.04539 1.08591,4.08351 2.34886,5.79349 3.26346,4.79533 8.09136,8.23378 12.93214,11.2907 8.5262,5.45061 19.08147,7.20024 29.0207,5.77154 10.03445,-1.61217 20.07576,-2.98508 30.07314,-4.71312 6.50321,-1.18213 12.95114,-3.04869 18.72384,-6.33605 10.47436,-5.66519 19.50134,-13.6803 27.28579,-22.62973 5.15095,-5.86666 9.92965,-12.24298 14.23421,-18.6402 8.34878,-12.31103 15.41557,-25.69643 21.33634,-39.42148 2.99034,-6.95784 5.68401,-13.91535 8.19129,-21.18263 0.76908,-2.16777 1.47969,-4.36202 2.2315,-6.6179 3.66329,-11.14868 6.57457,-22.52059 9.55002,-33.86627 5.16323,-19.90123 10.12167,-39.95645 15.9618,-59.71145 1.00998,-3.51589 1.99908,-7.17765 4.37986,-10.05404 5.26869,-6.9292 14.82262,-10.36239 23.25853,-8.01829 6.35404,1.47803 11.47777,6.02482 15.3335,11.10202 3.44207,4.20598 6.73592,8.76778 8.05791,14.12951 2.49334,8.67297 1.55366,17.78739 1.02221,26.65509 -0.29638,4.67809 -0.49467,9.37029 -0.30043,14.05707 0.0485,0.92529 0.11406,2.22731 0.2163,3.29516 0.47038,5.64424 1.93886,11.13721 3.15348,16.65195 0.98739,4.18746 2.11321,8.3536 3.67933,12.36612 0.26328,0.68487 0.70736,1.73438 1.06363,2.55246 1.78359,4.30857 4.73045,8.12205 8.53213,10.83596 3.64723,2.70572 7.96115,4.36189 12.3708,5.33091 4.7636,1.35722 9.62659,2.55678 14.59817,3.32509 6.65752,1.07086 13.65553,0.99033 20.34153,-0.44005 16.46859,-3.22048 30.98557,-14.12955 39.56252,-28.4332 2.77936,-4.63644 4.82111,-9.7268 5.87487,-15.03452 0.12256,-0.63138 0.32818,-1.6692 0.44665,-2.46971 0.163,-1.03456 0.29863,-2.07385 0.40487,-3.22603 0.30908,-3.33282 0.29987,-6.69313 -0.008,-10.02568 -0.0408,-0.43789 -0.1391,-1.37289 -0.22325,-1.9926 -0.75734,-5.97785 -2.57657,-11.78595 -5.13107,-17.23329 -6.34421,-15.03187 -10.00317,-31.16176 -10.99138,-47.43958 -1.38307,-21.15629 0.39353,-42.44021 4.36168,-63.24189 1.4049,-7.59129 3.19973,-15.10268 5.05259,-22.59421 1.02995,-5.02906 0.40718,-10.48737 -2.33006,-14.89599 -2.22969,-3.79435 -5.90668,-7.08374 -10.41991,-7.60787 -5.50107,-1.01244 -11.32494,-2.1277 -16.78665,-0.31754 -6.35262,2.29641 -11.71527,6.72894 -16.15821,11.72996 -8.9268,10.09991 -14.75155,22.37586 -21.61546,33.86126 -6.79806,11.53873 -13.93109,23.01475 -23.00458,32.92835 -4.15782,4.24574 -9.94255,7.4195 -16.03589,6.94201 -6.4256,-0.46332 -12.41244,-3.63572 -17.15086,-7.88117 -5.45784,-4.99522 -9.10278,-12.25666 -8.79987,-19.75263 0.12194,-6.6975 2.63195,-13.00496 4.19903,-19.43758 5.46355,-19.73829 11.25876,-39.52 20.1026,-58.05463 5.5974,-11.13529 15.62232,-20.28107 27.71935,-23.71512 9.20614,-2.66003 19.15659,-2.27594 28.26892,0.58146 4.34652,1.35446 8.68737,2.76321 13.17658,3.57713 11.49997,2.3018 23.47529,2.2884 34.94879,-0.17147 1.3533,-0.29412 3.01562,-0.68663 4.47159,-1.09401 12.12028,-3.29566 23.48313,-9.47284 32.71991,-17.99671 4.22183,-4.01034 8.09423,-8.64899 9.99019,-14.23819 1.87761,-5.26607 2.91218,-10.78013 4.09711,-16.23034 2.39945,-14.16605 -3.91741,-29.45918 -15.67547,-37.73458 -5.70818,-3.93347 -12.46183,-5.95059 -19.16354,-7.43185 -1.18474,-0.2645 -2.69528,-0.56866 -3.90737,-0.79219 -8.59987,-1.54667 -17.24609,-2.95695 -25.9785,-3.47406 -0.70587,-0.0317 -1.83919,-0.0958 -2.70894,-0.14002 -2.11176,-0.10562 -4.55047,-0.16653 -6.81722,-0.19291 -1.34569,-0.0227 -2.6918,-0.002 -4.0376,-0.005 z"
       id="path3"
       inkscape:export-filename="/home/dpk/Documents/project/connect/assets/images/fa_logo.png"
       inkscape:export-xdpi="96"
       inkscape:export-ydpi="96" />
  </g>
</svg>
