<?xml version="1.0" encoding="UTF-8" standalone="no"?>
<!-- Created with Inkscape (http://www.inkscape.org/) -->

<svg
   width="512"
   height="512"
   viewBox="0 0 512 512"
   version="1.1"
   id="svg5"
   inkscape:version="1.1.2 (0a00cf5339, 2022-02-04)"
   sodipodi:docname="final_logo.svg"
   inkscape:export-filename="/home/dpk/Documents/project/connect/assets/images/fa-logo.png"
   inkscape:export-xdpi="96"
   inkscape:export-ydpi="96"
   xmlns:inkscape="http://www.inkscape.org/namespaces/inkscape"
   xmlns:sodipodi="http://sodipodi.sourceforge.net/DTD/sodipodi-0.dtd"
   xmlns="http://www.w3.org/2000/svg"
   xmlns:svg="http://www.w3.org/2000/svg">
  <sodipodi:namedview
     id="namedview7"
     pagecolor="#ffffff"
     bordercolor="#666666"
     borderopacity="1.0"
     inkscape:pageshadow="2"
     inkscape:pageopacity="0.0"
     inkscape:pagecheckerboard="0"
     inkscape:document-units="px"
     showgrid="false"
     inkscape:zoom="1"
     inkscape:cx="-28.5"
     inkscape:cy="334"
     inkscape:window-width="1920"
     inkscape:window-height="1022"
     inkscape:window-x="0"
     inkscape:window-y="0"
     inkscape:window-maximized="1"
     inkscape:current-layer="layer1" />
  <defs
     id="defs2">
    <rect
       x="138.57495"
       y="109.9162"
       width="316.9978"
       height="267.06445"
       id="rect126718" />
  </defs>
  <g
     inkscape:groupmode="layer"
     id="layer2"
     inkscape:label="Background-7b1fa2"
     style="display:none">
    <path
       id="rect880"
       style="display:inline;fill:#512da8;fill-opacity:1;stroke:#7b1fa2;stroke-width:1.51169;stroke-linejoin:round;stroke-opacity:1;paint-order:stroke fill markers"
       d="m 440.53338,8.1127446 c -124.01857,0.0022 -248.03733,-0.007 -372.055792,0.0183 -3.69578,0.05144 -7.55172,0.496508 -11.06921,1.196544 -3.40082,0.6742934 -6.95304,1.7263734 -10.05664,2.8984374 -5.69965,2.179808 -11.06812,5.213215 -15.89062,8.951172 -0.39248,0.319087 -1.07244,0.841573 -1.56128,1.258173 -4.51411,3.72693 -8.49421,8.09927 -11.77857,12.94495 -0.30656,0.47844 -0.81789,1.22075 -1.18836,1.81441 -2.12011,3.31904 -3.95326,7.00962 -5.34484,10.58208 -3.0417297,7.75805 -4.4170397,16.12378 -4.2565897,24.4453 0.0111,123.437729 -0.002,246.875579 0.0201,370.313259 0.0217,1.7484 0.12391,3.38686 0.28731,5.16722 1.43057,14.70383 8.2665897,28.83261 19.0253497,38.97478 9.13893,8.72084 20.9742,14.59908 33.48129,16.45376 4.89242,0.81451 9.86309,0.7872 14.80664,0.75594 122.824842,-0.0269 245.649802,0.003 368.474572,-0.0266 12.19886,-0.19794 24.32563,-4.05537 34.35082,-11.01918 0.55476,-0.39261 1.37094,-0.96982 2.01037,-1.45291 4.43913,-3.34495 8.43323,-7.27922 11.8412,-11.67013 0.31359,-0.40753 0.84009,-1.09794 1.21626,-1.62773 2.87621,-3.98337 5.29909,-8.29859 7.16069,-12.84688 0.34345,-0.85229 0.77718,-1.9617 1.11253,-2.93053 0.41579,-1.19645 0.80297,-2.40123 1.12283,-3.53289 1.8223,-6.30359 2.57475,-12.88825 2.41992,-19.44166 0.0159,-123.26158 0.006,-246.5232 -0.007,-369.784749 -0.1712,-14.64847 -5.70462,-29.17488 -15.39986,-40.16777 -9.04475,-10.353124 -21.58665,-17.621901 -35.1178,-20.1338434 -4.47725,-0.861769 -9.04593,-1.22293 -13.60332,-1.139453 z" />
  </g>
  <g
     inkscape:groupmode="layer"
     id="layer5"
     inkscape:label="Background-7b1fa3"
     style="display:inline">
    <circle
       style="fill:#512da8;fill-opacity:1;stroke:#512da8;stroke-width:3.00023;stroke-linejoin:round;stroke-opacity:1;paint-order:stroke fill markers"
       id="path3832"
       cx="256"
       cy="256"
       r="248.08453" />
  </g>
  <g
     inkscape:label="logo"
     inkscape:groupmode="layer"
     id="layer1"
     style="display:inline">
    <path
       id="text126716"
       style="font-style:normal;font-weight:normal;font-size:144px;line-height:1.25;font-family:sans-serif;white-space:pre;shape-inside:url(#rect126718);fill:#ffffff;fill-opacity:1;stroke:#7b1fa2;stroke-width:0;stroke-miterlimit:4;stroke-dasharray:none;stroke-opacity:1"
       d="m 333.63151,99.084337 c -5.86859,0.119343 -11.73773,0.613253 -17.51577,1.665753 -1.47075,0.26791 -3.09858,0.6019 -4.61683,0.96065 -4.14272,0.96591 -8.31471,2.26717 -12.20408,3.81926 -1.50303,0.60255 -2.85949,1.18419 -4.33135,1.87726 -6.87545,3.19637 -13.22914,7.61953 -18.97013,12.44502 -6.65954,5.63542 -12.84437,11.83912 -18.43353,18.53831 -2.68366,3.24116 -5.27945,6.6916 -7.62515,10.1031 -3.70352,5.38581 -7.09915,11.17421 -9.98182,17.11916 -4.88209,9.79854 -9.92753,19.51655 -14.72786,29.35578 -2.2987,4.16484 -6.55865,7.44512 -11.39745,7.79839 -3.54568,0.0142 -7.18796,-0.0393 -10.67509,0.0714 -4.9173,0.15363 -9.95637,0.51299 -14.879,1.32652 -2.69448,0.43855 -5.37221,0.98071 -8.02585,1.62108 -0.8756,0.22342 -1.94262,0.52491 -2.87187,0.84731 -2.38446,0.78243 -4.60393,1.99868 -6.6023,3.51059 -0.35719,0.27013 -0.9462,0.68417 -1.38296,1.02955 -5.06793,3.86787 -9.59581,8.63048 -12.48118,14.36175 -3.23802,6.71192 -3.27076,15.01023 0.35089,21.57906 1.71211,3.10523 5.0066,5.45108 8.62503,5.46884 6.33325,0.3171 12.53043,-2.12736 17.59386,-5.80654 1.9991,-1.40934 3.83009,-3.0514 5.44971,-4.88206 2.41733,-2.28516 6.2286,-2.74435 9.21322,-1.36294 3.58981,1.20541 6.81634,3.7643 8.35119,7.28204 0.9585,2.09144 1.2423,4.42876 1.1345,6.70721 0.27921,2.22864 0.42851,4.52671 -0.17776,6.71649 -2.3373,14.42067 -7.74391,28.07223 -12.68622,41.74385 -3.27964,8.24461 -6.38082,16.67694 -11.34741,24.09255 -5.35586,6.93519 -12.57653,12.14387 -19.70556,17.05174 -6.1452,4.35251 -12.7961,7.92354 -19.0241,12.14897 -5.6847,3.92997 -10.93127,8.79556 -14.21508,14.95331 -2.23551,4.09514 -3.23479,8.80113 -3.06628,13.45115 0.20037,4.41723 0.70457,8.83874 1.73322,13.14389 0.30295,1.32342 0.70262,2.64214 1.51978,3.74855 2.11155,3.10271 5.23533,5.32748 8.36745,7.30539 5.51669,3.5267 12.34624,4.65876 18.77719,3.73435 6.49257,-1.04312 12.98957,-1.93143 19.45815,-3.04952 4.20776,-0.76487 8.37975,-1.97259 12.11484,-4.0996 6.7772,-3.66553 12.61791,-8.85153 17.65466,-14.64206 3.33281,-3.79589 6.42476,-7.92155 9.20993,-12.06072 5.40189,-7.96558 9.9743,-16.6263 13.8052,-25.50679 1.93483,-4.50191 3.67771,-9.00361 5.29999,-13.70574 0.49762,-1.40261 0.9574,-2.82235 1.44384,-4.28197 2.37025,-7.2135 4.25393,-14.57144 6.17913,-21.91241 3.34075,-12.87664 6.549,-25.85292 10.32772,-38.63495 0.65349,-2.27488 1.29346,-4.64414 2.83389,-6.50524 3.40899,-4.48338 9.59065,-6.70475 15.04891,-5.18806 4.11124,0.95633 7.42644,3.89823 9.9212,7.18332 2.22711,2.72138 4.35833,5.67299 5.21369,9.14218 1.61326,5.61165 1.00526,11.50893 0.6614,17.24658 -0.19177,3.02685 -0.32007,6.06283 -0.19439,9.09531 0.0314,0.59869 0.0738,1.44113 0.13995,2.13206 0.30435,3.65198 1.2545,7.20608 2.04039,10.77427 0.63887,2.7094 1.36731,5.40501 2.38063,8.00122 0.17035,0.44313 0.45768,1.12219 0.6882,1.65151 1.15403,2.78777 3.06073,5.25519 5.52052,7.01117 2.35986,1.75067 5.15108,2.82226 8.00425,3.44924 3.08218,0.87816 6.22867,1.65431 9.44542,2.15143 4.3076,0.69287 8.8355,0.64077 13.16153,-0.28473 10.65563,-2.08374 20.04852,-9.14221 25.59804,-18.39706 1.79832,-2.99991 3.11939,-6.29351 3.8012,-9.72775 0.0793,-0.40852 0.21234,-1.08002 0.289,-1.59797 0.10546,-0.66939 0.19322,-1.34184 0.26196,-2.08733 0.19998,-2.15643 0.19402,-4.33064 -0.005,-6.48689 -0.0264,-0.28333 -0.09,-0.8883 -0.14445,-1.28927 -0.49002,-3.86783 -1.66711,-7.62584 -3.31994,-11.15041 -4.10488,-9.72604 -6.47233,-20.16252 -7.11173,-30.69472 -0.89488,-13.6887 0.25463,-27.45999 2.82213,-40.91925 0.90901,-4.91177 2.07031,-9.77185 3.26916,-14.61907 0.66641,-3.25394 0.26346,-6.78562 -1.50761,-9.63812 -1.44267,-2.45505 -3.82178,-4.58337 -6.74197,-4.9225 -3.55934,-0.65508 -7.32755,-1.37668 -10.86142,-0.20546 -4.11032,1.48584 -7.58011,4.35381 -10.45481,7.58961 -5.77589,6.53492 -9.54466,14.4778 -13.9858,21.90917 -4.39853,7.46588 -9.0138,14.89118 -14.8846,21.30555 -2.69022,2.74711 -6.4331,4.80062 -10.37566,4.49167 -4.15754,-0.29978 -8.03119,-2.35241 -11.09708,-5.09933 -3.53137,-3.23205 -5.88975,-7.9304 -5.69376,-12.7805 0.0789,-4.33347 1.70295,-8.41457 2.71689,-12.57665 3.53507,-12.77122 7.28473,-25.57053 13.00694,-37.56295 3.62167,-7.20484 10.10807,-13.12241 17.93518,-15.34433 5.95663,-1.72111 12.39484,-1.4726 18.29077,0.37622 2.81232,0.87637 5.62097,1.78787 8.52561,2.3145 7.4408,1.48933 15.18916,1.48066 22.61283,-0.11095 0.87562,-0.1903 1.95119,-0.44427 2.89324,-0.70785 7.84216,-2.13238 15.19424,-6.12919 21.17069,-11.64437 2.73164,-2.5948 5.23719,-5.59613 6.46393,-9.2125 1.21486,-3.40729 1.88426,-6.97504 2.65094,-10.50148 1.55251,-9.16582 -2.53467,-19.0609 -10.14246,-24.41531 -3.69335,-2.54506 -8.06315,-3.8502 -12.39934,-4.80861 -0.76656,-0.17114 -1.74392,-0.36794 -2.52818,-0.51257 -5.56435,-1.00074 -11.15869,-1.91323 -16.8088,-2.24781 -0.45672,-0.0205 -1.19001,-0.062 -1.75276,-0.0906 -1.36637,-0.06834 -2.94428,-0.107749 -4.41093,-0.124818 -0.8707,-0.01468 -1.74167,-7.34e-4 -2.61244,-0.0036 z" />
  </g>
</svg>
