<?xml version="1.0" encoding="UTF-8" standalone="no"?>
<!-- Created with Inkscape (http://www.inkscape.org/) -->

<svg
   version="1.1"
   id="svg8708"
   width="573.04688"
   height="69.375252"
   inkscape:version="1.1.2 (0a00cf5339, 2022-02-04)"
   sodipodi:docname="FindAssociate-TrFont.svg.svg"
   xmlns:inkscape="http://www.inkscape.org/namespaces/inkscape"
   xmlns:sodipodi="http://sodipodi.sourceforge.net/DTD/sodipodi-0.dtd"
   xmlns="http://www.w3.org/2000/svg"
   xmlns:svg="http://www.w3.org/2000/svg">
  <sodipodi:namedview
     inkscape:zoom="0.3177715"
     inkscape:cx="720.6436"
     inkscape:cy="-819.77143"
     inkscape:window-width="1920"
     inkscape:window-height="1022"
     inkscape:window-x="0"
     inkscape:window-y="0"
     inkscape:window-maximized="1"
     inkscape:current-layer="svg8708"
     id="namedview1585"
     pagecolor="#ffffff"
     bordercolor="#666666"
     borderopacity="1.0"
     inkscape:pageshadow="2"
     inkscape:pageopacity="0.0"
     inkscape:pagecheckerboard="0" />
  <defs
     id="defs9068">
    <rect
       width="0"
       height="0"
       x="0"
       y="0"
       id="rect1587" />
    <rect
       width="0"
       height="0"
       x="0"
       y="0"
       id="rect1589" />
    <rect
       width="0"
       height="0"
       x="0"
       y="0"
       id="rect1591" />
  </defs>
  <g
     id="g1503"
     style="fill:#003399">
    <path
       d="M 31.875,1.125 V 4.5 H 19.03125 q -7.875,0 -12.1875,6.42188 Q 4.125,14.95313 4.125,22.45313 V 33 h 27.75 v 3.5625 H 4.125 v 31.875 H 0 V 22.45313 Q 0,13.03125 4.6875,7.21875 9.60938,1.125 17.29688,1.125 Z"
       id="path8998"
       style="fill:#003399" />
    <path
       d="M 48.9375,22.82813 V 68.4375 H 45.42188 V 22.82813 Z m 1.17188,-12.65625 q 0,2.4375 -3.09375,2.76562 Q 44.25,12.46875 44.25,10.17188 q 0,-3.09375 2.76563,-3.09375 3.09375,0 3.09375,3.09375 z"
       id="path9000"
       style="fill:#003399" />
    <path
       d="m 67.40625,68.4375 h -3.75 V 40.125 q 0,-9 7.21875,-14.8125 4.03125,-3.23437 10.35938,-3.32812 10.92187,-0.1875 16.26562,8.57812 2.625,4.3125 2.625,9.9375 v 27.9375 h -3.75 v -27.375 q 0,-8.39062 -6.28125,-13.21875 Q 86.8125,25.3125 81.79688,25.3125 h -0.1875 q -8.15625,0 -12.28125,7.54688 -1.92188,3.46875 -1.92188,7.45312 z"
       id="path9002"
       style="fill:#003399" />
    <path
       d="m 153.60938,1.125 v 44.0625 q 0,9.79688 -4.92188,15.60938 -7.3125,8.625 -17.71875,8.57812 -6.23437,-0.0469 -11.34375,-3.42187 -5.0625,-3.375 -7.82812,-9.09375 -2.625,-5.39063 -2.625,-10.6875 0,-9.98438 6.65625,-17.0625 6.70312,-7.125 15.70312,-7.125 7.92188,0 14.01563,5.57812 V 32.25 q -5.90625,-6.70312 -13.73438,-6.70312 -7.54687,0 -13.125,6.1875 -5.76562,6.375 -5.76562,14.90625 0,7.125 5.48437,13.17187 5.53125,6.04688 12.9375,6.04688 9.5625,0 15.14063,-8.53125 3.375,-5.15625 3.375,-11.34375 V 1.125 Z"
       id="path9004"
       style="fill:#003399" />
    <path
       d="M 195.9375,68.4375 H 192 V 22.64063 Q 192,16.875 194.48438,11.53125 199.82813,0 215.15625,0 229.82813,0 235.6875,11.29688 238.35938,16.5 238.35938,22.82813 V 68.4375 h -4.125 V 35.625 H 199.875 v -3.5625 h 34.35938 v -10.875 q 0,-4.73437 -2.4375,-9.09375 Q 227.0625,3.75 215.15625,3.75 q -11.625,0 -16.6875,8.0625 -2.53125,4.07813 -2.53125,9.79688 z"
       id="path9006"
       style="fill:#003399" />
    <path
       d="m 280.3125,26.29688 h -20.25 q -3.5625,0 -5.76562,2.01562 -2.15625,1.96875 -2.10938,5.48438 0.0937,4.45312 5.57813,6.79687 1.6875,0.70313 9.46875,2.53125 7.78125,1.82813 11.95312,4.35938 4.3125,2.71875 4.5,8.39062 0.1875,6.79688 -3.75,9.70313 -3.89062,2.85937 -9.51562,2.85937 H 248.25 V 64.875 h 21.42188 q 9.9375,0 10.07812,-7.875 0.14063,-6.1875 -7.40625,-8.53125 -6,-1.21875 -17.39062,-4.78125 -6.89063,-3 -6.89063,-10.07812 0,-4.82813 3.32813,-7.875 3.1875,-2.90625 8.0625,-2.90625 h 20.85937 z"
       id="path9008"
       style="fill:#003399" />
    <path
       d="m 322.82813,26.29688 h -20.25 q -3.5625,0 -5.76563,2.01562 -2.15625,1.96875 -2.10937,5.48438 0.0937,4.45312 5.57812,6.79687 1.6875,0.70313 9.46875,2.53125 7.78125,1.82813 11.95313,4.35938 4.3125,2.71875 4.5,8.39062 0.1875,6.79688 -3.75,9.70313 -3.89063,2.85937 -9.51563,2.85937 H 290.76563 V 64.875 h 21.42187 q 9.9375,0 10.07813,-7.875 0.14062,-6.1875 -7.40625,-8.53125 -6,-1.21875 -17.39063,-4.78125 -6.89062,-3 -6.89062,-10.07812 0,-4.82813 3.32812,-7.875 3.1875,-2.90625 8.0625,-2.90625 h 20.85938 z"
       id="path9010"
       style="fill:#003399" />
    <path
       d="m 356.29688,21.98438 q 10.125,0 16.73437,7.26562 6.23438,6.89063 6.23438,16.35938 0,8.71875 -5.71875,15.75 -6.51563,7.96875 -17.25,8.01562 -14.10938,0 -20.34375,-12.65625 -2.8125,-5.625 -2.85938,-11.10937 -0.0469,-5.76563 2.8125,-11.15625 2.90625,-5.39063 7.6875,-8.76563 5.29688,-3.70312 12.70313,-3.70312 z m 0,44.0625 q 5.67187,0 10.17187,-3 4.54688,-3 6.89063,-8.20313 2.20312,-4.82812 2.15625,-9.23437 -0.0469,-5.10938 -2.53125,-9.75 -2.48438,-4.64063 -6.70313,-7.5 -4.40625,-2.95313 -9.98437,-3.04688 -8.25,-0.0937 -13.875,6.14063 -5.39063,6 -5.39063,14.15625 0,11.01562 8.90625,17.29687 4.40625,3.14063 10.35938,3.14063 z"
       id="path9012"
       style="fill:#003399" />
    <path
       d="m 416.8125,21.98438 v 3.75 q -2.85937,-0.32813 -4.82812,-0.32813 -10.82813,0 -16.125,5.67188 -5.57813,5.95312 -5.34375,14.29687 0.14062,5.48438 2.76562,10.26563 4.92188,9.04687 18.9375,9.04687 2.95313,0 4.59375,-0.1875 v 3.9375 q -0.70312,0 -2.15625,0.0937 -1.45312,0.0937 -2.15625,0.0937 -9.84375,0 -17.48437,-5.0625 -8.01563,-5.25 -8.25,-18.1875 -0.14063,-7.82812 3.79687,-13.64062 6.79688,-9.9375 21.32813,-9.9375 3.375,0 4.92187,0.1875 z"
       id="path9014"
       style="fill:#003399" />
    <path
       d="M 432.9375,22.82813 V 68.4375 h -3.51562 V 22.82813 Z m 1.17188,-12.65625 q 0,2.4375 -3.09375,2.76562 -2.76563,-0.46875 -2.76563,-2.76562 0,-3.09375 2.76563,-3.09375 3.09375,0 3.09375,3.09375 z"
       id="path9016"
       style="fill:#003399" />
    <path
       d="M 481.54688,59.20313 V 63.75 q -6.98438,5.4375 -14.20313,5.4375 -13.6875,0 -19.54687,-12.14062 Q 445.07813,51.46875 445.07813,45 q 0,-1.17187 0.0937,-2.10937 1.03125,-10.5 8.29687,-16.07813 6.28125,-4.82812 13.07813,-4.82812 11.53125,0 17.67187,7.96875 5.20313,6.79687 5.20313,15.23437 v 23.25 h -3.75 V 45 q 0,-6.1875 -3.1875,-11.0625 -5.8125,-8.85937 -15.75,-8.625 -8.25,0.1875 -13.35938,7.21875 -4.26562,5.85938 -4.26562,10.54688 -0.0937,0.79687 -0.0937,2.10937 0,8.01563 4.3125,13.64063 4.54687,5.90625 12.28125,7.03125 9.9375,0 15.9375,-6.65625 z"
       id="path9018"
       style="fill:#003399" />
    <path
       d="m 504.89063,10.35938 v 12.46875 h 16.125 v 3.46875 h -16.125 V 56.625 q 0,4.64063 3.14062,6.5625 2.71875,1.6875 7.125,1.875 2.20313,-0.1875 5.85938,-0.1875 v 3.5625 h -7.40625 q -5.39063,0 -9,-3.51562 -3.46875,-3.375 -3.46875,-9.84375 V 10.35938 Z"
       id="path9020"
       style="fill:#003399" />
    <path
       d="m 563.90625,32.25 q -5.0625,-6.70312 -14.85937,-6.70312 -9.5625,0 -15.23438,7.3125 -3,3.79687 -4.07812,9.1875 -0.0937,1.26562 -0.375,3.75 0.23437,9.09375 6.5625,15 3.32812,3.14062 8.57812,4.6875 3.09375,0.375 4.3125,0.5625 8.57813,-0.0937 14.29688,-5.71875 5.57812,-5.48438 6.1875,-13.875 h 3.75 q -0.28125,6.51562 -3.375,11.71875 -3.23438,5.48437 -8.85938,8.34375 -5.25,2.67187 -11.20312,2.67187 -10.03125,0 -16.96875,-6.79687 -3.28125,-3.1875 -5.15625,-7.54688 -2.10938,-4.78125 -2.0625,-9.23437 0.0469,-6.09375 3.375,-11.85938 3.14062,-5.48437 8.4375,-8.625 5.29687,-3.14062 11.57812,-3.14062 9.09375,0 15.89063,5.48437 Q 567.79688,30 569.48438,33 L 536.8125,55.07813 534.60938,52.125 Z"
       id="path9022"
       style="fill:#003399" />
  </g>
</svg>
