<?xml version="1.0" encoding="UTF-8" standalone="no"?>
<!-- Created with Inkscape (http://www.inkscape.org/) -->

<svg
   width="166.21654mm"
   height="15.92151mm"
   viewBox="0 0 166.21654 15.92151"
   version="1.1"
   id="svg5"
   xmlns="http://www.w3.org/2000/svg"
   xmlns:svg="http://www.w3.org/2000/svg">
  <defs
     id="defs2" />
  <g
     id="layer1"
     transform="translate(-6.3466881,-69.43847)">
    <g
       aria-label="Find Associate"
       id="text1838"
       style="font-weight:bold;font-size:20.5724px;line-height:1.25;-inkscape-font-specification:'sans-serif, Bold';stroke-width:0.264583">
      <path
         d="M 6.3466881,70.071313 H 16.783564 v 2.923129 h -6.569506 v 2.792542 h 6.177747 v 2.923129 h -6.177747 v 6.358559 H 6.3466881 Z"
         id="path6250"
         style="fill:#003399" />
      <path
         d="m 20.239085,73.818141 h 3.596152 v 11.250531 h -3.596152 z m 0,-4.379671 h 3.596152 v 2.933175 h -3.596152 z"
         id="path6252"
         style="fill:#003399" />
      <path
         d="m 38.601557,78.217903 v 6.850769 h -3.616242 v -1.115008 -4.128543 q 0,-1.456542 -0.07032,-2.009023 -0.06027,-0.552482 -0.220993,-0.813655 -0.210947,-0.351579 -0.572572,-0.542436 -0.361624,-0.200902 -0.823699,-0.200902 -1.125053,0 -1.767941,0.873925 -0.642887,0.86388 -0.642887,2.400783 v 5.534859 H 27.290756 V 73.818141 h 3.596152 v 1.6474 q 0.813654,-0.984422 1.72776,-1.446497 0.914106,-0.472121 2.019068,-0.472121 1.948753,0 2.953265,1.195369 1.014556,1.195369 1.014556,3.475611 z"
         id="path6254"
         style="fill:#003399" />
      <path
         d="M 49.590917,75.465541 V 69.43847 h 3.616242 v 15.630202 h -3.616242 v -1.627309 q -0.743338,0.994467 -1.637354,1.456542 -0.894015,0.462076 -2.069294,0.462076 -2.079339,0 -3.415339,-1.6474 -1.336001,-1.657444 -1.336001,-4.259129 0,-2.601685 1.336001,-4.249084 1.336,-1.657445 3.415339,-1.657445 1.165234,0 2.059249,0.472121 0.904061,0.462075 1.647399,1.446497 z M 47.22027,82.74825 q 1.155188,0 1.757895,-0.84379 0.612752,-0.843789 0.612752,-2.451008 0,-1.607219 -0.612752,-2.451009 -0.602707,-0.843789 -1.757895,-0.843789 -1.145143,0 -1.757896,0.843789 -0.602707,0.84379 -0.602707,2.451009 0,1.607219 0.602707,2.451008 0.612753,0.84379 1.757896,0.84379 z"
         id="path6256"
         style="fill:#003399" />
      <path
         d="m 73.086446,82.3364 h -6.047161 l -0.954286,2.732272 h -3.88746 l 5.55495,-14.997359 h 4.610708 l 5.55495,14.997359 h -3.88746 z m -5.082829,-2.782497 h 4.108452 l -2.049204,-5.966799 z"
         id="path6258"
         style="fill:#003399" />
      <path
         d="m 88.53583,74.16972 v 2.732272 q -1.155188,-0.482165 -2.230016,-0.723248 -1.074827,-0.241083 -2.029113,-0.241083 -1.024602,0 -1.526858,0.261173 -0.492211,0.251128 -0.492211,0.783519 0,0.43194 0.371669,0.662978 0.381715,0.231038 1.356091,0.341534 l 0.632843,0.09041 q 2.762407,0.351579 3.716693,1.155188 0.954286,0.80361 0.954286,2.521325 0,1.798076 -1.325956,2.702136 -1.325955,0.904061 -3.957776,0.904061 -1.115008,0 -2.310376,-0.180813 -1.185324,-0.170767 -2.440964,-0.522346 v -2.732271 q 1.074828,0.522346 2.199881,0.783519 1.135098,0.261173 2.300332,0.261173 1.054737,0 1.587128,-0.291309 0.532391,-0.291308 0.532391,-0.86388 0,-0.482165 -0.371669,-0.713203 -0.361624,-0.241083 -1.456542,-0.371669 l -0.632842,-0.08036 q -2.400783,-0.301354 -3.365115,-1.115008 -0.964331,-0.813655 -0.964331,-2.471099 0,-1.788031 1.225504,-2.651911 1.225505,-0.86388 3.756874,-0.86388 0.994467,0 2.089384,0.150677 1.094918,0.150677 2.380693,0.47212 z"
         id="path6260"
         style="fill:#003399" />
      <path
         d="m 100.78083,74.16972 v 2.732272 q -1.155186,-0.482165 -2.230013,-0.723248 -1.074828,-0.241083 -2.029114,-0.241083 -1.024602,0 -1.526857,0.261173 -0.492211,0.251128 -0.492211,0.783519 0,0.43194 0.371669,0.662978 0.381715,0.231038 1.356091,0.341534 l 0.632842,0.09041 q 2.762407,0.351579 3.716693,1.155188 0.95429,0.80361 0.95429,2.521325 0,1.798076 -1.32596,2.702136 -1.325954,0.904061 -3.957775,0.904061 -1.115008,0 -2.310377,-0.180813 -1.185323,-0.170767 -2.440963,-0.522346 v -2.732271 q 1.074827,0.522346 2.199881,0.783519 1.135098,0.261173 2.300331,0.261173 1.054738,0 1.587129,-0.291309 0.532391,-0.291308 0.532391,-0.86388 0,-0.482165 -0.371669,-0.713203 -0.361625,-0.241083 -1.456542,-0.371669 l -0.632843,-0.08036 q -2.400783,-0.301354 -3.365114,-1.115008 -0.964331,-0.813655 -0.964331,-2.471099 0,-1.788031 1.225504,-2.651911 1.225504,-0.86388 3.756874,-0.86388 0.994466,0 2.089384,0.150677 1.094918,0.150677 2.38069,0.47212 z"
         id="path6262"
         style="fill:#003399" />
      <path
         d="m 109.5904,76.118473 q -1.19537,0 -1.82821,0.86388 -0.6228,0.853835 -0.6228,2.471099 0,1.617264 0.6228,2.481144 0.63284,0.853835 1.82821,0.853835 1.17528,0 1.79807,-0.853835 0.6228,-0.86388 0.6228,-2.481144 0,-1.617264 -0.6228,-2.471099 -0.62279,-0.86388 -1.79807,-0.86388 z m 0,-2.57155 q 2.90304,0 4.53035,1.567038 1.63735,1.567039 1.63735,4.339491 0,2.772452 -1.63735,4.33949 -1.62731,1.567039 -4.53035,1.567039 -2.91309,0 -4.56048,-1.567039 -1.63736,-1.567038 -1.63736,-4.33949 0,-2.772452 1.63736,-4.339491 1.64739,-1.567038 4.56048,-1.567038 z"
         id="path6264"
         style="fill:#003399" />
      <path
         d="m 127.46066,74.16972 v 2.933175 q -0.7333,-0.502256 -1.47663,-0.743339 -0.7333,-0.241083 -1.52686,-0.241083 -1.50677,0 -2.35056,0.88397 -0.83374,0.873926 -0.83374,2.451009 0,1.577083 0.83374,2.461054 0.84379,0.873925 2.35056,0.873925 0.84379,0 1.59717,-0.251128 0.76343,-0.251128 1.40632,-0.743339 v 2.943219 q -0.84379,0.311399 -1.71772,0.462076 -0.86388,0.160722 -1.7378,0.160722 -3.04367,0 -4.76139,-1.556994 -1.71771,-1.567038 -1.71771,-4.349535 0,-2.782497 1.71771,-4.339491 1.71772,-1.567038 4.76139,-1.567038 0.88397,0 1.7378,0.160722 0.86388,0.150677 1.71772,0.462075 z"
         id="path6266"
         style="fill:#003399" />
      <path
         d="m 130.5646,73.818141 h 3.59615 v 11.250531 h -3.59615 z m 0,-4.379671 h 3.59615 v 2.933175 h -3.59615 z"
         id="path6268"
         style="fill:#003399" />
      <path
         d="m 142.65893,80.005933 q -1.12506,0 -1.69763,0.381715 -0.56252,0.381714 -0.56252,1.125053 0,0.683068 0.45203,1.074827 0.46207,0.381715 1.27573,0.381715 1.01455,0 1.70767,-0.723249 0.69311,-0.733293 0.69311,-1.828211 v -0.41185 z m 5.49468,-1.35609 v 6.418829 h -3.62629 v -1.667489 q -0.72325,1.024602 -1.62731,1.496722 -0.90406,0.462076 -2.19988,0.462076 -1.74785,0 -2.84277,-1.014557 -1.08487,-1.024602 -1.08487,-2.651911 0,-1.978888 1.35609,-2.903039 1.36614,-0.924151 4.27922,-0.924151 h 2.11952 V 77.58506 q 0,-0.853835 -0.67302,-1.245594 -0.67303,-0.401805 -2.09943,-0.401805 -1.15519,0 -2.14966,0.231038 -0.99446,0.231037 -1.8483,0.693113 v -2.742317 q 1.15519,-0.281263 2.32042,-0.421895 1.16524,-0.150677 2.33047,-0.150677 3.04367,0 4.38972,1.205414 1.35609,1.195369 1.35609,3.897506 z"
         id="path6270"
         style="fill:#003399" />
      <path
         d="m 155.42626,70.623794 v 3.194347 h 3.70665 v 2.57155 h -3.70665 v 4.771431 q 0,0.783519 0.3114,1.064782 0.3114,0.271218 1.23555,0.271218 h 1.8483 v 2.57155 h -3.08385 q -2.12957,0 -3.02358,-0.88397 -0.88397,-0.894015 -0.88397,-3.02358 v -4.771431 h -1.78803 v -2.57155 h 1.78803 v -3.194347 z"
         id="path6272"
         style="fill:#003399" />
      <path
         d="m 172.56323,79.413271 v 1.024602 h -8.40777 q 0.13059,1.265685 0.91411,1.898527 0.78352,0.632843 2.18984,0.632843 1.13509,0 2.32042,-0.331489 1.19537,-0.341534 2.45101,-1.024602 v 2.772452 q -1.27573,0.482166 -2.55146,0.723249 -1.27573,0.251128 -2.55146,0.251128 -3.05372,0 -4.75134,-1.546948 -1.68758,-1.556994 -1.68758,-4.359581 0,-2.752362 1.65744,-4.329445 1.66749,-1.577084 4.58057,-1.577084 2.65191,0 4.23904,1.597174 1.59718,1.597173 1.59718,4.269174 z m -3.69661,-1.195368 q 0,-1.024602 -0.6027,-1.6474 -0.59266,-0.632842 -1.557,-0.632842 -1.04469,0 -1.69762,0.592662 -0.65293,0.582617 -0.81366,1.68758 z"
         id="path6274"
         style="fill:#003399" />
    </g>
  </g>
</svg>
