<svg width="108" height="108" viewBox="0 0 108 108" fill="none" xmlns="http://www.w3.org/2000/svg">
<path fill-rule="evenodd" clip-rule="evenodd" d="M54.7661 25C50.9885 25 47.2478 25.7441 43.7578 27.1897C40.2677 28.6354 37.0965 30.7543 34.4253 33.4255C31.7542 36.0967 29.6353 39.2679 28.1896 42.758C26.744 46.248 26 49.9887 26 53.7663C26 61.3956 29.0307 68.7123 34.4254 74.107C39.8201 79.5017 47.1369 82.5324 54.7661 82.5324C60.2077 82.5274 65.5362 80.9791 70.133 78.0672L79.5032 87.4371L86 80.9404L77.0017 71.9421C81.2082 66.8172 83.5152 60.3965 83.5324 53.7663C83.5325 49.9887 82.7884 46.248 81.3428 42.7579C79.8971 39.2678 77.7782 36.0966 75.107 33.4254C72.4358 30.7542 69.2646 28.6353 65.7745 27.1897C62.2844 25.744 58.5438 25 54.7661 25ZM54.6118 28.637C57.9986 28.637 61.3523 29.2846 64.4813 30.5429C67.6103 31.8011 70.4534 33.6454 72.8482 35.9704C75.243 38.2953 77.1427 41.0554 78.4388 44.0931C79.7349 47.1308 80.4019 50.3866 80.4019 53.6746C80.4019 60.3149 77.6847 66.6833 72.8481 71.3787C68.0115 76.0742 61.4517 78.712 54.6118 78.712C47.7718 78.712 41.212 76.0742 36.3754 71.3787C31.5388 66.6833 28.8217 60.3149 28.8216 53.6746C28.8216 50.3866 29.4887 47.1308 30.7848 44.0931C32.0808 41.0554 33.9805 38.2953 36.3753 35.9704C38.7702 33.6454 41.6133 31.8011 44.7423 30.5429C47.8713 29.2846 51.225 28.637 54.6118 28.637ZM74.8927 74.2725L81.8555 81.2667L79.8595 83.1544L72.6945 76.1554C73.9577 75.4349 74.2116 75.1287 74.8927 74.2725Z" fill="white"/>
<path fill-rule="evenodd" clip-rule="evenodd" d="M54.782 37.9714C53.7184 37.9714 52.6652 38.1847 51.6826 38.5992C50.6999 39.0137 49.8071 39.6212 49.055 40.3871C48.3029 41.153 47.7063 42.0622 47.2993 43.0629C46.8923 44.0636 46.6828 45.1361 46.6828 46.2192C46.6828 47.3024 46.8923 48.3749 47.2993 49.3755C47.7063 50.3762 48.3029 51.2855 49.055 52.0513C49.8071 52.8172 50.6999 53.4248 51.6826 53.8393C52.6652 54.2537 53.7184 54.4671 54.782 54.4671C56.9301 54.467 58.9901 53.5981 60.509 52.0513C62.0279 50.5045 62.8811 48.4067 62.8811 46.2192C62.8811 44.0318 62.0278 41.934 60.509 40.3872C58.9901 38.8404 56.9301 37.9714 54.782 37.9714ZM54.782 40.9495C56.2375 40.9495 57.6333 41.5047 58.6624 42.493C59.6915 43.4812 60.2697 44.8216 60.2697 46.2192C60.2697 47.6169 59.6915 48.9572 58.6624 49.9455C57.6333 50.9338 56.2375 51.489 54.782 51.489C54.0614 51.489 53.3478 51.3527 52.6819 51.0879C52.0161 50.8231 51.4111 50.4349 50.9016 49.9456C50.392 49.4562 49.9877 48.8753 49.7119 48.2359C49.4361 47.5966 49.2942 46.9113 49.2942 46.2192C49.2942 45.5272 49.4361 44.8419 49.7119 44.2025C49.9877 43.5632 50.392 42.9822 50.9016 42.4929C51.4112 42.0036 52.0161 41.6154 52.6819 41.3506C53.3478 41.0857 54.0614 40.9494 54.782 40.9495Z" fill="white"/>
<path fill-rule="evenodd" clip-rule="evenodd" d="M54.874 53.5843C47.1277 53.5843 40.7146 58.8405 39.1697 66.2704L42.2329 67.149C42.7932 62.3139 48.4958 56.3078 54.6748 56.3078C61.2349 56.3078 66.9571 62.2094 67.0185 67.301L70.3943 66.3661C70.0586 59.1137 62.6067 53.5843 54.874 53.5843Z" fill="white"/>
<path fill-rule="evenodd" clip-rule="evenodd" d="M50.3842 51.2917L54.7569 53.3502L59.1341 51.3011L58.5276 56.0959L61.8289 59.6256L57.0814 60.5305L54.7446 64.761L52.4169 60.5254L47.6714 59.6103L50.9804 56.0878L50.3842 51.2917Z" fill="white"/>
</svg>
