<?xml version="1.0" encoding="UTF-8" standalone="no"?>
<!-- Created with Inkscape (http://www.inkscape.org/) -->

<svg
   width="2820.357089819658"
   height="2825.7523276150405"
   viewBox="0.0 0.0 795.9674453333333 797.4901013333333"
   version="1.1"
   id="svg103508"
   sodipodi:docname="logov3-final.svg"
   inkscape:version="1.1.2 (0a00cf5339, 2022-02-04)"
   xmlns:inkscape="http://www.inkscape.org/namespaces/inkscape"
   xmlns:sodipodi="http://sodipodi.sourceforge.net/DTD/sodipodi-0.dtd"
   xmlns="http://www.w3.org/2000/svg"
   xmlns:svg="http://www.w3.org/2000/svg">
  <sodipodi:namedview
     id="namedview103510"
     pagecolor="#ffffff"
     bordercolor="#666666"
     borderopacity="1.0"
     inkscape:pageshadow="2"
     inkscape:pageopacity="0.0"
     inkscape:pagecheckerboard="0"
     inkscape:document-units="px"
     showgrid="false"
     inkscape:zoom="0.16948478"
     inkscape:cx="908.63617"
     inkscape:cy="2014.9302"
     inkscape:window-width="1920"
     inkscape:window-height="1022"
     inkscape:window-x="0"
     inkscape:window-y="0"
     inkscape:window-maximized="1"
     inkscape:current-layer="layer1" />
  <defs
     id="defs103505">
    <inkscape:path-effect
       effect="join_type"
       id="path-effect85600"
       is_visible="true"
       lpeversion="1"
       linecap_type="butt"
       line_width="39.6875"
       linejoin_type="extrp_arc"
       miter_limit="100"
       attempt_force_join="true" />
  </defs>
  <g
     inkscape:label="Layer 1"
     inkscape:groupmode="layer"
     id="layer1"
     transform="matrix(1.06667,0,0,1.06667,272.263,299.667)">
    <path
       style="display:inline;fill:#ffffff;fill-opacity:1;fill-rule:nonzero;stroke:none;stroke-width:26.4583;stroke-linecap:butt;stroke-linejoin:miter;stroke-miterlimit:4;stroke-dasharray:none;stroke-opacity:1"
       d="m 332.138,376.793 c 24.851,32.145 76.491,111.626 127.854,84.292 0.442,-0.235 0.88,-0.476 1.315,-0.723 0.357,-0.255 0.714,-0.512 1.068,-0.771 84.364,-61.629 -41.371,-155.533 -76.491,-186.8 l 2.352,27.153 C 454.677,216.177 480.547,101.273 454.771,-3.03564 434.567,-84.8025 389.728,-161.213 319.304,-210.445 l 0.745,0.547 c -67.877,-52.318 -153.572,-76.614 -238.5669,-69.964 -0.0054,0 -0.0108,0 -0.0162,0.001 -0.0054,0 -0.0108,0 -0.0162,10e-4 -108.5762,8.673 -215.0867,66.914 -274.5967,160.344 l 0.263,-0.401 c -87.258,129.9616 -85.853,320.114 22.655,439.063 l 0.231,0.253 0.24,0.245 c 0,0 63.078,88.508 82.9585,3.121 14.7734,-63.45 75.8809,-147.26 158.4597,-145.54 34.2918,0.715 66.4378,-48.803 26.4396,-57.722 -0.0563,-0.013 -0.1127,-0.025 -0.1692,-0.038 -0.0407,-0.008 -0.0815,-0.016 -0.1222,-0.025 -179.1208,-37.1238 -119.1767,-247.139 22.7076,-240.932 118.704,5.193 176.712,174.043 27.935,235.169 -36.005,14.793 -52.6419,35.123 -70.8226,52.986 0,0 -5.249,2.719 -25.8975,32.789 -8.7662,12.767 -17.1158,25.814 -25.0357,39.122 L 107.131,223.604 83.8034,206.506 113.47,448.805 141.43,199.48 116.301,216.361 189.146,237 153.544,153.914 136.778,181.519 c 75.648,-5.633 136.871,49.827 166.229,126.503 0.214,0.558 0.425,1.116 0.635,1.675 0.374,0.632 0.757,1.257 1.151,1.876 15.415,24.249 37.793,25.85 55.224,15.939 7.661,-4.356 14.306,-10.941 18.234,-15.22 0.609,-0.664 1.179,-1.297 1.699,-1.881 0.466,-0.524 0.9,-1.017 1.285,-1.456 0.343,-0.391 0.646,-0.736 0.928,-1.057 0.245,-0.277 0.437,-0.494 0.602,-0.677 0.145,-0.16 0.232,-0.254 0.277,-0.302 l -32.204,-18.535 c -0.016,0.053 -0.048,0.159 -0.117,0.364 0,0 -54.575,41.49 -18.583,88.045 z m 56.22,-92.413 c -13.195,-30.452 -34.546,-4.346 -36.556,-2.055 -8.163,9.303 -9.718,13.932 -13.517,7.956 l 1.786,3.55 C 306.064,205.013 231.36,134.678 133.831,141.941 c -9.049,0.674 -18.039,1.997 -26.899,3.958 l 29.343,68.48 23.65,-26.908 -55.327,-15.675 -11.7131,104.451 39.4171,-0.2 -11.672,-95.325 -56.1715,10.454 19.9893,30.742 c 17.8012,-25.923 20.9952,-26.945 20.9952,-26.945 20.261,-19.907 31.558,-33.684 58.09,-44.586 184.101,-75.6392 123.381,-304.324 -41.283,-311.528 -194.1947,-8.496 -254.515,273.428 -32.4961,319.443 l -0.2915,-0.062 -11.2681,-24.881 0.3663,-0.567 0.1774,-0.236 -0.0574,0.063 c -0.0705,0.075 -0.1744,0.182 -0.3277,0.328 -0.1682,0.16 -0.3756,0.348 -0.6232,0.559 -0.2752,0.234 -0.5858,0.486 -0.9305,0.749 -0.383,0.292 -0.7933,0.589 -1.2262,0.883 -2.8707,1.951 -3.0862,2.409 -3.0862,2.409 -105.6368,-2.2 -179.9028,98.751 -197.9398,176.218 -0.863,3.708 -1.689,6.178 -2.358,7.748 -0.252,0.592 -0.449,0.979 -0.582,1.218 -0.025,0.044 -0.124,0.211 -0.124,0.211 l 12.668,-2.947 c -0.032,-0.019 -0.137,-0.081 -0.336,-0.222 -0.246,-0.174 -0.578,-0.427 -1.003,-0.785 -0.479,-0.403 -1.014,-0.885 -1.639,-1.486 -0.693,-0.668 -1.437,-1.425 -2.25,-2.293 -6.005,-6.404 -13.013,-15.851 -20.302,-23.307 l 0.471,0.498 C -236.115,188.031 -237.7,18.0301 -159.935,-97.7939 c 0.045,-0.0663 0.089,-0.1327 0.134,-0.199 0.043,-0.0673 0.086,-0.1345 0.128,-0.2017 C -107.216,-180.55 -12.7318,-232.522 84.61,-240.298 l -0.0324,0.003 c 75.5064,-5.908 151.3964,15.703 211.2424,61.831 0.122,0.094 0.245,0.188 0.367,0.283 0.126,0.088 0.252,0.176 0.378,0.264 61.231,42.805 101.338,110.1846 119.678,184.40239 22.86,92.51281 -0.022,194.31061 -59.101,268.79661 -3.816,4.811 -7.779,9.503 -11.884,14.07 4.676,4.435 9.422,8.797 14.236,13.082 40.708,36.241 119.021,96.218 79.47,125.11 l 2.384,-1.494 c -15.388,8.189 -51.587,-39.609 -77.811,-73.53 -6.557,-8.481 -5.073,-10.798 -3.422,-14.137 5.776,-11.679 23.108,-21.663 28.251,-37.066 0.656,-1.966 4.55,-6.418 -0.007,-16.937 z"
       inkscape:original-d="m 369.54335,295.03212 c -5.22008,15.63511 -48.66627,34.75099 -21.70597,69.62402 25.52253,33.01327 69.06156,96.88266 102.83239,78.91118 62.33757,-45.53851 -40.11421,-122.24321 -77.98073,-155.95466 62.76037,-79.12607 87.13578,-187.47736 62.81809,-285.888 -19.27224,-77.99234 -61.74552,-149.88714 -127.57264,-195.90603 -63.86131,-49.22326 -144.65416,-72.17627 -224.90464,-65.89782 -102.95898,8.22482 -203.45638,63.33155 -259.4394,151.22397 -82.51126,122.8929 -81.01644,302.96956 20.84102,414.62846 18.08158,18.49641 39.02285,57.24256 49.44228,12.49212 16.40522,-70.4588 84.09198,-162.83924 178.19976,-160.87895 10.10098,0.21041 30.9021,-16.46471 21.70762,-18.5149 -200.57757,-41.57168 -140.44718,-287.54027 27.60172,-280.18816 141.69289,6.19904 201.05491,204.96319 34.60932,273.349 -31.26864,12.84703 -45.23558,29.90097 -64.45654,48.78564 -9.02843,8.87046 -23.44627,29.86722 -23.44627,29.86722 l 35.41068,-6.59045 9.10498,74.36406 9.10493,-81.19017 32.80534,9.29461 -19.21078,-44.8334 c 86.58857,-6.44786 154.5518,56.44953 186.23447,139.19708 23.64815,37.19948 53.40665,-22.07566 48.00437,-5.89482 z"
       id="path104012" />
  </g>
</svg>
