<?xml version="1.0" encoding="UTF-8" standalone="no"?>
<!-- Created with Inkscape (http://www.inkscape.org/) -->

<svg
   sodipodi:docname="logov3-touches.svg"
   id="svg5"
   version="1.1"
   viewBox="0 0 1024 1024"
   height="1024mm"
   width="1024mm"
   inkscape:version="1.1.2 (0a00cf5339, 2022-02-04)"
   xmlns:inkscape="http://www.inkscape.org/namespaces/inkscape"
   xmlns:sodipodi="http://sodipodi.sourceforge.net/DTD/sodipodi-0.dtd"
   xmlns="http://www.w3.org/2000/svg"
   xmlns:svg="http://www.w3.org/2000/svg">
  <sodipodi:namedview
     id="namedview11"
     pagecolor="#ffffff"
     bordercolor="#666666"
     borderopacity="1.0"
     inkscape:pageshadow="2"
     inkscape:pageopacity="0.0"
     inkscape:pagecheckerboard="0"
     inkscape:document-units="mm"
     showgrid="false"
     inkscape:zoom="0.10852051"
     inkscape:cx="2294.4972"
     inkscape:cy="1958.1552"
     inkscape:window-width="1920"
     inkscape:window-height="1022"
     inkscape:window-x="0"
     inkscape:window-y="0"
     inkscape:window-maximized="1"
     inkscape:current-layer="layer1"
     inkscape:snap-global="false" />
  <defs
     id="defs2" />
  <g
     id="layer1"
     transform="translate(216.72139,169.39423)">
    <path
       id="rect8319"
       style="fill:#003399;fill-rule:evenodd;stroke-width:0.411001;paint-order:stroke fill markers"
       d="m 176.39075,-51.277441 c -139.372239,-1.925412 -278.2722,93.559392 -334.20898,220.937491 -0.005,0.01 -0.009,0.0195 -0.0137,0.0293 -32.07556,74.85076 -41.64038,158.87676 -19.80274,239.06446 19.96262,83.50445 68.71478,151.34153 138.082033,201.69726 C -1.2569618,495.15443 57.461556,436.89954 142.4107,411.57688 c -11.36796,18.48644 -23.61249,32.26128 -42.33424,53.80574 0,0 46.24568,-14.62884 58.2832,-13.88281 16.23332,107.76179 23.87985,200.54522 30.08798,207.0489 4.66547,-7.60954 12.9016,-96.44041 24.82017,-209.46296 19.10407,1.89659 27.32172,9.13404 50.1875,16.41992 -0.56197,-0.21498 -35.98553,-40.9839 -37.77881,-46.9093 73.30736,13.98356 155.95003,112.38651 160.30201,189.5614 17.71342,4.9492 27.74476,27.03603 37.71094,42.71289 16.24484,24.37474 39.32306,52.97645 77.29883,63.80469 0.24849,0.0714 0.50379,0.1166 0.76171,0.13477 26.10037,1.78409 49.24586,-12.04096 64.97071,-31.99414 15.72484,-19.95319 24.35425,-46.16143 21.43945,-70.35352 -0.0189,-0.1606 -0.0482,-0.3198 -0.0879,-0.47656 -6.6911,-26.08178 -34.99229,-49.17655 -61.26758,-66.45703 -23.13446,-15.21486 -42.31737,-24.3165 -47.22265,-26.60547 5.52517,-8.87211 34.097,-55.5883 44.32226,-91.26758 C 562.72473,292.19933 529.38538,135.69191 418.74426,40.425684 352.626,-18.322205 264.86055,-51.543595 176.40833,-51.277441 Z m 2.74805,50.0996089 c 0.028,3.181e-4 0.056,3.181e-4 0.084,0 145.75237,-2.971728 283.65427,111.4828021 306.55467,255.6640621 0.001,0.0111 0.003,0.0221 0.004,0.0332 15.46231,91.96445 -12.09667,189.45464 -69.82431,262.33984 -30.36375,-63.81168 -86.899,-115.15864 -154.58204,-136.51757 89.09745,-55.94489 101.67699,-196.73544 25.75782,-269.51368 l -0.006,-0.006 C 230.7306,52.211694 127.39811,51.589434 72.191391,112.37281 -0.6811291,184.92565 9.5484409,322.00675 96.783191,378.79859 18.995621,403.55135 -22.885033,448.68559 -61.799252,525.53029 -167.13574,397.7984 -158.14835,227.98514 -63.099624,112.99976 c 0.02253,-0.027 0.04467,-0.0543 0.06641,-0.082 C -5.8584291,39.598669 86.700251,-1.3648941 179.1388,-1.1778321 Z m 4.18945,128.3183521 c 0.0306,0.001 0.0612,0.002 0.0918,0.002 70.4532,-0.0905 122.69342,82.54343 95.8164,146.94922 -0.0311,0.0739 -0.0597,0.14883 -0.0859,0.22461 -21.2651,62.02657 -106.37182,91.23568 -159.24219,50.29296 -0.0473,-0.0363 -0.0955,-0.0715 -0.14453,-0.10546 -54.658589,-38.23621 -60.616939,-128.39203 -8.12113,-171.1602 0.0344,-0.0287 0.0682,-0.058 0.10156,-0.0879 19.55298,-17.13859 45.58852,-26.74015 71.58399,-26.11524 z m 270.92383,427.45313 c 30.71093,18.32392 64.51575,30.12761 83.57617,58.16211 8.32324,12.24201 6.55322,29.45143 -0.92383,41.63086 -7.53698,12.09808 -21.38834,17.61422 -32.68945,11.99609 -41.50115,-21.37727 -52.64144,-50.96373 -75.20508,-87.3125 7.28968,-8.41236 15.17641,-18.29271 25.24219,-24.47656 z"
       sodipodi:nodetypes="ccccccccccccccccsccscccscccccccccccccccscccccccsscscccc" />
    <g
       id="g907"
       transform="translate(-6.1444591,39.348798)">
      <g
         id="g10076"
         transform="translate(-5.109713,5.1128357)">
        <g
           id="g13489">
          <g
             id="g13630" />
        </g>
      </g>
      <g
         id="g10706"
         transform="matrix(1.3451625,0,0,1.3976358,-98.418362,-115.10664)"
         style="stroke-width:0.729316" />
    </g>
  </g>
</svg>
