<?xml version="1.0" encoding="UTF-8" standalone="no"?>
<!-- Created with Inkscape (http://www.inkscape.org/) -->

<svg
   width="191.98677mm"
   height="182.65451mm"
   viewBox="0 0 191.98677 182.65451"
   version="1.1"
   id="svg5"
   sodipodi:docname="logov3.svg.2023_12_22_19_46_44.0.svg"
   inkscape:version="1.1.2 (0a00cf5339, 2022-02-04)"
   xmlns:inkscape="http://www.inkscape.org/namespaces/inkscape"
   xmlns:sodipodi="http://sodipodi.sourceforge.net/DTD/sodipodi-0.dtd"
   xmlns="http://www.w3.org/2000/svg"
   xmlns:svg="http://www.w3.org/2000/svg">
  <sodipodi:namedview
     id="namedview7"
     pagecolor="#ffffff"
     bordercolor="#666666"
     borderopacity="1.0"
     inkscape:pageshadow="2"
     inkscape:pageopacity="0.0"
     inkscape:pagecheckerboard="0"
     inkscape:document-units="mm"
     showgrid="false"
     inkscape:zoom="0.1026287"
     inkscape:cx="1593.1216"
     inkscape:cy="730.78973"
     inkscape:window-width="1920"
     inkscape:window-height="1022"
     inkscape:window-x="0"
     inkscape:window-y="0"
     inkscape:window-maximized="1"
     inkscape:current-layer="layer1"
     inkscape:snap-nodes="false"
     inkscape:snap-global="false"
     showguides="false" />
  <defs
     id="defs2" />
  <g
     inkscape:label="Layer 1"
     inkscape:groupmode="layer"
     id="layer1"
     transform="translate(-196.22093,-290.74834)">
    <rect
       style="fill:#00cc00;fill-rule:evenodd;stroke-width:0.411;paint-order:stroke fill markers"
       id="rect9472"
       width="1024"
       height="1024"
       x="-216.72139"
       y="-169.39423"
       rx="0"
       ry="0" />
    <path
       id="path846"
       style="fill:#669900;fill-rule:evenodd;stroke-width:0.411;paint-order:stroke fill markers"
       d="m 1603.0607,-309.80834 c -190.1475,-2.68183 -369.6739,140.91918 -409.5752,326.816197 -41.5981,173.335083 40.2565,367.959923 195.0188,457.364063 133.2249,80.11532 311.9963,78.71465 442.3806,-6.77792 47.4516,38.83931 86.8033,86.68388 131.4824,128.18555 41.5022,-0.92805 65.5028,-56.06796 92.735,-81.53482 -21.7692,-37.48757 -61.9252,-63.97975 -91.4774,-96.63778 -59.0792,-31.62236 0.092,-76.27742 16.8466,-114.8258 76.3091,-147.62202 55.3747,-339.577453 -54.9354,-464.77927 -79.337,-92.76404 -200.1365,-149.23917 -322.4754,-147.81022 z m -0.9532,49.61523 c 173.6795,-3.4248 342.6425,125.82562 374.8707,298.213027 18.6183,84.416833 3.2997,175.717903 -39.2631,250.752683 -86.6644,158.58328 -293.9288,232.41952 -462.7809,171.37758 -148.4328,-49.17388 -260.5794,-198.16683 -254.0786,-356.28274 -0.6005,-146.600783 100.0597,-283.33973 235.482,-335.75747 46.1939,-18.59277 95.9531,-28.43101 145.7699,-28.30308 z m 300.9122,671.58203 c 32.8174,36.538 88.6828,73.28543 102.7265,113.81768 -35.0355,55.63001 -64.7763,-17.31996 -96.3654,-36.80304 -25.043,-21.46687 -58.3572,-50.70086 -14.5059,-69.87524 2.5738,1.76988 5.4075,-10.36022 8.1448,-7.1394 z" />
    <path
       id="path846-8"
       style="fill:#ffffff;fill-rule:evenodd;stroke-width:0.536331;paint-order:stroke fill markers"
       sodipodi:type="inkscape:offset"
       inkscape:radius="-2.1617732"
       inkscape:original="M 292.42969 -65.785156 A 390.09086 390.09086 0 0 0 -97.658203 324.30664 A 390.09086 390.09086 0 0 0 292.42969 714.39648 A 390.09086 390.09086 0 0 0 500.81836 653.84375 L 627.88477 780.9082 L 715.98438 692.80664 L 593.96289 570.7832 A 390.09086 390.09086 0 0 0 682.52344 324.30664 A 390.09086 390.09086 0 0 0 292.42969 -65.785156 z M 290.33789 -16.464844 A 349.73409 339.52705 0 0 1 640.07031 323.0625 A 349.73409 339.52705 0 0 1 290.33789 662.58984 A 349.73409 339.52705 0 0 1 -59.396484 323.0625 A 349.73409 339.52705 0 0 1 290.33789 -16.464844 z M 565.36133 602.38672 L 659.7832 697.23242 L 632.7168 722.83008 L 535.55273 627.91992 C 552.68209 618.14908 556.12514 613.99687 565.36133 602.38672 z "
       d="M 292.42969,-63.623047 C 241.65006,-63.622661 190.8907,-53.526569 143.97656,-34.09375 97.062424,-14.660931 54.029488,14.093199 18.123047,50 c -35.906442,35.906801 -64.657494,78.93918 -84.089844,125.85352 -19.432349,46.91433 -29.529419,97.67349 -29.529297,148.45312 1.33e-4,50.77947 10.096833,101.53902 29.529297,148.45313 19.432464,46.91411 48.18538,89.94496 84.091797,125.85156 35.906417,35.90659 78.937549,64.66105 125.85156,84.09375 46.91402,19.4327 97.67366,29.52891 148.45313,29.5293 72.89589,-0.0675 145.65196,-21.20831 207.23242,-60.2168 a 2.1619894,2.1619894 0 0 1 2.68555,0.29687 L 627.88477,777.84961 712.92773,692.80664 592.43359,572.3125 a 2.1619894,2.1619894 0 0 1 -0.14257,-2.90039 c 28.08569,-34.2182 50.25172,-73.28257 65.2207,-114.94336 14.96832,-41.65895 22.73397,-85.89581 22.84961,-130.16211 v -0.002 C 680.36119,273.52522 670.26449,222.76567 650.83203,175.85156 631.39932,128.93685 602.64534,85.904921 566.73828,49.998047 530.83123,14.091173 487.79957,-14.663227 440.88477,-34.095703 393.96996,-53.52818 343.2098,-63.623423 292.42969,-63.623047 Z m -2.0918,49.320313 c 17.06357,0.08679 67.90949,5.9992818 51.00781,3.652343 16.85663,2.5151633 66.2778,15.6099233 49.9043,10.87890662 16.28464,4.88733718 63.20547,24.88181538 47.7168,17.86914038 15.36291,7.150301 58.76024,33.620477 44.49609,24.472656 14.10928,9.260488 53.03806,41.629168 40.3125,30.542969 12.55886,11.163736 46.17264,48.727029 35.25781,35.951169 10.73408,12.8337 38.30745,54.77078 29.44141,40.58203 8.67891,14.22704 29.60926,59.62685 22.98633,44.33399 6.43739,15.31331 20.27281,63.18482 16.03515,47.12305 4.05606,16.07324 10.50445,65.38135 8.74024,48.89843 1.58114,16.48605 0.50493,66.15619 1.2539,49.61133 -0.92675,16.54336 -9.49629,65.5036 -6.25781,49.25391 -3.41857,16.24179 -19.29187,63.43383 -13.63476,47.83008 -5.83807,15.58861 -28.66561,60.00017 -20.7168,45.375 -8.13707,14.59237 -37.42663,55.26323 -27.35352,41.93359 -10.25552,13.28006 -45.37333,49.33885 -33.39648,37.58789 -12.15467,11.67398 -52.34808,42.3392 -38.7207,32.42383 -13.78517,9.81784 -58.18634,34.43514 -43.20508,26.5625 -15.11588,7.74564 -62.77182,25.77336 -46.75586,20.11914 -16.11548,5.50865 -65.99622,16.55852 -49.29102,13.24414 -16.76673,3.14882 -67.79986,6.97653 -50.76367,6.07812 -17.05067,0.72563 -68.12751,-2.75756 -51.13086,-1.21875 -16.96601,-1.70849 -66.98197,-12.43243 -50.39258,-8.48828 -16.51535,-4.10629 -64.38541,-21.8469 -48.56445,-15.57617 C 141.59693,628.33125 96.91602,603.96101 111.625,612.41602 97.061776,603.84049 56.544102,573.36683 69.816406,583.83008 56.707207,573.27707 21.230819,537.36022 32.78125,549.59961 21.412633,537.29245 -8.2497436,496.71907 1.3242188,510.46875 -8.0614335,496.67332 -31.262414,452.32203 -23.875,467.2832 c -7.202644,-14.98741 -23.440773,-62.15217 -18.398438,-46.30664 -4.863055,-15.85724 -13.795444,-64.8039 -11.201171,-48.42187 -2.411969,-16.38762 -3.846793,-66.05629 -3.759766,-49.49219 0.08703,-16.5641 6.171735,-65.87981 3.759766,-49.49219 2.594272,-16.38203 16.064227,-64.27911 11.201171,-48.42187 C -37.231102,209.3029 -16.672356,163.85438 -23.875,178.8418 -16.487586,163.88062 10.709871,121.86082 1.3242188,135.65625 10.898181,121.90657 44.149867,84.218229 32.78125,96.525391 44.331681,84.285998 82.925605,51.741919 69.816406,62.294922 83.08871,51.831669 126.18822,25.133456 111.625,33.708984 c 14.70898,-8.455006 61.39135,-28.7292949 45.68164,-22.322265 15.82097,-6.2707345 65.0798,-19.6824662 48.56445,-15.5761721 16.5894,-3.944158 67.35859,-10.1967769 50.39258,-8.4882809 29.74813,-1.81739 9.00077,-1.368262 34.07422,-1.625 z m 274.9043,614.531254 a 2.1619894,2.1619894 0 0 1 1.65039,0.63281 l 94.42187,94.8457 a 2.1619894,2.1619894 0 0 1 -0.0449,3.0957 l -27.06641,25.59766 a 2.1619894,2.1619894 0 0 1 -2.99609,-0.0234 L 534.04297,629.4668 a 2.1619894,2.1619894 0 0 1 0.43945,-3.42383 c 17.0087,-9.70201 19.95793,-13.40012 29.1875,-25.00195 a 2.1619894,2.1619894 0 0 1 1.57227,-0.8125 z"
       transform="matrix(1.0271724,0.16719536,0.26163725,0.61429681,-129.53168,256.0112)"
       inkscape:transform-center-x="325.90166"
       inkscape:transform-center-y="383.3954" />
    <path
       id="path846-8-0"
       style="fill:#003399;fill-rule:evenodd;stroke-width:0.387315;paint-order:stroke fill markers"
       sodipodi:type="inkscape:offset"
       inkscape:radius="4.1204095"
       inkscape:original="M 292.42969 -65.785156 A 390.09086 390.09086 0 0 0 -97.658203 324.30664 A 390.09086 390.09086 0 0 0 292.42969 714.39648 A 390.09086 390.09086 0 0 0 500.81836 653.84375 L 627.88477 780.9082 L 715.98438 692.80664 L 593.96289 570.7832 A 390.09086 390.09086 0 0 0 682.52344 324.30664 A 390.09086 390.09086 0 0 0 292.42969 -65.785156 z M 290.33789 -16.464844 A 349.73409 339.52705 0 0 1 640.07031 323.0625 A 349.73409 339.52705 0 0 1 290.33789 662.58984 A 349.73409 339.52705 0 0 1 -59.396484 323.0625 A 349.73409 339.52705 0 0 1 290.33789 -16.464844 z M 565.36133 602.38672 L 659.7832 697.23242 L 632.7168 722.83008 L 535.55273 627.91992 C 552.68209 618.14908 556.12514 613.99687 565.36133 602.38672 z "
       transform="matrix(1.0605892,-0.03453905,0.03453905,1.0605892,1049.3157,399.74064)"
       inkscape:transform-center-x="-587.88777"
       inkscape:transform-center-y="-24.762761"
       d="m 292.42969,-69.90625 c -51.60197,3.92e-4 -103.18355,10.262249 -150.85742,30.009766 C 93.898392,-20.148967 50.169556,9.0703129 13.681641,45.558594 -22.806275,82.046875 -52.024444,125.77515 -71.771484,173.44922 c -19.74704,47.67407 -30.007936,99.25546 -30.007816,150.85742 1.4e-4,51.6018 10.260659,103.18358 30.007816,150.85742 19.747156,47.67385 48.965234,91.40255 85.453125,127.89063 36.48789,36.48807 80.216879,65.70573 127.890629,85.45312 47.67374,19.7474 99.25562,30.00938 150.85742,30.00977 a 4.1208215,4.1208215 0 0 0 0.004,0 c 72.96729,-0.0672 145.74335,-21.00356 207.7168,-59.51367 L 624.9707,783.82227 a 4.1208215,4.1208215 0 0 0 5.82813,0 l 88.09961,-88.10157 a 4.1208215,4.1208215 0 0 0 0,-5.82812 L 599.46094,570.45312 c 27.42335,-34.07169 49.17345,-72.70023 63.96289,-113.86132 15.21139,-42.33546 23.10387,-87.29025 23.2207,-132.27539 a 4.1208215,4.1208215 0 0 0 0,-0.01 C 686.64466,272.70418 676.38413,221.12172 656.63672,173.44727 636.88931,125.77281 607.67018,82.043043 571.18164,45.554688 534.6931,9.0663318 490.96361,-20.151269 443.28906,-39.898438 395.61451,-59.645606 344.03214,-69.906632 292.42969,-69.90625 Z m -2.0918,49.320312 c 21.90286,-0.06142 54.79634,3.598384 43.30078,2.583985 21.7063,2.532222 54.04712,10.1064378 42.65039,7.708984 21.20422,5.0859906 52.42223,16.4737558 41.36133,12.7207034 20.38233,7.5584065 50.01655,22.6084346 39.44922,17.5410156 19.26545,9.918782 46.81887,28.403646 36.94336,22.099609 17.85534,12.120002 42.94021,33.803343 33.88281,26.328125 16.19651,14.152605 38.35771,38.653826 30.3125,30.160157 14.29612,15.975159 33.18997,42.912669 26.28516,33.539059 12.17983,17.56016 27.52883,46.53498 21.86133,36.41602 9.88166,18.89793 21.4345,49.39785 17.10742,38.74219 7.43226,19.96316 15.02716,51.49766 12.0957,40.49023 4.86039,20.72457 8.41025,52.81941 6.89844,41.62305 2.21063,21.1911 1.6844,53.30539 1.59765,42.13281 -0.47975,21.32464 -5.03791,53.02002 -3.72656,42.00391 -3.17012,21.13283 -11.66132,51.9495 -8.99219,41.24414 -5.82358,20.62101 -18.10177,50.10681 -14.12695,39.86328 -8.38687,19.78766 -24.25515,47.52773 -19.04297,37.8789 -10.8298,18.65813 -30.03304,44.24277 -23.67578,35.33008 -13.10334,17.23264 -35.36462,40.31694 -27.94726,32.24414 -15.1751,15.5456 -40.18261,35.81113 -31.79883,28.67774 -17.01218,13.62072 -44.40437,30.77467 -35.17188,24.68164 -18.59056,11.48634 -47.96758,25.27507 -38.01367,20.3125 -19.87876,9.18272 -50.84654,19.39966 -40.28711,15.64062 -20.84579,6.7425 -53.01809,13.23553 -41.95117,10.73438 -21.51997,4.21319 -54.33629,6.83812 -42.99023,5.66797 -21.85662,1.62791 -54.8692,0.32875 -43.37891,0.51758 -21.86988,-0.98142 -54.57428,-6.20708 -43.11914,-4.64258 -21.55031,-3.56398 -53.47544,-12.67072 -42.21094,-9.73242 -20.91383,-6.08669 -51.54523,-18.95951 -40.66797,-14.67579 C 127.01571,628.73382 98.140534,612.26196 108.4668,617.8457 89.729249,607.02955 63.114713,587.22852 72.681641,594.01172 55.461371,581.05902 31.489457,558.19636 40.167969,566.10156 24.700279,551.18952 3.8214515,525.67977 11.414062,534.53125 -2.0585845,517.89136 -19.565891,490.08951 -13.144531,499.7793 -24.422199,481.65392 -38.28455,452.00211 -33.140625,462.36523 c -8.915025,-19.35138 -18.910157,-50.35984 -15.128906,-39.51367 -6.415894,-20.30719 -12.398982,-52.11684 -10.035157,-41.01758 -3.808445,-20.94756 -5.724914,-53.11952 -4.785156,-41.90429 -1.140969,-21.27461 1.010148,-53.31425 0.533203,-42.15625 1.556926,-21.2873 7.70612,-52.6929 5.84375,-41.77735 4.237461,-20.95692 14.274408,-51.32867 11.066407,-40.76367 6.856363,-20.3132 20.619525,-49.20142 16.123046,-39.14062 9.381734,-19.36855 26.6225803,-46.30895 20.9355474,-36.92774 C 3.1766249,121.0421 23.627463,96.424056 16.841797,105.00781 30.798474,88.422886 54.210209,66.416228 46.384766,74.134766 62.327371,59.332471 88.325772,40.283001 79.59375,47.007812 c 17.676892,-12.78941 45.91219,-28.62621 36.375,-22.974609 19.13984,-10.583119 49.21733,-22.9712478 38.99414,-18.4765624 20.3063,-8.2216305 51.80151,-16.9634536 41.02734,-13.7011718 21.16442,-5.7433478 53.60575,-10.6928068 42.44336,-8.7246098 21.68792,-3.180058 54.67112,-4.24502 43.22266,-3.613281 1.44726,0.008 7.23502,-0.06099 8.68164,-0.103516 z m 275.31445,629.103518 88.22852,88.625 -21.11719,19.97265 -90.55859,-88.45703 c 11.51214,-6.99378 16.94887,-12.176 23.44726,-20.14062 z" />
    <g
       id="g22805"
       transform="matrix(1.5600674,0.12376282,-0.13171301,1.523512,-121.85388,-327.94537)"
       style="stroke-width:0.64643">
      <path
         id="path1361"
         style="fill:#ffffff;fill-rule:evenodd;stroke-width:0.265683;paint-order:stroke fill markers"
         d="m 282.50464,151.02896 a 71.418385,66.977279 0 0 0 -71.41873,66.9773 71.418385,66.977279 0 0 0 71.41873,66.97746 71.418385,66.977279 0 0 0 71.41723,-66.97746 71.418385,66.977279 0 0 0 -71.41723,-66.9773 z m 0,24.18358 a 48.390377,42.794085 0 0 1 48.38997,42.79372 48.390377,42.794085 0 0 1 -48.38997,42.79384 48.390377,42.794085 0 0 1 -48.39152,-42.79384 48.390377,42.794085 0 0 1 48.39152,-42.79372 z" />
      <path
         id="path1361-0-5"
         style="fill:#ffffff;fill-rule:evenodd;stroke-width:0.265683;paint-order:stroke fill markers"
         d="m 289.22209,315.88394 c -58.38268,0 -101.03114,31.2118 -139.72333,65.50801 -31.36274,27.79949 -58.161044,62.33441 -67.467531,107.09156 l 29.493121,30.27794 c 7.59822,-65.56811 95.87703,-170.38841 179.6679,-170.38841 88.95952,0 166.55777,90.42796 167.39056,159.47354 l 37.17226,-22.30882 c -1.18419,-25.58509 -32.91012,-85.84321 -65.96658,-114.46792 -38.35405,-33.21207 -62.98483,-55.1859 -140.5664,-55.1859 z"
         sodipodi:nodetypes="saccsccas" />
      <g
         id="g10706"
         style="stroke-width:0.64643">
        <path
           id="path10458"
           style="fill:#ffffff;fill-rule:evenodd;stroke-width:0.519217;paint-order:stroke fill markers"
           inkscape:transform-center-x="-2.2462825"
           inkscape:transform-center-y="-18.139048"
           transform="matrix(0.45147069,0.01065422,-0.00829662,0.57976294,-100.12498,-371.79601)"
           d="m 760.98719,1042.2586 477.87551,275.7145 -184.6001,-107.8752 -78.81975,549.8705 299.48375,-335.7985 -770.10663,88.7723 411.90891,181.0585 -213.22218,-483.9099 -188.05431,193.7499 463.823,-378.0677 z"
           sodipodi:nodetypes="ccccccccccc" />
      </g>
    </g>
  </g>
</svg>
