<?xml version="1.0" encoding="UTF-8" standalone="no"?>
<!-- Created with Inkscape (http://www.inkscape.org/) -->

<svg
   width="42.310326mm"
   height="47.844841mm"
   inkscape:version="1.1.2 (0a00cf5339, 2022-02-04)"
   sodipodi:docname="logov2.svg"
   version="0.0"
   id="svg35197"
   xmlns:inkscape="http://www.inkscape.org/namespaces/inkscape"
   xmlns:sodipodi="http://sodipodi.sourceforge.net/DTD/sodipodi-0.dtd"
   xmlns="http://www.w3.org/2000/svg"
   xmlns:svg="http://www.w3.org/2000/svg">
  <defs
     id="defs35180" />
  <sodipodi:namedview
     inkscape:zoom="1.4142136"
     inkscape:cx="58.336308"
     inkscape:cy="101.11627"
     inkscape:window-width="1920"
     inkscape:window-height="1022"
     inkscape:window-x="0"
     inkscape:window-y="0"
     inkscape:window-maximized="1"
     id="namedview35186"
     pagecolor="#ffffff"
     bordercolor="#666666"
     borderopacity="1.0"
     inkscape:pageshadow="2"
     inkscape:pageopacity="0.0"
     inkscape:pagecheckerboard="0"
     inkscape:document-units="mm"
     showgrid="false"
     inkscape:current-layer="svg35197">
    <sodipodi:guide
       position="179.94702,205.6644"
       orientation="0,159.91304"
       id="guide34953" />
    <sodipodi:guide
       position="339.86006,205.6644"
       orientation="180.8309,0"
       id="guide34955" />
    <sodipodi:guide
       position="339.86006,24.833498"
       orientation="0,-159.91304"
       id="guide34957" />
    <sodipodi:guide
       position="179.94702,24.833498"
       orientation="-180.8309,0"
       id="guide34959" />
  </sodipodi:namedview>
  <ellipse
     style="fill:#6699ff;fill-rule:evenodd;stroke-width:0.411001;paint-order:stroke fill markers"
     id="path31408"
     cx="65.315071"
     cy="66.396881"
     rx="54.625702"
     ry="53.417706" />
  <path
     id="path18489-7"
     style="fill:#003399;fill-rule:evenodd;stroke-width:1.52082;paint-order:stroke fill markers"
     d="M 66.229,4.285717 A 61.374234,62.498894 0 0 0 4.85471,66.784354 61.374234,62.498894 0 0 0 66.229,129.28351 61.374234,62.498894 0 0 0 101.805,117.70636 l 5.30263,12.45937 c 0,0 19.8029,42.8908 48.61109,49.42816 7.43769,1.68782 8.29774,-2.41088 8.8494,-6.01221 3.63827,-23.75049 -43.65992,-56.31564 -43.65992,-56.31564 l -10.71742,-6.87682 A 61.374234,62.498894 0 0 0 127.60328,66.784354 61.374234,62.498894 0 0 0 66.229,4.285717 Z m 0,10.846522 A 50.722507,51.65198 0 0 1 116.9515,66.784354 50.722507,51.65198 0 0 1 66.229,118.43646 50.722507,51.65198 0 0 1 15.50648,66.784354 50.722507,51.65198 0 0 1 66.229,15.132239 Z" />
  <path
     style="fill:#404040;fill-opacity:1;stroke-width:0.264583"
     d="M 40.11175,41.059295 C 37.43407,37.999756 38.51559,28.197465 38.34441,25.269262 37.97646,18.974087 38.19966,12.637417 42.05352,8.487697 46.95075,3.214517 46.12457,8.075475 58.229,7.132239 c 7.67885,-7.217234 19.20839,-13.617445 29.112887,0.06257 -3.227957,11.063877 4.119191,6.0777 0.485707,24.173668 -0.597863,6.717849 -0.762367,7.384473 -2.269855,9.197987 -0.676302,0.813594 -2.378149,-2.8124 -2.635879,0.209799 -0.0312,0.365416 0.25843,-2.906809 0.25773,-3.022199 -1.22346,-4.962309 -2.45286,-9.388336 -3.58103,-14.757364 -0.16292,-0.725711 0.46051,0.525571 0.23807,1.106141 -0.22798,0.59512 -0.23765,0.592998 -0.25732,-0.05647 -12.8083,9.082596 -24.46002,12.35863 -33.76076,5.470988 -1.06001,-0.009 -1.52561,1.200939 -2.3289,6.052226 -0.43688,2.638456 -0.95148,4.998639 -1.14357,5.244853 -0.33787,0.433092 -1.50086,0.560534 -2.23433,0.244844 z"
     id="path2091" />
  <path
     d="m 120.25866,59.069544 c -0.96407,-0.538778 -1.77058,-0.677587 -3.93699,-0.677587 -2.89967,0 -2.88939,0.0043 -4.87374,-2.063123 -0.67054,-0.698635 -1.04204,-1.394788 -1.04503,-1.95829 -0.007,-1.307046 -0.26302,-1.564303 -2.82682,-2.839794 -2.43567,-1.211738 -3.05874,-1.983938 -2.62773,-3.256618 0.39217,-1.157917 1.56705,-1.329508 3.4547,-0.504555 0.93189,0.407267 1.88967,0.659786 2.12838,0.561152 0.26254,-0.108479 0.51017,-0.864325 0.62675,-1.913065 0.15403,-1.385821 0.0372,-2.220039 -0.58207,-4.15716 -0.97446,-3.047987 -0.97091,-3.727513 0.0239,-4.570079 1.71281,-1.450742 2.79671,-0.619853 3.7744,2.893372 0.40226,1.445485 0.80625,2.628892 0.89776,2.629789 0.0915,0.0011 0.47612,-1.477335 0.85471,-3.284966 0.42391,-2.023996 0.91311,-3.528615 1.27341,-3.916577 0.67985,-0.732033 2.04329,-0.822542 2.84788,-0.18905 0.70113,0.55204 0.67892,1.538817 -0.11456,5.089401 -0.33876,1.515845 -0.55738,2.819114 -0.48584,2.896153 0.42456,0.457144 1.03926,-0.510114 1.77968,-2.800353 1.06567,-3.296354 1.51724,-3.994221 2.58446,-3.994221 0.96826,0 2.15744,1.191503 2.15744,2.16164 0,0.357968 -0.40777,1.853933 -0.90615,3.324374 -0.49839,1.470437 -0.8162,2.673522 -0.70627,2.673522 0.10998,0 1.12868,-0.965526 2.26388,-2.145613 2.17859,-2.264711 2.67808,-2.414674 3.97098,-1.192201 1.09007,1.030689 0.68074,2.261346 -1.59133,4.784431 -1.61818,1.79696 -2.12558,2.582717 -2.13779,3.310623 -0.0299,1.785255 -1.09118,6.934097 -1.60232,7.77408 -1.07588,1.768062 -3.39244,2.375831 -5.20168,1.364715 z"
     style="fill:#cbcbcb;fill-opacity:1;stroke-width:0.0700042"
     id="path19892" />
  <path
     style="fill:#404040;fill-opacity:1;stroke-width:0.269457"
     d="m 66.54928,118.78813 c -0.002,-0.4091 -0.30982,-6.0421 -0.68348,-12.51777 -0.8021,-13.901394 -0.78623,-13.229154 -0.31231,-13.229154 0.2047,0 0.68208,-0.66037 1.06082,-1.46749 0.67072,-1.4293 2.05724,-0.0896 2.2138,0.66508 0.1777,0.85665 5.05799,7.04832 7.6319,9.117914 1.49174,-4.032314 -6.63379,-18.038634 -7.38455,-22.752654 -0.26759,-1.77454 7.62805,8.23279 12.66228,10.90252 2.5685,1.36212 4.942948,1.31361 9.650689,-0.19719 5.618839,-1.80318 10.412171,-5.22442 12.564801,-8.96815 1.35922,-2.36387 2.78181,-6.601843 3.67292,-10.941803 0.66398,-3.23379 0.70578,-3.73517 0.3739,-4.48541 -0.74039,-1.67376 -0.14265,-4.08577 1.46772,-5.92253 4.2562,-4.16002 12.70633,-3.29537 14.8716,1.75543 1.1837,2.2801 1.2168,5.12636 0.12153,10.44743 -8.46748,23.016733 -31.831444,49.504807 -56.60403,48.164647 -1.2878,0.17078 -1.30355,0.16391 -1.30762,-0.57095 z M 53.296,118.70643 c -6.89028,-1.4002 -14.15083,-4.72298 -19.17892,-8.7772 -1.66515,-1.39242 -0.22188,-3.22359 -0.21973,-5.19073 0.75997,-7.611534 12.25897,-24.270814 20.52526,-26.142744 1.02311,-0.19729 -7.01091,8.42062 -7.53692,14.65401 -0.70164,4.1873 -0.39846,9.095734 2.62498,5.40573 10.4721,-11.27211 3.46349,-4.16614 9.03014,-5.63834 0.41782,0.22545 0.40502,1.12592 -0.17213,12.106204 -0.34294,6.52446 -0.69327,12.36868 -0.7785,12.98714 -0.14573,1.05742 -0.2063,1.12337 -1.01568,1.10586 -0.4734,-0.0102 -1.94872,-0.23971 -3.2785,-0.50994 z"
     id="path28722"
     sodipodi:nodetypes="ccsssccsssssccccccsccccccsscss" />
  <path
     id="path28725"
     style="fill:#bfbfbf;fill-opacity:1;stroke-width:0.264583"
     d="m 61.3417,46.623611 c 1.78613,1.923214 1.66869,0.550327 2.1702,3.026836 -1.87536,5.739773 -4.96427,-4.505981 -2.1702,-3.026836 z M 79.44072,22.785212 c -11.24503,4.869098 -18.67178,13.015259 -33.69281,6.155476 -1.97309,3.281842 -2.06277,5.50738 -3.785,10.060069 -4.20275,4.439454 -8.39108,-8.263802 -12.42509,1.827797 -0.65098,9.720567 6.64649,6.622445 10.15081,9.34775 1.73615,9.436526 7.22039,15.805813 14.4632,20.109365 3.31058,1.933657 7.5249,2.105192 11.35072,1.856219 C 79.7233,69.121564 84.28957,58.402974 86.357094,49.533449 92.727462,48.969201 96.993818,39.244581 90.172364,36.928016 78.93583,41.121416 86.295848,31.427091 79.44072,22.785212 Z m -28.52384,24.27397 c -1.1489,0.470342 -1.31122,0.418597 -2.41122,-0.765847 -1.12205,-1.20822 -1.5408,-2.821567 -1.21595,-4.686017 2.98886,-8.758211 8.07889,3.257226 3.62717,5.451864 z m 23.17895,-0.521417 c -1.06837,0.967989 -1.68489,1.04521 -2.63292,0.330213 -1.57422,-1.187286 -2.1619,-4.516035 -1.16375,-6.59443 4.21914,-5.358649 6.35639,3.76008 3.79667,6.264217 z M 34.65634,41.413634 c 2.05512,-0.105895 1.61336,1.473381 2.47518,3.291828 -3.24295,1.473201 -8.56316,-2.927747 -2.47518,-3.291828 z m 55.505174,-0.42075 c 1.137007,3.461466 -2.968786,7.736133 -4.209012,2.85784 0,-1.698686 1.413094,-2.283223 3.849861,-2.829934 0.124231,-0.02845 0.252561,-0.02403 0.359151,-0.02791 z M 61.75881,57.791327 c 3.86277,0.0033 8.9742,-1.63682 3.18564,3.913471 -2.32416,1.211482 -5.43173,0.635627 -7.09724,-1.315164 -0.96169,-1.126384 -1.64927,-3.083121 -1.42369,-4.050917 0.3353,-1.438431 0.84397,1.45261 5.33529,1.45261 z m 0.33258,14.481818 c -3.44561,-0.0028 -6.92551,2.609251 -7.18922,2.718181 -0.79306,0.36841 -0.38646,2.72997 -0.47956,3.60443 l 0.26665,-0.0935 c -2.24629,1.14965 -4.26881,2.87409 -5.51853,4.98987 -2.84595,4.81821 -3.39319,10.64151 -2.53059,16.595894 l -0.16795,1.95854 7.38766,-7.914774 c 4.06309,-4.35311 7.52375,-7.91476 7.69049,-7.91476 0.16674,0 3.64325,3.59842 7.72511,7.99641 4.08189,4.39798 7.42827,7.995904 7.43727,7.995904 0.009,0 1.60568,-3.481564 1.40048,-6.219104 -0.21952,-3.06559 -2.16828,-9.08134 -4.74601,-13.30891 -1.0173,-1.6684 -2.5538,-3.09355 -4.29173,-4.07727 -0.054,-0.95676 -0.67748,-3.01636 -0.67748,-3.01636 0,0 -0.48816,-3.30952 -6.30659,-3.314521 z" />
  <path
     style="fill:#000000;fill-rule:evenodd;stroke-width:1.55339;paint-order:stroke fill markers"
     d="m 48.37091,45.57268 c -1.31283,-1.874327 -1.24068,-3.824369 0.20766,-5.612998 1.01232,-1.250168 1.34181,-1.346002 2.19455,-0.638298 2.19633,1.822796 1.79324,7.655453 -0.52907,7.655453 -0.48929,0 -1.33221,-0.631871 -1.87314,-1.404157 z"
     id="path34279" />
  <path
     style="fill:#000000;fill-rule:evenodd;stroke-width:1.55339;paint-order:stroke fill markers"
     d="m 71.11535,45.57268 c -1.35049,-1.928103 -1.23295,-4.492164 0.26822,-5.850703 1.80777,-1.636008 3.1708,-0.303742 3.1708,3.099226 0,3.930714 -1.67461,5.270527 -3.43902,2.751477 z"
     id="path34318" />
</svg>
