<?xml version="1.0" encoding="UTF-8" standalone="no"?>
<!-- Created with Inkscape (http://www.inkscape.org/) -->

<svg
   width="1024mm"
   height="1024mm"
   viewBox="0 0 1024 1024"
   version="1.1"
   id="svg5"
   sodipodi:docname="logov3.svg.2023_12_22_19_46_44.0.svg"
   inkscape:version="1.1.2 (0a00cf5339, 2022-02-04)"
   xmlns:inkscape="http://www.inkscape.org/namespaces/inkscape"
   xmlns:sodipodi="http://sodipodi.sourceforge.net/DTD/sodipodi-0.dtd"
   xmlns="http://www.w3.org/2000/svg"
   xmlns:svg="http://www.w3.org/2000/svg">
  <sodipodi:namedview
     id="namedview7"
     pagecolor="#ffffff"
     bordercolor="#666666"
     borderopacity="1.0"
     inkscape:pageshadow="2"
     inkscape:pageopacity="0.0"
     inkscape:pagecheckerboard="0"
     inkscape:document-units="mm"
     showgrid="false"
     inkscape:zoom="0.1026287"
     inkscape:cx="2830.5922"
     inkscape:cy="3147.2678"
     inkscape:window-width="1920"
     inkscape:window-height="1022"
     inkscape:window-x="0"
     inkscape:window-y="0"
     inkscape:window-maximized="1"
     inkscape:current-layer="layer1"
     inkscape:snap-nodes="false"
     inkscape:snap-global="false"
     showguides="false" />
  <defs
     id="defs2" />
  <g
     inkscape:label="Layer 1"
     inkscape:groupmode="layer"
     id="layer1"
     transform="translate(216.72139,169.39423)">
    <rect
       style="fill:#512dab;fill-opacity:1;fill-rule:evenodd;stroke-width:0.411;paint-order:stroke fill markers"
       id="rect9472"
       width="1024"
       height="1024"
       x="-217.24553"
       y="-169.39423"
       rx="0"
       ry="0"
       inkscape:export-filename="/home/dpk/Documents/project/connect/assets/design/logov4_bg.png"
       inkscape:export-xdpi="96"
       inkscape:export-ydpi="96" />
    <g
       id="g2310"
       inkscape:export-filename="/home/dpk/Documents/project/connect/assets/design/v4-front.png"
       inkscape:export-xdpi="96"
       inkscape:export-ydpi="96"
       style="fill:#ffffff;fill-opacity:1"
       transform="matrix(1,-0.08503655,0,1,-25.266233,17.363788)">
      <path
         id="path846-8"
         style="fill:#ffffff;fill-opacity:1;fill-rule:evenodd;stroke-width:0.536331;paint-order:stroke fill markers"
         sodipodi:type="inkscape:offset"
         inkscape:radius="-2.1617732"
         inkscape:original="M 292.42969 -65.785156 A 390.09086 390.09086 0 0 0 -97.658203 324.30664 A 390.09086 390.09086 0 0 0 292.42969 714.39648 A 390.09086 390.09086 0 0 0 500.81836 653.84375 L 627.88477 780.9082 L 715.98438 692.80664 L 593.96289 570.7832 A 390.09086 390.09086 0 0 0 682.52344 324.30664 A 390.09086 390.09086 0 0 0 292.42969 -65.785156 z M 290.33789 -16.464844 A 349.73409 339.52705 0 0 1 640.07031 323.0625 A 349.73409 339.52705 0 0 1 290.33789 662.58984 A 349.73409 339.52705 0 0 1 -59.396484 323.0625 A 349.73409 339.52705 0 0 1 290.33789 -16.464844 z M 565.36133 602.38672 L 659.7832 697.23242 L 632.7168 722.83008 L 535.55273 627.91992 C 552.68209 618.14908 556.12514 613.99687 565.36133 602.38672 z "
         d="M 292.42969,-63.623047 C 241.65006,-63.622661 190.8907,-53.526569 143.97656,-34.09375 97.062424,-14.660931 54.029488,14.093199 18.123047,50 c -35.906442,35.906801 -64.657494,78.93918 -84.089844,125.85352 -19.432349,46.91433 -29.529419,97.67349 -29.529297,148.45312 1.33e-4,50.77947 10.096833,101.53902 29.529297,148.45313 19.432464,46.91411 48.18538,89.94496 84.091797,125.85156 35.906417,35.90659 78.937549,64.66105 125.85156,84.09375 46.91402,19.4327 97.67366,29.52891 148.45313,29.5293 72.89589,-0.0675 145.65196,-21.20831 207.23242,-60.2168 a 2.1619894,2.1619894 0 0 1 2.68555,0.29687 L 627.88477,777.84961 712.92773,692.80664 592.43359,572.3125 a 2.1619894,2.1619894 0 0 1 -0.14257,-2.90039 c 28.08569,-34.2182 50.25172,-73.28257 65.2207,-114.94336 14.96832,-41.65895 22.73397,-85.89581 22.84961,-130.16211 v -0.002 C 680.36119,273.52522 670.26449,222.76567 650.83203,175.85156 631.39932,128.93685 602.64534,85.904921 566.73828,49.998047 530.83123,14.091173 487.79957,-14.663227 440.88477,-34.095703 393.96996,-53.52818 343.2098,-63.623423 292.42969,-63.623047 Z m -2.0918,49.320313 c 17.06357,0.08679 67.90949,5.9992818 51.00781,3.652343 16.85663,2.5151633 66.2778,15.6099233 49.9043,10.87890662 16.28464,4.88733718 63.20547,24.88181538 47.7168,17.86914038 15.36291,7.150301 58.76024,33.620477 44.49609,24.472656 14.10928,9.260488 53.03806,41.629168 40.3125,30.542969 12.55886,11.163736 46.17264,48.727029 35.25781,35.951169 10.73408,12.8337 38.30745,54.77078 29.44141,40.58203 8.67891,14.22704 29.60926,59.62685 22.98633,44.33399 6.43739,15.31331 20.27281,63.18482 16.03515,47.12305 4.05606,16.07324 10.50445,65.38135 8.74024,48.89843 1.58114,16.48605 0.50493,66.15619 1.2539,49.61133 -0.92675,16.54336 -9.49629,65.5036 -6.25781,49.25391 -3.41857,16.24179 -19.29187,63.43383 -13.63476,47.83008 -5.83807,15.58861 -28.66561,60.00017 -20.7168,45.375 -8.13707,14.59237 -37.42663,55.26323 -27.35352,41.93359 -10.25552,13.28006 -45.37333,49.33885 -33.39648,37.58789 -12.15467,11.67398 -52.34808,42.3392 -38.7207,32.42383 -13.78517,9.81784 -58.18634,34.43514 -43.20508,26.5625 -15.11588,7.74564 -62.77182,25.77336 -46.75586,20.11914 -16.11548,5.50865 -65.99622,16.55852 -49.29102,13.24414 -16.76673,3.14882 -67.79986,6.97653 -50.76367,6.07812 -17.05067,0.72563 -68.12751,-2.75756 -51.13086,-1.21875 -16.96601,-1.70849 -66.98197,-12.43243 -50.39258,-8.48828 -16.51535,-4.10629 -64.38541,-21.8469 -48.56445,-15.57617 C 141.59693,628.33125 96.91602,603.96101 111.625,612.41602 97.061776,603.84049 56.544102,573.36683 69.816406,583.83008 56.707207,573.27707 21.230819,537.36022 32.78125,549.59961 21.412633,537.29245 -8.2497436,496.71907 1.3242188,510.46875 -8.0614335,496.67332 -31.262414,452.32203 -23.875,467.2832 c -7.202644,-14.98741 -23.440773,-62.15217 -18.398438,-46.30664 -4.863055,-15.85724 -13.795444,-64.8039 -11.201171,-48.42187 -2.411969,-16.38762 -3.846793,-66.05629 -3.759766,-49.49219 0.08703,-16.5641 6.171735,-65.87981 3.759766,-49.49219 2.594272,-16.38203 16.064227,-64.27911 11.201171,-48.42187 C -37.231102,209.3029 -16.672356,163.85438 -23.875,178.8418 -16.487586,163.88062 10.709871,121.86082 1.3242188,135.65625 10.898181,121.90657 44.149867,84.218229 32.78125,96.525391 44.331681,84.285998 82.925605,51.741919 69.816406,62.294922 83.08871,51.831669 126.18822,25.133456 111.625,33.708984 c 14.70898,-8.455006 61.39135,-28.7292949 45.68164,-22.322265 15.82097,-6.2707345 65.0798,-19.6824662 48.56445,-15.5761721 16.5894,-3.944158 67.35859,-10.1967769 50.39258,-8.4882809 29.74813,-1.81739 9.00077,-1.368262 34.07422,-1.625 z m 274.9043,614.531254 a 2.1619894,2.1619894 0 0 1 1.65039,0.63281 l 94.42187,94.8457 a 2.1619894,2.1619894 0 0 1 -0.0449,3.0957 l -27.06641,25.59766 a 2.1619894,2.1619894 0 0 1 -2.99609,-0.0234 L 534.04297,629.4668 a 2.1619894,2.1619894 0 0 1 0.43945,-3.42383 c 17.0087,-9.70201 19.95793,-13.40012 29.1875,-25.00195 a 2.1619894,2.1619894 0 0 1 1.57227,-0.8125 z"
         transform="matrix(0.99042626,0.18691462,0.24887576,0.57643445,-71.796884,253.93168)"
         inkscape:transform-center-x="317.10016"
         inkscape:transform-center-y="346.51676" />
      <g
         id="g22805"
         transform="matrix(1.6929659,0.1340451,-0.30790694,1.6842384,-40.399308,-338.2927)"
         style="fill:#ffffff;fill-opacity:1;stroke-width:0.587968">
        <g
           id="g3339"
           transform="matrix(0.86560932,-0.11794148,0.00266137,0.90708936,34.49137,57.895121)"
           style="stroke-width:0.663409">
          <path
             id="path1361"
             style="fill:#ffffff;fill-opacity:1;fill-rule:evenodd;stroke-width:0.272662;paint-order:stroke fill markers"
             d="m 282.50464,151.02896 a 71.418385,66.977279 0 0 0 -71.41873,66.9773 71.418385,66.977279 0 0 0 71.41873,66.97746 71.418385,66.977279 0 0 0 71.41723,-66.97746 71.418385,66.977279 0 0 0 -71.41723,-66.9773 z m 0,24.18358 a 48.390377,42.794085 0 0 1 48.38997,42.79372 48.390377,42.794085 0 0 1 -48.38997,42.79384 48.390377,42.794085 0 0 1 -48.39152,-42.79384 48.390377,42.794085 0 0 1 48.39152,-42.79372 z" />
          <path
             id="path1361-0-5"
             style="fill:#ffffff;fill-opacity:1;fill-rule:evenodd;stroke-width:0.272662;paint-order:stroke fill markers"
             d="m 275.13119,311.62444 c -58.38268,0 -91.61591,37.75334 -125.63243,69.76751 -30.59572,28.79474 -58.161044,62.33441 -67.467531,107.09156 l 29.493121,30.27794 c 7.59822,-65.56811 95.87703,-170.38841 179.6679,-170.38841 88.95952,0 166.55777,90.42796 167.39056,159.47354 l 37.17226,-22.30882 C 494.57088,459.95267 456.42846,398.4431 419.08718,367.86968 377.17213,333.55145 352.71276,311.62444 275.13119,311.62444 Z"
             sodipodi:nodetypes="saccsccas" />
          <g
             id="g10706"
             style="fill:#ffffff;fill-opacity:1;stroke-width:0.663409">
            <path
               id="path10458"
               style="fill:#ffffff;fill-opacity:1;fill-rule:evenodd;stroke-width:0.532855;paint-order:stroke fill markers"
               inkscape:transform-center-x="-2.2462825"
               inkscape:transform-center-y="-18.139048"
               transform="matrix(0.45147069,0.01065422,-0.00829662,0.57976294,-100.12498,-371.79601)"
               d="m 760.98719,1042.2586 477.87551,275.7145 -184.6001,-107.8752 -78.81975,549.8705 299.48375,-335.7985 -770.10663,88.7723 411.90891,181.0585 -213.22218,-483.9099 -188.05431,193.7499 463.823,-378.0677 z"
               sodipodi:nodetypes="ccccccccccc" />
          </g>
        </g>
      </g>
    </g>
  </g>
</svg>
