<?xml version="1.0" encoding="UTF-8" standalone="no"?>
<!-- Created with Inkscape (http://www.inkscape.org/) -->

<svg
   width="839.28394"
   height="1024"
   viewBox="0 0 839.28393 1024"
   version="1.1"
   id="svg5"
   sodipodi:docname="logo.svg"
   inkscape:version="1.1.2 (0a00cf5339, 2022-02-04)"
   xmlns:inkscape="http://www.inkscape.org/namespaces/inkscape"
   xmlns:sodipodi="http://sodipodi.sourceforge.net/DTD/sodipodi-0.dtd"
   xmlns="http://www.w3.org/2000/svg"
   xmlns:svg="http://www.w3.org/2000/svg">
  <defs
     id="defs5120" />
  <sodipodi:namedview
     id="namedview5118"
     pagecolor="#ffffff"
     bordercolor="#666666"
     borderopacity="1.0"
     inkscape:pageshadow="2"
     inkscape:pageopacity="0.0"
     inkscape:pagecheckerboard="0"
     showgrid="false"
     inkscape:zoom="1.0068106"
     inkscape:cx="419.64197"
     inkscape:cy="511.51624"
     inkscape:window-width="1920"
     inkscape:window-height="1022"
     inkscape:window-x="0"
     inkscape:window-y="0"
     inkscape:window-maximized="1"
     inkscape:current-layer="svg5" />
  <path
     style="fill:#ffffff;fill-opacity:1;stroke-width:2.78844"
     d="M 672.94059,0.01076645 C 653.79239,0.40015012 634.64234,2.0117108 615.7896,5.445831 c -4.7988,0.8741405 -10.11017,1.9638917 -15.06392,3.134449 -13.517,3.151586 -27.12951,7.397372 -39.81985,12.461589 -4.90411,1.966025 -9.33004,3.863816 -14.13247,6.125162 -22.43343,10.429251 -43.16444,24.861254 -61.89628,40.606021 -21.72897,18.387392 -41.90903,38.628998 -60.1455,60.487348 -8.75633,10.57534 -17.22594,21.83356 -24.87957,32.96469 -12.08397,17.57299 -23.16332,36.45955 -32.56898,55.85691 -15.92943,31.97099 -32.39183,63.67915 -48.05448,95.78289 -7.5003,13.58916 -21.39979,24.29218 -37.18799,25.44484 -11.56893,0.0463 -23.45307,-0.12799 -34.83098,0.23311 -16.0443,0.50125 -32.48594,1.67376 -48.54767,4.32819 -8.79163,1.43089 -17.5286,3.19991 -26.18698,5.28929 -2.85694,0.72898 -6.33844,1.71268 -9.3704,2.76466 -7.78009,2.55293 -15.02184,6.52132 -21.54219,11.45447 -1.16544,0.88137 -3.08729,2.23229 -4.51237,3.35924 -16.53577,12.62018 -31.3095,28.15978 -40.723957,46.85994 -10.565126,21.89984 -10.671954,48.97581 1.144876,70.40881 5.586351,10.13184 16.335681,17.78594 28.142031,17.84389 20.66431,1.03464 40.88464,-6.94122 57.40575,-18.94574 6.52272,-4.59845 12.49693,-9.95622 17.7815,-15.92937 7.88733,-7.45607 20.32286,-8.95433 30.06116,-4.44703 11.71294,3.93307 22.24057,12.28228 27.24853,23.76006 3.1274,6.82402 4.05342,14.4503 3.70168,21.88448 0.91099,7.27167 1.39812,14.7699 -0.58,21.91479 -7.62624,47.0522 -25.26705,91.59489 -41.39297,136.20308 -10.70093,26.90075 -20.81957,54.414 -37.02472,78.6099 -17.47522,22.62835 -41.03505,39.62338 -64.29585,55.63693 -20.050772,14.2015 -41.751515,25.85321 -62.072429,39.64 -18.548216,12.82285 -35.66688,28.69843 -46.381386,48.7901 -7.2940915,13.36175 -10.55458934,28.71663 -10.00476426,43.88881 0.65377821,14.41274 2.29890346,28.8394 5.65521216,42.88635 0.9884749,4.31805 2.2925458,8.62085 4.9587991,12.23084 6.889627,10.12361 17.081971,17.38267 27.301553,23.83627 18.000037,11.507 40.283707,15.2007 61.266793,12.1845 21.184162,-3.4035 42.382772,-6.3019 63.488632,-9.95 13.7292,-2.4957 27.3417,-6.4363 39.52864,-13.37636 22.11288,-11.95996 41.17013,-28.88104 57.60418,-47.77451 10.87439,-12.38534 20.96289,-25.84667 30.05042,-39.35209 17.62544,-25.99035 32.54447,-54.24881 45.04403,-83.22434 6.31303,-14.68894 11.99972,-29.37723 17.29297,-44.71949 1.62365,-4.57647 3.12384,-9.20886 4.71099,-13.97132 7.73372,-23.53644 13.87983,-47.54415 20.16144,-71.49647 10.90033,-42.0143 21.36828,-84.35371 33.69762,-126.05929 2.13222,-7.42256 4.22034,-15.15304 9.24651,-21.22549 11.12296,-14.62853 31.29265,-21.87647 49.10202,-16.92777 13.41431,3.12035 24.2312,12.71926 32.37122,23.43795 7.26665,8.8794 14.22047,18.51001 17.01137,29.82939 5.2638,18.30986 3.27998,37.5517 2.15803,56.27266 -0.62572,9.8761 -1.04432,19.78199 -0.63426,29.67644 0.10233,1.95342 0.24092,4.70216 0.45661,6.95658 0.99304,11.91575 4.09324,23.51221 6.65746,35.15459 2.08455,8.84032 4.46131,17.63565 7.76763,26.10663 0.55578,1.44583 1.49332,3.66153 2.24544,5.38861 3.7654,9.09601 9.98667,17.1468 18.01253,22.87624 7.69981,5.71215 16.80709,9.20852 26.11649,11.25427 10.05667,2.86529 20.32309,5.39775 30.8188,7.01976 14.05497,2.26073 28.82875,2.09072 42.94388,-0.92903 34.7675,-6.79888 65.41487,-29.82947 83.52204,-60.02646 5.86759,-9.78821 10.17804,-20.53468 12.40266,-31.74 0.25876,-1.33293 0.69284,-3.52392 0.94294,-5.21389 0.3441,-2.18413 0.63047,-4.37822 0.85477,-6.81063 0.65246,-7.03605 0.63303,-14.13013 -0.0167,-21.16561 -0.0862,-0.92446 -0.2937,-2.89837 -0.47133,-4.20665 -1.59883,-12.6201 -5.43952,-24.88186 -10.8324,-36.38193 -13.39353,-31.73439 -21.1181,-65.78688 -23.20439,-100.15167 -2.91983,-44.66388 0.83082,-89.59725 9.20814,-133.51255 2.96596,-16.02626 6.75511,-31.88388 10.66671,-47.69953 2.1744,-10.61709 0.85966,-22.14032 -4.91906,-31.44756 -4.70717,-8.01039 -12.4698,-14.95475 -21.99791,-16.06129 -11.6135,-2.1374 -23.90855,-4.49187 -35.43896,-0.67037 -13.41127,4.84807 -24.73262,14.20575 -34.11227,24.76363 -18.84574,21.32233 -31.1426,47.23859 -45.63331,71.48587 -14.35166,24.35993 -29.41047,48.58741 -48.56591,69.51641 -8.7777,8.96336 -20.99011,15.66363 -33.85403,14.65554 -13.56533,-0.9781 -26.20439,-7.67552 -36.20786,-16.63821 -11.52226,-10.54564 -19.21725,-25.87558 -18.57778,-41.70063 0.25737,-14.13938 5.55644,-27.45531 8.86476,-41.03547 11.53431,-41.67032 23.76885,-83.43231 42.43943,-122.5615 11.81688,-23.50819 32.98091,-42.81617 58.51945,-50.06596 19.43547,-5.61567 40.44226,-4.80481 59.67967,1.22756 9.17612,2.85944 18.34025,5.83353 27.81761,7.5518 24.2781,4.85947 49.55969,4.83115 73.78182,-0.36199 2.85704,-0.62091 6.3664,-1.44961 9.44019,-2.30958 25.58761,-6.95762 49.57622,-19.99853 69.07635,-37.99359 8.91285,-8.46641 17.08804,-18.25925 21.0907,-30.05886 3.9639,-11.11738 6.148,-22.75834 8.64954,-34.26452 C 843.2849,75.178078 829.94906,42.892129 805.12616,25.421581 793.07538,17.117494 778.81749,12.85905 764.66924,9.7319292 762.1681,9.1735267 758.97912,8.5314073 756.42022,8.0595022 738.26467,4.7942557 720.01131,1.8169466 701.57594,0.72525741 c -1.49018,-0.066839 -3.88277,-0.20244092 -5.71896,-0.29566133 -4.45822,-0.22301963 -9.60669,-0.35158076 -14.3921,-0.40727432 -2.84092,-0.0479054 -5.68276,-0.002395 -8.52393,-0.0114326 z"
     id="path5115"
     inkscape:export-filename="/home/dpk/Documents/project/connect/assets/design/logo.png"
     inkscape:export-xdpi="96"
     inkscape:export-ydpi="96" />
</svg>
