<?xml version="1.0" encoding="UTF-8" standalone="no"?>
<!-- Created with Inkscape (http://www.inkscape.org/) -->

<svg
   width="1024mm"
   height="1024mm"
   viewBox="0 0 1024 1024"
   version="1.1"
   id="svg5"
   sodipodi:docname="logov3-1.svg"
   inkscape:version="1.1.2 (0a00cf5339, 2022-02-04)"
   inkscape:export-filename="/home/dpk/Documents/project/connect/assets/design/logo_v3_frontend.png"
   inkscape:export-xdpi="96"
   inkscape:export-ydpi="96"
   xmlns:inkscape="http://www.inkscape.org/namespaces/inkscape"
   xmlns:sodipodi="http://sodipodi.sourceforge.net/DTD/sodipodi-0.dtd"
   xmlns="http://www.w3.org/2000/svg"
   xmlns:svg="http://www.w3.org/2000/svg">
  <sodipodi:namedview
     id="namedview7"
     pagecolor="#ffffff"
     bordercolor="#666666"
     borderopacity="1.0"
     inkscape:pageshadow="2"
     inkscape:pageopacity="0.0"
     inkscape:pagecheckerboard="0"
     inkscape:document-units="mm"
     showgrid="false"
     inkscape:zoom="0.37669519"
     inkscape:cx="2310.887"
     inkscape:cy="2719.7056"
     inkscape:window-width="1920"
     inkscape:window-height="1022"
     inkscape:window-x="0"
     inkscape:window-y="0"
     inkscape:window-maximized="1"
     inkscape:current-layer="layer1"
     inkscape:snap-global="false" />
  <defs
     id="defs2">
    <marker
       style="overflow:visible;"
       id="Arrow1Lend"
       refX="0.0"
       refY="0.0"
       orient="auto"
       inkscape:stockid="Arrow1Lend"
       inkscape:isstock="true">
      <path
         transform="scale(0.8) rotate(180) translate(12.5,0)"
         style="fill-rule:evenodd;fill:context-stroke;stroke:context-stroke;stroke-width:1.0pt;"
         d="M 0.0,0.0 L 5.0,-5.0 L -12.5,0.0 L 5.0,5.0 L 0.0,0.0 z "
         id="path98124" />
    </marker>
    <marker
       style="overflow:visible"
       id="marker98410"
       refX="0.0"
       refY="0.0"
       orient="auto"
       inkscape:stockid="Arrow1Lstart"
       inkscape:isstock="true">
      <path
         transform="scale(0.8) translate(12.5,0)"
         style="fill-rule:evenodd;fill:context-stroke;stroke:context-stroke;stroke-width:1.0pt"
         d="M 0.0,0.0 L 5.0,-5.0 L -12.5,0.0 L 5.0,5.0 L 0.0,0.0 z "
         id="path98408" />
    </marker>
    <marker
       style="overflow:visible"
       id="Arrow1Lstart"
       refX="0.0"
       refY="0.0"
       orient="auto"
       inkscape:stockid="Arrow1Lstart"
       inkscape:isstock="true">
      <path
         transform="scale(0.8) translate(12.5,0)"
         style="fill-rule:evenodd;fill:context-stroke;stroke:context-stroke;stroke-width:1.0pt"
         d="M 0.0,0.0 L 5.0,-5.0 L -12.5,0.0 L 5.0,5.0 L 0.0,0.0 z "
         id="path98121" />
    </marker>
    <inkscape:path-effect
       effect="join_type"
       id="path-effect85600"
       is_visible="true"
       lpeversion="1"
       linecap_type="butt"
       line_width="39.6875"
       linejoin_type="extrp_arc"
       miter_limit="100"
       attempt_force_join="true" />
  </defs>
  <g
     inkscape:label="Layer 1"
     inkscape:groupmode="layer"
     id="layer1"
     transform="translate(216.72139,169.39423)"
     style="display:inline">
    <rect
       style="fill:#00cc00;fill-rule:evenodd;stroke-width:0.411;paint-order:stroke fill markers"
       id="rect9472"
       width="1024"
       height="1024"
       x="-216.72139"
       y="-169.39423"
       rx="0"
       ry="0" />
    <g
       id="g907"
       transform="translate(-6.1444591,39.348798)">
      <g
         id="g10076"
         transform="translate(-5.109713,5.1128357)"
         inkscape:export-filename="/home/dpk/Documents/project/connect/assets/design/finalLogo.png"
         inkscape:export-xdpi="96"
         inkscape:export-ydpi="96">
        <g
           id="g13489">
          <g
             id="g13630" />
        </g>
      </g>
      <g
         id="g10706"
         transform="matrix(1.3451625,0,0,1.3976358,-98.418362,-115.10664)"
         style="stroke-width:0.729316"
         inkscape:export-filename="/home/dpk/Documents/project/connect/assets/design/finalLogo.png"
         inkscape:export-xdpi="96"
         inkscape:export-ydpi="96" />
    </g>
  </g>
  <g
     inkscape:groupmode="layer"
     id="layer2"
     inkscape:label="Layer 2"
     style="display:none">
    <path
       id="rect8319"
       style="display:inline;fill:#ffffff;fill-rule:evenodd;stroke-width:0.411001;paint-order:stroke fill markers"
       sodipodi:type="inkscape:offset"
       inkscape:radius="3.6971123"
       inkscape:original="M 309.86133 4.4628906 C 172.1972 2.5314066 34.335766 97.237783 -20.974609 223.18945 C -52.760473 297.36419 -62.202986 380.53454 -40.609375 459.82617 C -20.874258 542.50012 27.289285 609.56611 96.078125 659.50195 C 120.03423 591.68631 151.57589 516.36072 222.42578 486.28516 C 239.32202 479.5698 293.76076 454.79665 258.91992 488.0957 C 252.72185 499.20527 219.24609 530.63357 250.10352 514.14062 C 271.49741 508.34647 305.46276 481.44547 299.96289 520.79883 C 307.65264 577.3864 315.34341 633.97493 323.0332 690.5625 C 329.85495 625.87291 336.67632 561.18178 343.49805 496.49219 C 360.32388 498.64164 421.99507 532.01806 389.95898 500.14453 C 376.05052 484.1206 358.47381 463.90579 390.33594 481.80859 C 460.49089 513.61288 516.47534 581.76954 523.12109 659.88867 C 545.68459 652.38674 562.05295 742.23283 635.46094 763.16406 C 684.77131 766.53467 723.4919 710.95011 717.94922 664.94727 C 705.59895 616.80617 607.7793 572.48242 607.7793 572.48242 C 607.7793 572.48242 642.8342 516.97489 653.80859 478.68164 C 692.26649 344.48938 659.19149 189.46752 549.79102 95.269531 C 484.36128 37.113951 397.40465 4.1950796 309.86133 4.4628906 z M 312.60547 47.167969 C 460.33351 44.155959 599.67416 159.80262 622.88672 305.94922 C 638.86781 400.99861 609.57978 501.71817 548.66992 575.88281 C 518.30007 507.97578 457.86073 453.39263 385.81641 433.46289 C 479.09058 382.07599 494.05946 238.26605 417.92773 165.43359 C 363.08114 108.42675 261.97248 107.83328 208.33789 166.95117 C 136.07878 238.78046 147.43277 376.48503 236.12695 430.27148 C 218.48707 450.12849 166.04327 460.38086 143.39062 489.59766 C 110.37057 510.15795 89.425414 570.2151 69.246094 581.52344 C -31.277237 465.72738 -29.44994 279.9847 67.509766 162.6875 C 125.46224 88.37083 219.07121 46.978689 312.60547 47.167969 z M 316.875 175.48828 C 390.19377 175.39408 444.06345 260.56715 416.10742 327.55859 C 393.98317 392.09118 306.14572 422.20075 251.10352 379.57617 C 194.32852 339.85946 188.20923 246.96644 242.76562 202.51953 C 263.0247 184.76202 289.91422 174.84016 316.875 175.48828 z M 587.65039 602.33594 C 618.37663 621.04593 654.00081 632.79984 674.34375 662.7207 C 693.0192 690.18897 666.24389 737.3016 635.98047 721.71289 C 592.51697 699.32481 581.34042 667.85821 557.92969 630.71875 C 557.92969 630.71875 575.57483 608.27134 587.65039 602.33594 z "
       d="M 309.84961,0.765625 C 170.47737,-1.1597864 31.577407,94.325017 -24.359375,221.70312 a 3.697482,3.697482 0 0 0 -0.01367,0.0293 c -32.075557,74.85076 -41.640372,158.87676 -19.802734,239.06446 19.962621,83.50445 68.714776,151.34153 138.082031,201.69726 a 3.697482,3.697482 0 0 0 5.658203,-1.76172 c 23.902077,-67.6627 55.135157,-141.67648 124.298827,-171.04101 0.003,-0.001 0.005,-0.003 0.008,-0.004 8.65367,-3.4426 26.43071,-11.22186 37.10743,-13.91797 2.04224,-0.51571 3.38059,-0.62842 4.61328,-0.72851 -0.19423,0.35252 -0.21547,0.52852 -0.53516,0.96875 -1.5863,2.18439 -4.42736,5.33871 -8.69141,9.41406 a 3.697482,3.697482 0 0 0 -0.67382,0.87109 c -1.22099,2.18852 -4.44235,6.29223 -7.94727,10.51563 -3.50491,4.22339 -7.32416,8.68712 -10.10547,12.46679 -1.39065,1.88984 -2.52641,3.56579 -3.30273,5.26172 -0.38816,0.84797 -0.72969,1.69251 -0.80078,2.88672 -0.0711,1.19421 0.4836,3.14073 1.88672,4.1582 1.40311,1.01748 2.7536,1.01128 3.8457,0.91016 1.09209,-0.10111 2.12159,-0.37787 3.30469,-0.78516 2.28004,-0.78492 5.19853,-2.16903 8.93554,-4.15234 11.52616,-3.22564 25.1587,-11.17319 34.47852,-13.42383 2.35855,-0.56956 4.37873,-0.75852 5.83203,-0.58984 1.4533,0.16868 2.2695,0.5651 2.98828,1.33008 1.43755,1.52995 2.8049,6.03515 1.49414,15.41406 a 3.697482,3.697482 0 0 0 -0.002,1.00977 c 7.68975,56.5876 15.38053,113.17613 23.07031,169.76367 a 3.697482,3.697482 0 0 0 7.33984,-0.10938 c 6.67244,-63.27363 13.34519,-126.54861 20.01758,-189.82226 3.74784,0.99212 8.61531,2.59084 14.31055,4.77539 7.5949,2.9132 15.89128,6.29848 22.81641,8.66992 3.46256,1.18572 6.56497,2.12402 9.24218,2.62305 1.33861,0.24951 2.56733,0.40101 3.81836,0.35156 1.25103,-0.0494 2.6827,-0.22885 4.07227,-1.41992 1.38957,-1.19108 1.91698,-3.4007 1.67187,-4.89844 -0.2451,-1.49775 -0.86077,-2.67614 -1.68164,-3.97656 -1.61194,-2.55365 -4.24956,-5.5642 -8.22461,-9.53321 l -0.01,-0.01 c -3.47488,-4.00341 -7.15419,-8.24259 -10.18946,-12.02344 -1.71426,-2.13536 -3.11585,-4.06502 -4.24414,-5.73828 2.47198,1.03075 5.71234,2.55105 10.2168,5.08203 a 3.697482,3.697482 0 0 0 0.2832,0.14453 c 69.01953,31.28956 124.11642,98.47266 130.62891,175.02539 a 3.697482,3.697482 0 0 0 4.84961,3.19531 c 1.70868,-0.5681 2.99409,-0.35356 5.11914,1.02149 2.12505,1.37505 4.72023,4.05632 7.52148,7.73828 5.60252,7.36392 12.09829,18.57045 20.22071,30.75781 16.24484,24.37474 39.32306,52.97645 77.29883,63.80469 a 3.697482,3.697482 0 0 0 0.76171,0.13477 c 26.10037,1.78409 49.24586,-12.04096 64.97071,-31.99414 15.72484,-19.95319 24.35425,-46.16143 21.43945,-70.35352 a 3.697482,3.697482 0 0 0 -0.0879,-0.47656 c -6.6911,-26.08178 -34.99229,-49.17655 -61.26758,-66.45703 -23.13446,-15.21486 -42.31737,-24.3165 -47.22265,-26.60547 5.52517,-8.87211 34.097,-55.5883 44.32226,-91.26758 C 696.18359,344.2424 662.84424,187.73498 552.20312,92.46875 486.08486,33.720861 398.31941,0.49947143 309.86719,0.765625 Z m 2.74805,50.099609 a 3.697482,3.697482 0 0 0 0.084,0 C 458.43403,47.893506 596.33593,162.34804 619.23633,306.5293 a 3.697482,3.697482 0 0 0 0.004,0.0332 C 634.70264,398.52695 607.14366,496.01714 549.41602,568.90234 519.05227,505.09066 462.51702,453.7437 394.83398,432.38477 483.93143,376.43988 496.51097,235.64933 420.5918,162.87109 l -0.006,-0.006 c -56.39634,-58.61033 -159.72883,-59.23259 -214.93555,1.55079 -72.87252,72.55284 -62.64295,209.63394 24.5918,266.42578 -8.7512,7.58646 -24.0848,14.52416 -40.20117,22.24804 -18.03362,8.64273 -37.07771,18.50861 -49.14649,33.75196 -17.31403,11.03314 -30.72146,31.3602 -42.525389,50.22656 -5.964903,9.53377 -11.491865,18.70993 -16.689453,26.08203 -4.193972,5.9486 -8.217925,10.57785 -11.761719,13.37891 -97.020897,-114.46983 -94.607318,-296.50095 0.441406,-411.48633 a 3.697482,3.697482 0 0 0 0.06641,-0.082 C 127.60043,91.641735 220.15911,50.678172 312.59766,50.865234 Z m 4.18945,128.318356 a 3.697482,3.697482 0 0 0 0.0918,0.002 c 70.4532,-0.0905 122.69342,82.54343 95.8164,146.94922 a 3.697482,3.697482 0 0 0 -0.0859,0.22461 c -21.2651,62.02657 -106.37182,91.23568 -159.24219,50.29296 a 3.697482,3.697482 0 0 0 -0.14453,-0.10546 C 198.5641,338.31071 192.60575,248.15489 245.10156,205.38672 a 3.697482,3.697482 0 0 0 0.10156,-0.0879 c 19.55298,-17.13859 45.58852,-26.74015 71.58399,-26.11524 z m 270.92383,427.45313 c 30.71093,18.32392 64.51575,30.12761 83.57617,58.16211 8.32324,12.24201 6.55322,29.45143 -0.92383,41.63086 -3.73852,6.08971 -8.82414,10.79981 -14.39648,13.08398 -5.57235,2.28417 -11.59836,2.36051 -18.29297,-1.08789 -41.50115,-21.37727 -52.64144,-50.96373 -75.20508,-87.3125 1.10751,-1.38331 3.62871,-4.61436 8.49805,-9.83984 5.25767,-5.64223 11.80808,-11.68202 16.74414,-14.63672 z"
       transform="translate(182.96089,163.91262)"
       inkscape:export-filename="/home/dpk/Documents/project/connect/assets/design/logo_v3_frontend.png"
       inkscape:export-xdpi="96"
       inkscape:export-ydpi="96" />
  </g>
  <g
     inkscape:groupmode="layer"
     id="layer3"
     inkscape:label="Layer 3"
     style="display:inline">
    <path
       id="path35256"
       style="display:inline;fill:#ffffff;fill-opacity:1;fill-rule:nonzero;stroke:none;stroke-width:26.4583;stroke-linecap:butt;stroke-linejoin:miter;stroke-miterlimit:4;stroke-dasharray:none;stroke-opacity:1"
       d="m 717.76339,823.43879 c 24.8508,32.14439 76.49051,111.62534 127.85386,84.29183 a 53.778513,53.778513 0 0 0 1.31459,-0.72328 109.15766,109.15766 0 0 0 1.06866,-0.77083 c 84.36404,-61.62916 -41.37131,-155.5332 -76.4913,-186.7995 l 2.35212,27.15266 C 840.30263,662.8228 866.17177,547.91842 840.3967,443.60994 820.19175,361.84306 775.35278,285.43267 704.92942,236.2006 l 0.7446,0.54678 C 637.79726,184.42908 552.10225,160.13346 467.10734,166.78309 a 352.76888,352.76888 0 0 0 -0.0162,0.001 358.97348,358.97348 0 0 0 -0.0162,0.001 c -108.57617,8.67354 -215.08642,66.91473 -274.5962,160.3441 l 0.26211,-0.40075 C 105.48348,456.69023 106.8884,646.84229 215.3964,765.7917 l 0.23093,0.25315 0.23953,0.24503 c 0,0 63.07797,88.50727 82.95894,3.12043 14.77334,-63.45001 75.8809,-147.25958 158.4597,-145.53944 34.29175,0.71432 66.43759,-48.80367 26.4396,-57.72245 a 45.530575,45.530575 0 0 0 -0.16919,-0.0374 230.44668,230.44668 0 0 1 -0.1223,-0.0253 c -179.12071,-37.12396 -119.17669,-247.1394 22.70716,-240.932 118.70401,5.19328 176.71228,174.04282 27.93535,235.16929 -36.00444,14.79278 -52.64182,35.12302 -70.82251,52.98562 0,0 -5.24893,2.71885 -25.89742,32.78933 a 715.89256,715.89256 0 0 0 -25.03577,39.1214 l 80.43574,-14.97027 -23.32753,-17.09713 29.66657,242.29892 27.96014,-249.32517 -25.12947,16.88076 72.84527,20.63897 -35.60158,-83.08562 -16.76621,27.60458 c 75.64798,-5.63316 136.8709,49.82714 166.22907,126.50364 a 270.77148,270.77148 0 0 1 0.63491,1.67479 68.705935,68.705935 0 0 0 1.15055,1.87554 c 15.41559,24.24934 37.79379,25.85053 55.22431,15.93938 7.66134,-4.3563 14.30576,-10.94106 18.2339,-15.21995 0.6095,-0.66392 1.17927,-1.29748 1.69904,-1.88164 0.46566,-0.52334 0.89968,-1.01662 1.28548,-1.45604 0.34296,-0.39063 0.64526,-0.7358 0.92806,-1.05661 0.24443,-0.27729 0.43668,-0.4937 0.60197,-0.67694 0.14436,-0.16005 0.23122,-0.25371 0.27704,-0.30221 0,0 -32.20432,-18.53455 -32.20432,-18.53455 -0.0158,0.0524 -0.0486,0.15832 -0.11717,0.36367 0,0 -54.57476,41.48987 -18.5828,88.04531 z m 56.2202,-92.41336 c -13.19532,-30.45192 -34.54622,-4.3457 -36.55644,-2.05482 -8.16322,9.30294 -9.71768,13.93187 -13.51657,7.95606 l 1.78546,3.55033 C 691.68887,651.6584 616.98533,581.32392 519.45617,588.58648 a 189.55544,189.55544 0 0 0 -26.8985,3.95823 l 29.34307,68.47975 23.64913,-26.90786 -55.32619,-15.67535 -11.71355,104.45167 39.4168,-0.20014 -11.67141,-95.32513 -56.17178,10.45439 19.98929,30.74158 c 17.80077,-25.92333 20.99512,-26.94511 20.99513,-26.94512 20.26122,-19.90673 31.55772,-33.68437 58.09056,-44.58565 C 733.25926,521.39333 672.53937,292.70816 507.87543,285.50414 313.68054,277.00815 253.36035,558.9323 475.37916,604.94789 l -0.29149,-0.0627 c 0,0 -11.26812,-24.88093 -11.26812,-24.88093 0,0 0.3663,-0.56662 0.3663,-0.56662 0,0 0.17741,-0.23556 0.17741,-0.23556 0,0 -0.0575,0.0624 -0.0575,0.0624 -0.0704,0.0753 -0.17431,0.18183 -0.32768,0.32784 -0.1682,0.16013 -0.37558,0.34794 -0.6232,0.55905 -0.27515,0.23457 -0.58573,0.4858 -0.93045,0.7491 -0.38302,0.29254 -0.79331,0.58863 -1.22625,0.88283 -2.87071,1.95078 -3.08619,2.40922 -3.0862,2.40922 -105.63675,-2.20044 -179.90271,98.75087 -197.93981,176.21846 -0.86332,3.70787 -1.6893,6.17787 -2.35795,7.7477 -0.25199,0.59162 -0.44881,0.97851 -0.58217,1.21782 -0.0245,0.044 -0.12403,0.21087 -0.12403,0.21087 0,0 12.6683,-2.94683 12.6683,-2.94683 -0.032,-0.0185 -0.1369,-0.0812 -0.33606,-0.22199 -0.24587,-0.17381 -0.57824,-0.42726 -1.0033,-0.78489 -0.47856,-0.40264 -1.01405,-0.88522 -1.6384,-1.48639 -0.69373,-0.66796 -1.4371,-1.42515 -2.25043,-2.29259 -6.00483,-6.40427 -13.01285,-15.85156 -20.30158,-23.30751 l 0.47046,0.49818 C 149.51013,634.67698 147.92541,464.67572 225.69056,348.85171 a 303.85597,303.85597 0 0 1 0.13375,-0.19905 276.2386,276.2386 0 0 1 0.12836,-0.2017 c 52.45626,-82.35547 146.94081,-134.32774 244.2826,-142.10384 l -0.0324,0.003 c 75.50605,-5.90727 151.39674,15.70313 211.2426,61.83135 a 293.14816,293.14816 0 0 1 0.36647,0.28292 259.66469,259.66469 0 0 1 0.37813,0.26386 c 61.23088,42.80571 101.33847,110.18492 119.678,184.40272 22.86031,92.5128 -0.0214,194.311 -59.1008,268.79627 a 299.06859,299.06859 0 0 1 -11.88381,14.07014 612.32162,612.32162 0 0 0 14.23593,13.08252 c 40.7079,36.24105 119.02059,96.21765 79.47016,125.10982 l 2.38325,-1.49411 c -15.38802,8.18889 -51.58649,-39.60935 -77.81092,-73.53052 -6.55627,-8.48051 -5.07282,-10.79719 -3.42157,-14.13609 5.77621,-11.67975 23.10819,-21.66387 28.25071,-37.06665 0.65633,-1.96585 4.55061,-6.41754 -0.007,-16.93649 z"
       sodipodi:nodetypes="ssccsccassscssacccccccs"
       inkscape:path-effect="#path-effect85600"
       inkscape:original-d="m 755.1686,741.6777 c -5.22008,15.63511 -48.66627,34.75099 -21.70597,69.62402 25.52253,33.01327 69.06156,96.88266 102.83239,78.91118 62.33757,-45.53851 -40.11421,-122.24321 -77.98073,-155.95466 62.76037,-79.12607 87.13578,-187.47736 62.81809,-285.888 C 801.86014,370.3779 759.38686,298.4831 693.55974,252.46421 629.69843,203.24095 548.90558,180.28794 468.6551,186.56639 c -102.95898,8.22482 -203.45638,63.33155 -259.4394,151.22397 -82.51126,122.8929 -81.01644,302.96956 20.84102,414.62846 18.08158,18.49641 39.02285,57.24256 49.44228,12.49212 16.40522,-70.4588 84.09198,-162.83924 178.19976,-160.87895 10.10098,0.21041 30.9021,-16.46471 21.70762,-18.5149 C 278.82881,543.94541 338.9592,297.97682 507.0081,305.32893 c 141.69289,6.19904 201.05491,204.96319 34.60932,273.349 -31.26864,12.84703 -45.23558,29.90097 -64.45654,48.78564 -9.02843,8.87046 -23.44627,29.86722 -23.44627,29.86722 l 35.41068,-6.59045 9.10498,74.36406 9.10493,-81.19017 32.80534,9.29461 -19.21078,-44.8334 c 86.58857,-6.44786 154.5518,56.44953 186.23447,139.19708 23.64815,37.19948 53.40665,-22.07566 48.00437,-5.89482 z" />
  </g>
</svg>
