<?xml version="1.0" encoding="UTF-8" standalone="no"?>
<!-- Created with Inkscape (http://www.inkscape.org/) -->

<svg
   width="191.98677mm"
   height="182.65451mm"
   viewBox="0 0 191.98677 182.65451"
   version="1.1"
   id="svg5"
   sodipodi:docname="logov3.svg"
   inkscape:version="1.1.2 (0a00cf5339, 2022-02-04)"
   xmlns:inkscape="http://www.inkscape.org/namespaces/inkscape"
   xmlns:sodipodi="http://sodipodi.sourceforge.net/DTD/sodipodi-0.dtd"
   xmlns="http://www.w3.org/2000/svg"
   xmlns:svg="http://www.w3.org/2000/svg">
  <sodipodi:namedview
     id="namedview7"
     pagecolor="#ffffff"
     bordercolor="#666666"
     borderopacity="1.0"
     inkscape:pageshadow="2"
     inkscape:pageopacity="0.0"
     inkscape:pagecheckerboard="0"
     inkscape:document-units="mm"
     showgrid="false"
     inkscape:zoom="0.1026287"
     inkscape:cx="1534.6584"
     inkscape:cy="1217.9829"
     inkscape:window-width="1920"
     inkscape:window-height="1022"
     inkscape:window-x="0"
     inkscape:window-y="0"
     inkscape:window-maximized="1"
     inkscape:current-layer="layer1" />
  <defs
     id="defs2" />
  <g
     inkscape:label="Layer 1"
     inkscape:groupmode="layer"
     id="layer1"
     transform="translate(-196.22093,-290.74834)">
    <rect
       style="fill:#00cc00;fill-rule:evenodd;stroke-width:0.411;paint-order:stroke fill markers"
       id="rect9472"
       width="1024"
       height="1024"
       x="-216.72139"
       y="-169.39423"
       rx="0"
       ry="0" />
    <g
       id="g10076">
      <path
         id="path846"
         style="fill:#ffffff;fill-rule:evenodd;stroke-width:0.411;paint-order:stroke fill markers"
         d="M 292.43055,-65.785611 A 390.09086,390.09086 0 0 0 -97.65913,324.30704 390.09086,390.09086 0 0 0 292.43055,714.39672 390.09086,390.09086 0 0 0 500.81739,653.8441 L 627.88442,780.90806 715.98518,692.80732 593.962,570.78415 A 390.09086,390.09086 0 0 0 682.52324,324.30704 390.09086,390.09086 0 0 0 292.43055,-65.785611 Z m -2.09289,49.319916 A 349.73409,339.52705 0 0 1 640.07089,323.0633 349.73409,339.52705 0 0 1 290.33766,662.58928 349.73409,339.52705 0 0 1 -59.39553,323.0633 349.73409,339.52705 0 0 1 290.33766,-16.465695 Z m 275.0238,618.852155 94.42127,94.84577 -27.06678,25.59879 -97.16291,-94.91161 c 17.12936,-9.77084 20.57223,-13.9228 29.80842,-25.53295 z" />
      <path
         id="path1361"
         style="fill:#ffffff;fill-rule:evenodd;stroke-width:0.411;paint-order:stroke fill markers"
         d="M 292.64711,110.11612 A 109.83158,111.84648 0 0 0 182.81501,221.96263 109.83158,111.84648 0 0 0 292.64711,333.80942 109.83158,111.84648 0 0 0 402.47692,221.96263 109.83158,111.84648 0 0 0 292.64711,110.11612 Z m 0,40.38457 a 74.417695,71.462559 0 0 1 74.41708,71.46194 74.417695,71.462559 0 0 1 -74.41708,71.46217 74.417695,71.462559 0 0 1 -74.41944,-71.46217 74.417695,71.462559 0 0 1 74.41944,-71.46194 z" />
      <path
         id="path1361-0-5"
         style="fill:#ffffff;fill-rule:evenodd;stroke-width:0.411;paint-order:stroke fill markers"
         d="m 293.89385,321.83819 c -105.04599,0 -192.01174,71.27838 -212.962015,172.03335 l 41.539605,11.91431 c 7.59822,-65.56811 84.92994,-147.01417 168.72081,-147.01417 88.95952,0 166.55777,80.02932 167.39056,149.0749 l 45.7773,-12.67813 C 499.80814,396.82088 398.75502,321.83819 293.89385,321.83819 Z"
         sodipodi:nodetypes="sccsccs" />
    </g>
    <g
       id="g10706">
      <path
         sodipodi:type="star"
         style="fill:#ffffff;fill-rule:evenodd;stroke-width:1.55339;paint-order:stroke fill markers"
         id="path10458"
         inkscape:flatsided="false"
         sodipodi:sides="5"
         sodipodi:cx="910.13263"
         sodipodi:cy="1312.5769"
         sodipodi:r1="381.48087"
         sodipodi:r2="203.36234"
         sodipodi:arg1="-2.2164069"
         sodipodi:arg2="-1.5880884"
         inkscape:rounded="0"
         inkscape:randomized="0"
         transform="matrix(0.26453867,0.00486139,-0.00486139,0.26453867,57.863765,20.817573)"
         inkscape:transform-center-x="-1.3162088"
         inkscape:transform-center-y="-8.2766325"
         d="m 680.60084,1007.8757 226.01541,101.3693 222.37525,-109.1236 -26.5653,246.2782 172.5004,177.7703 -242.4336,50.8391 -115.76412,218.9917 -123.26695,-214.8579 -244.04657,-42.426 166.25049,-183.6286 z" />
    </g>
  </g>
</svg>
