<?xml version="1.0" encoding="UTF-8" standalone="no"?>
<!-- Created with Inkscape (http://www.inkscape.org/) -->

<svg
   width="662.57129mm"
   height="758.06738mm"
   viewBox="0 0 662.57129 758.06738"
   version="1.1"
   id="svg161129"
   inkscape:version="1.1.2 (0a00cf5339, 2022-02-04)"
   sodipodi:docname="logoV11_single_path.svg"
   xmlns:inkscape="http://www.inkscape.org/namespaces/inkscape"
   xmlns:sodipodi="http://sodipodi.sourceforge.net/DTD/sodipodi-0.dtd"
   xmlns="http://www.w3.org/2000/svg"
   xmlns:svg="http://www.w3.org/2000/svg">
  <sodipodi:namedview
     id="namedview161131"
     pagecolor="#ffffff"
     bordercolor="#666666"
     borderopacity="1.0"
     inkscape:pageshadow="2"
     inkscape:pageopacity="0.0"
     inkscape:pagecheckerboard="0"
     inkscape:document-units="mm"
     showgrid="false"
     inkscape:snap-global="false"
     inkscape:zoom="0.23968767"
     inkscape:cx="1136.8962"
     inkscape:cy="1408.0824"
     inkscape:window-width="1920"
     inkscape:window-height="1022"
     inkscape:window-x="0"
     inkscape:window-y="0"
     inkscape:window-maximized="1"
     inkscape:current-layer="layer1" />
  <defs
     id="defs161126">
    <inkscape:path-effect
       effect="mirror_symmetry"
       start_point="320.28752,-70.839205"
       end_point="320.28752,526.56969"
       center_point="320.28752,227.86524"
       id="path-effect161825"
       is_visible="false"
       lpeversion="1.1"
       mode="X"
       discard_orig_path="false"
       fuse_paths="false"
       oposite_fuse="true"
       split_items="false"
       split_open="false" />
  </defs>
  <g
     inkscape:label="Layer 1"
     inkscape:groupmode="layer"
     id="layer1"
     transform="translate(329.0593,128.12455)">
    <path
       id="path846"
       style="display:inline;fill:none;fill-opacity:0.506397;fill-rule:evenodd;stroke:#512dab;stroke-width:26.4583;stroke-linecap:square;stroke-miterlimit:4;stroke-dasharray:none;stroke-opacity:1;paint-order:stroke fill markers"
       d="m 16.750857,246.77905 35.76285,21.3523 -17.52254,-32.16863 -35.19522041,-7.61105 -2.95301999,-11.89417 -13.3533296,-1.64031 c -53.46891,-12.80348 -88.723837,-63.94418 -81.77124,-118.61714 6.95259,-54.672973 53.87844,-95.30864295 108.8411,-94.2514829 54.96266,1.05715 100.299463,43.4674139 105.155423,98.3675129 4.85596,54.90009 -32.329433,104.64747 -86.248803,115.38542 -7.86435,0.52396 -2.93955,1.04342 -23.5930604,1.57187 l 17.7288504,4.09273 c -2.206996,5.43831 118.734613,49.24076 153.379713,9.51922 5.22478,-5.99034 4.47968,-55.93347 3.01441,-66.83831 -77.7072,-578.3127 70.87739,-109.352507 58.14914,84.85407 -6.90443,105.34728 -67.1783,67.75675 -92.41823,79.38724 47.67186,81.35364 -60.750117,307.68172 83.20774,177.90023 C 308.51132,425.51249 340.31869,306.73007 307.49321,194.70416 267.87901,59.509876 143.60128,-33.533683 2.2261666,-33.841483 -139.14895,-33.533683 -263.42668,59.509876 -303.04088,194.70416 c -33.61991,114.73713 0.55931,236.56177 84.41996,317.2743 159.752064,160.54624 39.34504,-89.89965 87.04563,-177.68971 0,0 -28.25077,-5.15112 -30.7084,9.04423 -188.63664,673.86862 -78.73806,-109.80949 -9.79457,-104.91132 28.33525,10.87438 65.38754,20.87122 150.804602,-14.96612 l 10.514795,7.58266 -17.10227,37.25698 28.59823959,-19.34741"
       sodipodi:nodetypes="ccccccssscccsssccscscccccccc"
       inkscape:path-effect="#path-effect161825"
       inkscape:original-d="m 16.750857,246.77905 35.76285,21.3523 -17.52254,-32.16863 -35.19522041,-7.61105 -2.95301999,-11.89417 -13.3533296,-1.64031 c -53.46891,-12.80348 -88.723837,-63.94418 -81.77124,-118.61714 6.95259,-54.672973 53.87844,-95.30864295 108.8411,-94.2514829 54.96266,1.05715 100.299463,43.4674139 105.155423,98.3675129 4.85596,54.90009 -32.329433,104.64747 -86.248803,115.38542 -7.86435,0.52396 -2.93955,1.04342 -23.5930604,1.57187 l 17.7288504,4.09273 c -2.206996,5.43831 118.734613,49.24076 153.379713,9.51922 5.22478,-5.99034 4.47968,-55.93347 3.01441,-66.83831 -77.7072,-578.3127 70.87739,-109.352507 58.14914,84.85407 -6.90443,105.34728 -67.1783,67.75675 -92.41823,79.38724 47.67186,81.35364 -60.750117,307.68172 83.20774,177.90023 C 308.51132,425.51249 340.31869,306.73007 307.49321,194.70416 267.87901,59.509876 143.60128,-33.533683 2.2261666,-33.841483 -139.14895,-33.533683 -263.42668,59.509876 -303.04088,194.70416 c -33.61991,114.73713 0.55931,236.56177 84.41996,317.2743 159.752064,160.54624 39.34504,-89.89965 87.04563,-177.68971 0,0 -28.25077,-5.15112 -30.7084,9.04423 -188.63664,673.86862 -78.73806,-109.80949 -9.79457,-104.91132 28.33525,10.87438 65.38754,20.87122 150.804602,-14.96612 l 10.514795,7.58266 -17.10227,37.25698 28.59823959,-19.34741" />
  </g>
</svg>
