<?xml version="1.0" encoding="UTF-8" standalone="no"?>
<!-- Created with Inkscape (http://www.inkscape.org/) -->

<svg
   inkscape:version="1.1.2 (0a00cf5339, 2022-02-04)"
   sodipodi:docname="logov3-final-edit.svg"
   id="svg103508"
   version="1.1"
   viewBox="0.0 0.0 795.9674453333333 797.4901013333333"
   height="2825.7523276150405"
   width="2820.357089819658"
   xmlns:inkscape="http://www.inkscape.org/namespaces/inkscape"
   xmlns:sodipodi="http://sodipodi.sourceforge.net/DTD/sodipodi-0.dtd"
   xmlns="http://www.w3.org/2000/svg"
   xmlns:svg="http://www.w3.org/2000/svg">
  <sodipodi:namedview
     id="namedview103510"
     pagecolor="#ffffff"
     bordercolor="#666666"
     borderopacity="1.0"
     inkscape:pageshadow="2"
     inkscape:pageopacity="0.0"
     inkscape:pagecheckerboard="0"
     inkscape:document-units="px"
     showgrid="false"
     inkscape:zoom="0.15861561"
     inkscape:cx="1736.9035"
     inkscape:cy="1755.8171"
     inkscape:window-width="1920"
     inkscape:window-height="1022"
     inkscape:window-x="0"
     inkscape:window-y="0"
     inkscape:window-maximized="1"
     inkscape:current-layer="svg103508"
     inkscape:snap-global="false" />
  <defs
     id="defs103505">
    <inkscape:path-effect
       effect="join_type"
       id="path-effect85600"
       is_visible="true"
       lpeversion="1"
       linecap_type="butt"
       line_width="39.6875"
       linejoin_type="extrp_arc"
       miter_limit="100"
       attempt_force_join="true" />
  </defs>
  <g
     inkscape:label="Layer 1"
     inkscape:groupmode="layer"
     id="layer1"
     transform="matrix(1.06667,0,0,1.06667,272.263,299.667)">
    <path
       id="path104012"
       style="display:inline;fill:none;fill-opacity:1;fill-rule:nonzero;stroke:#512dab;stroke-width:39.6874;stroke-linecap:round;stroke-miterlimit:4;stroke-dasharray:none;stroke-opacity:1;paint-order:normal"
       d="m 121.42319,193.84298 c 0,0 -30.336522,-9.03489 23.10969,12.86591 -23.72302,-35.71316 -23.33859,-35.24012 2.4142,-46.08693 81.60212,-9.28324 149.13569,69.5004 175.06659,140.06554 5.57092,23.96336 48.27655,-2.53931 23.57031,24.34961 -17.25208,33.60203 18.86,58.22377 37.94623,83.99164 25.3407,27.59739 79.96177,56.40466 86.18155,2.70052 -2.9697,-44.78272 -43.0317,-74.85214 -73.72466,-102.75465 -13.85172,-8.78335 -56.84264,12.48304 -27.90914,-14.44559 84.92456,-101.47258 99.73202,-253.412871 38.65873,-370.41488 -53.95124,-112.2753 -176.71698,-187.09148 -301.12927,-184.66103 -128.038618,0.67728 -253.42763,77.84988 -306.21816,195.489797 -58.44613,122.329669 -43.084,281.837543 54.16543,380.344273 12.16118,26.35482 42.43137,28.65913 41.95207,-5.46787 22.538797,-76.21251 87.384968,-151.22494 172.003607,-152.98691 23.339635,1.64642 39.950713,-4.1914 0.426845,-23.4624 C 28.748687,120.74913 -38.264824,62.379623 -32.963397,-2.8215494 -31.132905,-83.239805 45.979415,-151.05429 126.15616,-141.5639 c 83.6382,3.08184 149.86617,92.19778 127.0443,173.077292 -13.02924,54.3307 -62.05582,88.850128 -111.38872,107.818828 -29.3548,17.19566 -40.7445,37.42418 -71.921223,73.93077 33.917043,-9.12585 43.234813,-13.5992 36.369793,18.37927 2.53978,36.60735 6.98975,148.97377 6.98975,148.97377"
       sodipodi:nodetypes="ccccccccccccccccccccccc" />
  </g>
</svg>
