<?xml version="1.0" encoding="UTF-8" standalone="no"?>
<!-- Created with Inkscape (http://www.inkscape.org/) -->

<svg
   width="622.58527mm"
   height="780.04999mm"
   viewBox="0 0 622.58527 780.04999"
   version="1.1"
   id="svg4131"
   xmlns="http://www.w3.org/2000/svg"
   xmlns:svg="http://www.w3.org/2000/svg">
  <defs
     id="defs4128" />
  <g
     id="layer1"
     transform="translate(139.88241,167.80251)">
    <g
       id="g22805"
       transform="matrix(1.6929659,-0.00991888,-0.30790694,1.7104217,-169.40811,-440.30888)"
       style="fill:#3366cc;fill-opacity:1;stroke-width:0.587968">
      <g
         id="g3339"
         transform="matrix(0.86560932,-0.11794148,0.00266137,0.90708936,34.49137,57.895121)"
         style="fill:#3366cc;stroke-width:0.663409">
        <path
           id="path1361"
           style="fill:#ffffff;fill-opacity:1;fill-rule:evenodd;stroke-width:1.55339;paint-order:stroke fill markers"
           d="m 1546.957,-0.60742188 c -19.0621,-0.00468 -38.6436,1.52836702 -58.6035,4.68749998 C 1216.4909,10.475225 943.65983,390.36746 1019.7246,623.86133 c 41.8178,109.99166 150.8884,178.588 277.3574,178.29492 13.883,-0.4153 27.9934,-1.77813 42.2442,-3.94922 -59.6431,59.49233 -119.2865,118.98433 -178.9297,178.47656 C 932.68006,1046.8277 719.74197,1236.5343 536.64453,1420.0234 314.36366,1625.3834 98.778803,1867.1571 0,2142.2207 45.318381,2193.5879 90.636697,2244.955 135.95508,2296.3223 241.21134,1980 490.11942,1690.4026 751.60742,1461.0332 c 46.10912,-40.3607 94.79184,-78.5465 145.09961,-113.5586 32.91843,227.0052 65.83743,454.0106 98.75586,681.0156 173.73641,-45.5819 347.47251,-91.1641 521.20901,-136.7461 66.746,-226.7962 133.4922,-453.5924 200.2383,-680.3886 205.7209,95.4572 352.7887,284.5286 395.8066,524.0097 -198.6816,52.1265 -397.3633,104.2523 -596.0449,156.3789 -103.6402,352.1589 -207.2798,704.3177 -310.9199,1056.4766 305.2639,-383.1071 610.529,-766.2132 915.7929,-1149.3203 2.0172,20.3385 3.3448,40.9733 3.8828,61.916 -24.4623,98.3693 2.5585,100.8522 77.5801,36.8477 49.443,-33.8612 98.8852,-67.7209 148.3281,-101.5821 1.2494,-205.596 -101.5105,-364.2758 -200.1777,-508.7148 -119.7624,-139.8989 -261.5882,-267.7912 -445.3301,-327.959 -30.305,-8.54463 -61.6946,-14.60494 -93.8867,-18.65429 C 1543.1263,887.99797 1474.3112,835.24212 1405.4961,782.48633 1620.8772,713.74678 1843.6945,477.53495 1833.0098,259.70898 1822.953,101.53374 1702.1776,-0.56931521 1546.957,-0.60742188 Z M 995.46289,2028.4902 c -276.70319,72.5966 -553.40618,145.1924 -830.10937,217.7891 311.1405,164.8801 622.27951,329.7624 933.41988,494.6426 -34.4369,-237.4771 -68.8735,-474.9546 -103.31051,-712.4317 z M 1525.4082,135.9043 c 141.94,-0.08 205.6762,170.07988 133.3496,317.44922 -164.4617,35.01376 -328.9231,70.02915 -493.3848,105.04296 -48.4207,-89.31822 -15.6504,-240.30468 104.2227,-321.01757 52.5474,-40.08458 106.7764,-71.31521 164.8145,-82.50391 9.6088,-2.99533 19.2173,-5.98905 28.8261,-8.98438 22.0752,-6.80866 42.8482,-9.97544 62.1719,-9.98632 z"
           transform="matrix(0.18066319,0.02449036,0.03199855,0.17487387,13.483266,113.865)" />
        <g
           id="g10706"
           style="fill:#3366cc;fill-opacity:1;stroke-width:0.663409" />
      </g>
    </g>
  </g>
</svg>
