<?xml version="1.0" encoding="UTF-8" standalone="no"?>
<!-- Created with Inkscape (http://www.inkscape.org/) -->

<svg
   width="300.98663"
   height="367.23013"
   viewBox="0 0 300.98663 367.23013"
   version="1.1"
   id="svg5"
   sodipodi:docname="logo.svg"
   inkscape:version="1.1.2 (0a00cf5339, 2022-02-04)"
   xmlns:inkscape="http://www.inkscape.org/namespaces/inkscape"
   xmlns:sodipodi="http://sodipodi.sourceforge.net/DTD/sodipodi-0.dtd"
   xmlns="http://www.w3.org/2000/svg"
   xmlns:svg="http://www.w3.org/2000/svg">
  <defs
     id="defs5120" />
  <sodipodi:namedview
     id="namedview5118"
     pagecolor="#ffffff"
     bordercolor="#666666"
     borderopacity="1.0"
     inkscape:pageshadow="2"
     inkscape:pageopacity="0.0"
     inkscape:pagecheckerboard="0"
     showgrid="false"
     inkscape:zoom="2.287394"
     inkscape:cx="138.14848"
     inkscape:cy="250.94059"
     inkscape:window-width="1920"
     inkscape:window-height="1022"
     inkscape:window-x="0"
     inkscape:window-y="0"
     inkscape:window-maximized="1"
     inkscape:current-layer="svg5" />
  <path
     style="fill:#512da8;fill-opacity:1"
     d="m 240.79292,-0.1305504 c -6.86699,0.139642 -13.73464,0.717585 -20.49567,1.94914 -1.72096,0.313487 -3.62574,0.704297 -5.40227,1.124086 -4.84751,1.130232 -9.72927,2.652869 -14.28032,4.4690143 -1.75873,0.7050621 -3.34597,1.3856541 -5.06823,2.1966251 -8.04515,3.740171 -15.47977,8.915821 -22.19744,14.562259 -7.79251,6.594144 -15.02955,13.853254 -21.56957,21.692164 -3.14022,3.79256 -6.17762,7.83002 -8.92239,11.8219 -4.33359,6.30208 -8.3069,13.07524 -11.67999,20.03158 -5.71266,11.46554 -11.61646,22.836822 -17.23345,34.349962 -2.68978,4.87339 -7.67446,8.71174 -13.33647,9.12511 -4.148887,0.0166 -8.410817,-0.0459 -12.491197,0.0836 -5.75386,0.17976 -11.65021,0.60025 -17.41032,1.55219 -3.15288,0.51315 -6.28616,1.14756 -9.39126,1.89686 -1.02456,0.26143 -2.27311,0.61421 -3.36044,0.99147 -2.79012,0.91554 -5.38718,2.3387 -7.72553,4.10784 -0.41795,0.31608 -1.10717,0.80055 -1.61824,1.2047 -5.93011,4.52589 -11.22831,10.09875 -14.60455,16.80506 -3.7889,7.85379 -3.82721,17.56386 0.41058,25.25023 2.00339,3.63351 5.85835,6.37845 10.09238,6.39923 7.4107,0.37105 14.66218,-2.48928 20.58703,-6.79438 2.3392,-1.64911 4.48169,-3.57053 6.37686,-5.71264 2.82858,-2.67392 7.28825,-3.21123 10.78063,-1.59481 4.20053,1.41049 7.97598,4.40471 9.77195,8.52091 1.12156,2.44725 1.45365,5.18221 1.32751,7.84828 0.3267,2.60779 0.5014,5.29683 -0.208,7.85915 -2.73495,16.87401 -9.06135,32.84805 -14.84448,48.84558 -3.8376,9.64723 -7.46638,19.51412 -13.27792,28.19133 -6.26702,8.11505 -14.71612,14.20986 -23.05798,19.95269 -7.19067,5.09299 -14.97306,9.27155 -22.26061,14.21583 -6.65182,4.59857 -12.7909691,10.29191 -16.6334391,17.49726 -2.61583,4.79183 -3.78512,10.29844 -3.58794,15.73955 0.23446,5.16872 0.82444,10.34245 2.02809,15.38001 0.35449,1.54857 0.82216,3.09165 1.77834,4.38628 2.47078,3.63056 6.1259901,6.23383 9.7909691,8.54823 6.45523,4.12669 14.44667,5.45134 21.97169,4.36966 7.59713,-1.22058 15.19944,-2.26002 22.76849,-3.56832 4.92361,-0.89499 9.80537,-2.30818 14.17589,-4.79705 7.93019,-4.28913 14.76456,-10.35741 20.65819,-17.13306 3.89981,-4.44168 7.517777,-9.26922 10.776777,-14.11257 6.32089,-9.32074 11.6712,-19.45488 16.15383,-29.84617 2.264,-5.2678 4.30338,-10.53536 6.20166,-16.03745 0.58228,-1.64123 1.12028,-3.30251 1.68947,-5.01044 2.77349,-8.44071 4.97763,-17.05043 7.23036,-25.64029 3.90911,-15.0673 7.66316,-30.25119 12.08475,-45.20778 0.76466,-2.6619 1.51351,-5.43423 3.31601,-7.61195 3.98895,-5.24613 11.22227,-7.84541 17.60912,-6.07069 4.81068,1.11903 8.68987,4.56142 11.60907,8.40539 2.60599,3.18436 5.09979,6.63812 6.10067,10.69751 1.88772,6.56634 1.17628,13.46691 0.77392,20.18068 -0.2244,3.5418 -0.37452,7.09428 -0.22746,10.64266 0.0367,0.70054 0.0864,1.6863 0.16375,2.49479 0.35613,4.27326 1.46793,8.43202 2.38752,12.60725 0.74757,3.17034 1.59993,6.32455 2.78565,9.36244 0.19932,0.51851 0.53554,1.31311 0.80527,1.93248 1.35036,3.26204 3.58145,6.14924 6.45971,8.20395 2.76133,2.04851 6.02741,3.30239 9.36598,4.03604 3.60655,1.02756 7.28833,1.93576 11.05233,2.51745 5.04044,0.81075 10.33866,0.74978 15.40067,-0.33317 12.46843,-2.43824 23.45929,-10.69754 29.95294,-21.52688 2.10425,-3.51028 3.65008,-7.36421 4.44788,-11.3827 0.0928,-0.47802 0.24847,-1.26376 0.33816,-1.86982 0.1234,-0.78328 0.2261,-1.57013 0.30654,-2.44245 0.23399,-2.52329 0.22702,-5.06739 -0.006,-7.59048 -0.0309,-0.33153 -0.10533,-1.03942 -0.16903,-1.5086 -0.57338,-4.52586 -1.95074,-8.92321 -3.88475,-13.0474 -4.80323,-11.38069 -7.57344,-23.5927 -8.32163,-35.91671 -1.04712,-16.0175 0.29795,-32.13165 3.30225,-47.88069 1.06366,-5.74739 2.42254,-11.4343 3.82533,-17.10616 0.77979,-3.80753 0.30829,-7.94003 -1.76409,-11.27782 -1.6881,-2.87271 -4.47196,-5.36312 -7.88896,-5.75995 -4.16487,-0.76652 -8.57416,-1.61089 -12.70923,-0.24041 -4.80959,1.73863 -8.86969,5.09451 -12.23345,8.88081 -6.75852,7.64668 -11.16846,16.94085 -16.36516,25.63649 -5.14684,8.73603 -10.54728,17.42457 -17.41686,24.93019 -3.14789,3.21447 -7.52754,5.61734 -12.14084,5.25582 -4.86484,-0.35077 -9.3975,-2.75262 -12.98498,-5.96685 -4.13215,-3.78191 -6.89175,-9.27958 -6.66242,-14.95481 0.0923,-5.07071 1.99267,-9.84611 3.17911,-14.71627 4.13647,-14.94394 8.52406,-29.92076 15.21976,-43.953392 4.23781,-8.43058 11.82772,-15.35487 20.98643,-17.95481 6.97001,-2.01391 14.50353,-1.72312 21.40251,0.44023 3.29077,1.02546 6.57724,2.09204 9.97604,2.70825 8.70669,1.74272 17.77325,1.73256 26.45987,-0.12982 1.0246,-0.22267 2.28314,-0.51986 3.38547,-0.82827 9.17631,-2.49516 17.77918,-7.17193 24.77238,-13.62538 3.19635,-3.03625 6.12817,-6.54819 7.56361,-10.7798 1.42155,-3.98695 2.20482,-8.16167 3.10194,-12.28805 1.81663,-10.72518 -2.96589,-22.303669 -11.86797,-28.569012 -4.32169,-2.9780374 -9.4349,-4.5052144 -14.50879,-5.6266724 -0.89697,-0.200256 -2.04061,-0.430535 -2.95829,-0.599771 -6.511,-1.170993 -13.05708,-2.238725 -19.66843,-2.63023 -0.53441,-0.02397 -1.39245,-0.0726 -2.05095,-0.106031 -1.59882,-0.07998 -3.44518,-0.126085 -5.16134,-0.146058 -1.01882,-0.01718 -2.03797,-8.59e-4 -3.05688,-0.0041 z"
     id="path5115" />
</svg>
