<?xml version="1.0" encoding="UTF-8" standalone="no"?>
<svg
   width="29.033367"
   height="35.424889"
   viewBox="0 0 29.033367 35.424888"
   version="1.1"
   id="svg4"
   sodipodi:docname="logo_tiny.svg"
   xmlns:inkscape="http://www.inkscape.org/namespaces/inkscape"
   xmlns:sodipodi="http://sodipodi.sourceforge.net/DTD/sodipodi-0.dtd"
   xmlns="http://www.w3.org/2000/svg"
   xmlns:svg="http://www.w3.org/2000/svg">
  <sodipodi:namedview
     id="namedview1031"
     pagecolor="#ffffff"
     bordercolor="#666666"
     borderopacity="1.0"
     inkscape:pageshadow="2"
     inkscape:pageopacity="0.0"
     inkscape:pagecheckerboard="0"
     showgrid="false" />
  <defs
     id="defs8" />
  <path
     style="fill:#ff0000;fill-opacity:1;stroke-width:0.096465"
     d="M 23.280106,5.6114381e-4 C 22.617686,0.01396114 21.955186,0.06986114 21.302996,0.18860114 c -0.16609,0.0302 -0.34976,0.068 -0.52114,0.10844 -0.4676,0.109 -0.93853,0.2559 -1.37755,0.4311 -0.16972,0.068 -0.32277,0.13363 -0.48889,0.2119 -0.77609,0.36079996 -1.49327,0.86004996 -2.14128,1.40474996 -0.75171,0.63609 -1.44983,1.33635 -2.08072,2.09253 -0.30291,0.36585 -0.59591,0.75532 -0.86069,1.1404 -0.41803,0.60792 -0.80131,1.26129 -1.12671,1.93234 -0.55107,1.10602 -1.12058,2.20296 -1.66243,3.3135699 -0.25946,0.47011 -0.74031,0.84037 -1.2864905,0.88025 -0.40022,0.002 -0.81135,-0.004 -1.20496,0.008 -0.55504,0.0172 -1.12384,0.0578 -1.67949,0.14967 -0.30414,0.0494 -0.6064,0.11072 -0.90593,0.18288 -0.0989,0.0252 -0.21927,0.0592 -0.32416,0.0957 -0.26915,0.0884 -0.51968,0.22561 -0.74523,0.39626 -0.0403,0.0306 -0.10691,0.0771 -0.15616,0.11626 -0.57205,0.4366 -1.08315,0.97418 -1.40883,1.62112 -0.36551,0.75761 -0.36919,1.69429 0.0395,2.43574 0.19325,0.35051 0.56513,0.61531 0.97356,0.61732 0.71488,0.0359 1.41438,-0.24014 1.98593,-0.65542 0.22565,-0.15903 0.43233,-0.34443 0.61514,-0.55107 0.27286,-0.25795 0.70307,-0.30978 1.03996,-0.15387 0.40519,0.13612 0.7694,0.4249 0.94265,0.82196 0.10825,0.23608 0.14032,0.49991 0.1281,0.7571 0.0315,0.25155 0.0483,0.51096 -0.02,0.75812 -0.26381,1.62776 -0.8741,3.16869 -1.43196,4.71188 -0.37019,0.93063 -0.72025,1.88245 -1.28084,2.71949 -0.60456,0.78281 -1.4196,1.37074 -2.2243,1.92473 -0.69364,0.4913 -1.44438,0.89438 -2.14737,1.37133 -0.64167,0.44359 -1.23387998,0.99281 -1.60453998,1.68786 -0.25234,0.46226 -0.36513,0.99345 -0.34611,1.51833 0.0225,0.49859 0.0796,0.99767 0.19564,1.48362 0.0342,0.14929 0.0794,0.29824 0.17162,0.42313 0.23835,0.35021 0.59095,0.60135 0.94448998,0.82459 0.62269,0.39808 1.39359,0.52587 2.11949,0.42152 0.73287,-0.11778 1.46621,-0.21801 2.19637,-0.34422 0.47495,-0.0863 0.94586,-0.22265 1.36748,-0.46273 0.76498,-0.41375 1.42425,-0.99913 1.99279,-1.65275 0.37619,-0.42847 0.72519,-0.89415 1.0395705,-1.36137 0.60976,-0.89913 1.12587,-1.87672 1.55829,-2.87911 0.2184,-0.50815 0.41512,-1.01628 0.59824,-1.54704 0.0561,-0.15826 0.10805,-0.31858 0.16303,-0.48333 0.26754,-0.81423 0.48017,-1.64477 0.69748,-2.4734 0.37707,-1.45346 0.73922,-2.91818 1.16574,-4.36095 0.0737,-0.25679 0.14605,-0.52423 0.31989,-0.7343 0.38479,-0.50605 1.08255,-0.75681 1.69866,-0.5856 0.46405,0.10786 0.83826,0.44001 1.11987,0.81083 0.25138,0.30717 0.49194,0.64034 0.5885,1.03192 0.18213,0.63343 0.1134,1.2991 0.0746,1.94674 -0.0216,0.34165 -0.0361,0.68434 -0.022,1.02664 0.004,0.0676 0.008,0.16265 0.0153,0.24065 0.0344,0.41223 0.14165,0.81339 0.23032,1.21617 0.0722,0.30583 0.15426,0.61009 0.2687,0.90313 0.0193,0.05 0.0517,0.12677 0.0777,0.18652 0.1302,0.31467 0.3455,0.59318 0.62316,0.7914 0.26637,0.19761 0.58142,0.31856 0.90348,0.38933 0.3479,0.0991 0.70306,0.18671 1.06615,0.24285 0.48623,0.0783 0.99733,0.0724 1.48563,-0.0321 1.20276,-0.23519 2.26299,-1.03192 2.88941,-2.07658 0.20299,-0.33862 0.35211,-0.71039 0.42906,-1.09803 0.01,-0.0462 0.0241,-0.12199 0.0326,-0.1804 0.0114,-0.0756 0.0218,-0.15139 0.0296,-0.23562 0.0225,-0.2434 0.022,-0.48883 -6.1e-4,-0.73222 -0.004,-0.0321 -0.01,-0.10022 -0.0172,-0.14547 -0.0554,-0.43658 -0.18823,-0.86077 -0.37472,-1.25862 -0.46335,-1.09782 -0.73058,-2.27586 -0.80274,-3.46469 -0.10099,-1.54514 0.0288,-3.09959 0.31854,-4.61881 0.10252,-0.55443 0.23369,-1.10302 0.369,-1.65015 0.0752,-0.36729 0.0298,-0.76594 -0.17009,-1.08792 -0.16285,-0.27712 -0.43139,-0.51735 -0.76101,-0.55563 -0.40176,-0.0739 -0.8271,-0.1553999 -1.226,-0.0231 -0.46396,0.16781 -0.8556,0.49145 -1.18008,0.85669 -0.65196,0.73764 -1.07738,1.63421 -1.57868,2.47303 -0.49649,0.84272 -1.01743,1.68085 -1.6801,2.40488 -0.30367,0.31009 -0.72615,0.54188 -1.17117,0.50701 -0.46928,-0.0338 -0.90653,-0.26553 -1.25259,-0.57558 -0.39861,-0.36484 -0.66483,-0.89516 -0.6427,-1.44262 0.01,-0.48916 0.19222,-0.94981 0.30667,-1.41961 0.39903,-1.44157 0.82227,-2.88631 1.46818,-4.2399599 0.4088,-0.81326 1.14097,-1.4812 2.02446,-1.73201 0.67235,-0.19427 1.39907,-0.16628 2.06459,0.0424 0.31743,0.0989 0.63447,0.2018 0.96233,0.26125 0.83989,0.16819 1.71449,0.16704 2.55245,-0.0134 0.0989,-0.0216 0.22025,-0.0502 0.32658,-0.08 0.88519,-0.2407 1.71506,-0.69184 2.38966,-1.31437 0.30834,-0.29289 0.59116,-0.63167 0.72963,-1.03988 0.13707,-0.3846 0.21269,-0.78732 0.29922,-1.18535 0.17525,-1.03462 -0.28611,-2.15153 -1.14484,-2.75591996 -0.4169,-0.28727 -0.91014,-0.4346 -1.39959,-0.54278 -0.0865,-0.0193 -0.19684,-0.0414 -0.28536,-0.0579 -0.6281,-0.11301 -1.25956,-0.21597 -1.89732,-0.25373 -0.0515,-0.002 -0.1344,-0.008 -0.19785,-0.01 -0.15426,-0.008 -0.33233,-0.0115 -0.49789,-0.0133999962 -0.0983,-0.002000004 -0.19659,-7e-5 -0.29487,-4e-4 z"
     id="path2" />
</svg>
