<svg width="108" height="108" viewBox="0 0 108 108" fill="none" xmlns="http://www.w3.org/2000/svg">
<path d="M70.4998 21.001C69.262 21.0261 68.0241 21.1305 66.8055 21.3524C66.4951 21.4088 66.152 21.4795 65.8317 21.555C64.958 21.7587 64.078 22.0332 63.2577 22.3606C62.9406 22.4876 62.6546 22.6103 62.3442 22.7565C60.894 23.4307 59.554 24.3635 58.3431 25.3813C56.9385 26.5699 55.6341 27.8784 54.4552 29.2913C53.8892 29.9749 53.3417 30.7027 52.847 31.4222C52.0659 32.5581 51.3497 33.779 50.7417 35.0328C49.712 37.0995 48.6478 39.1492 47.6354 41.2244C47.1506 42.1028 46.2521 42.7946 45.2315 42.8692C44.4837 42.8729 43.7155 42.8617 42.98 42.8841C41.9429 42.9163 40.8801 42.9921 39.8418 43.1638C39.2735 43.2561 38.7087 43.3707 38.149 43.5055C37.9642 43.5526 37.7393 43.6161 37.5433 43.6843C37.0404 43.8495 36.5723 44.1059 36.1508 44.4247C36.0755 44.4819 35.9511 44.5688 35.8591 44.642C34.7902 45.4578 33.8351 46.4623 33.2266 47.6711C32.5436 49.0867 32.5368 50.837 33.3004 52.2224C33.6615 52.8773 34.3564 53.3721 35.1195 53.3759C36.4553 53.4429 37.7624 52.9272 38.8303 52.1512C39.252 51.854 39.6382 51.5076 39.9797 51.1215C40.4896 50.6395 41.2935 50.5427 41.923 50.834C42.6801 51.0883 43.3606 51.6279 43.6843 52.3698C43.8866 52.811 43.9465 53.3039 43.9237 53.7845C43.9826 54.2545 44.0139 54.7393 43.8863 55.2011C43.3934 58.2426 42.253 61.1219 41.2106 64.0054C40.5189 65.7443 39.8648 67.5229 38.8173 69.0869C37.6877 70.5496 36.1648 71.6482 34.6612 72.6833C33.3651 73.6014 31.9623 74.3545 30.6487 75.2457C29.4497 76.0746 28.3432 77.1008 27.6506 78.3996C27.1791 79.2633 26.9683 80.2559 27.0038 81.2366C27.0459 82.1682 27.1526 83.1008 27.3694 84.0088C27.4333 84.2878 27.5178 84.5661 27.6901 84.7994C28.1354 85.4538 28.7943 85.9231 29.4549 86.3402C30.6184 87.0841 32.0589 87.3228 33.4152 87.1279C34.7846 86.9078 36.1549 86.7205 37.5193 86.4847C38.4067 86.3234 39.2866 86.0686 40.0744 85.62C41.5038 84.8469 42.7357 83.7531 43.7981 82.5318C44.501 81.7312 45.1531 80.8611 45.7405 79.988C46.8799 78.308 47.8443 76.4813 48.6523 74.6083C49.0603 73.6588 49.4279 72.7093 49.7701 71.7176C49.8749 71.4219 49.972 71.1223 50.0747 70.8145C50.5746 69.2931 50.9719 67.7412 51.378 66.1928C52.0826 63.477 52.7592 60.7401 53.5562 58.0442C53.6939 57.5644 53.8291 57.0647 54.1539 56.6722C54.8729 55.7266 56.1767 55.258 57.328 55.5779C58.1951 55.7795 58.8943 56.4001 59.4205 57.093C59.8902 57.667 60.3397 58.2895 60.5201 59.0212C60.8604 60.2048 60.732 61.4486 60.6595 62.6588C60.6191 63.2971 60.5921 63.9375 60.6184 64.5771C60.6259 64.7034 60.6334 64.881 60.647 65.0267C60.7113 65.797 60.9117 66.5466 61.0774 67.2992C61.2123 67.8706 61.3656 68.4392 61.5794 68.9867C61.6155 69.0802 61.676 69.2236 61.7246 69.3353C61.9679 69.9232 62.3702 70.4436 62.889 70.814C63.3867 71.1833 63.9754 71.4093 64.5772 71.5415C65.2273 71.7267 65.8909 71.8904 66.5693 71.9953C67.4779 72.1416 68.4329 72.1305 69.3453 71.9353C71.5927 71.4958 73.5738 70.0071 74.7443 68.0551C75.1236 67.4224 75.4022 66.7277 75.546 66.0034C75.5647 65.9171 75.591 65.7755 75.6069 65.6663C75.6282 65.5251 75.6476 65.3834 75.6622 65.2261C75.7043 64.7712 75.7033 64.3127 75.6611 63.8579C75.6536 63.7979 75.6424 63.6706 75.6289 63.5861C75.5254 62.7703 75.2772 61.9777 74.9288 61.2343C74.063 59.183 73.5636 56.9817 73.4288 54.7604C73.2401 51.8732 73.4826 48.9687 74.024 46.1299C74.2156 45.094 74.4607 44.0689 74.7135 43.0466C74.854 42.3603 74.7692 41.6154 74.3957 41.0137C74.0914 40.4959 73.5896 40.0471 72.9737 39.9755C72.223 39.8374 71.4282 39.6852 70.6829 39.9324C69.816 40.2459 69.0842 40.8507 68.4779 41.5331C67.2596 42.9114 66.4647 44.5867 65.528 46.1541C64.6003 47.7287 63.6269 49.2948 62.3887 50.6477C61.8213 51.2271 61.0319 51.6602 60.2003 51.5951C59.3234 51.5319 58.5064 51.0989 57.8598 50.5196C57.115 49.8378 56.6175 48.8469 56.6589 47.824C56.6776 46.91 57.0181 46.0492 57.2319 45.1714C57.9775 42.4777 58.7684 39.7782 59.9753 37.2488C60.7391 35.7292 62.1072 34.4812 63.7581 34.0125C65.0144 33.6495 66.3723 33.7018 67.6158 34.0917C68.209 34.2765 68.8014 34.4688 69.414 34.5799C70.9833 34.8942 72.6176 34.892 74.1833 34.5549C74.3681 34.5145 74.5949 34.4611 74.7936 34.4054C76.4476 33.9556 77.9982 33.1126 79.2587 31.9494C79.8349 31.4021 80.3633 30.7691 80.6221 30.0064C80.8782 29.2877 81.0195 28.5352 81.1812 27.7915C81.5086 25.8583 80.6466 23.7713 79.042 22.6419C78.263 22.1052 77.3414 21.8299 76.4268 21.6277C76.2652 21.5917 76.059 21.5504 75.8936 21.5195C74.72 21.3084 73.5401 21.116 72.3484 21.0454C72.2522 21.0417 72.0972 21.0305 71.9787 21.0268C71.6904 21.0118 71.3577 21.0053 71.0484 21.0017C70.8647 20.998 70.681 21.0016 70.4974 21.001L70.4998 21.001Z" fill="#004F55"/>
</svg>
