<?xml version="1.0" encoding="UTF-8" standalone="no"?>
<!-- Created with Inkscape (http://www.inkscape.org/) -->

<svg
   width="1284"
   height="2778"
   viewBox="0 0 1284 2778"
   version="1.1"
   id="SVGRoot"
   sodipodi:docname="splash.svg"
   inkscape:export-filename="/home/dpk/Documents/project/connect/assets/images/splash-black.png"
   inkscape:export-xdpi="96"
   inkscape:export-ydpi="96"
   inkscape:version="1.1.2 (0a00cf5339, 2022-02-04)"
   xmlns:inkscape="http://www.inkscape.org/namespaces/inkscape"
   xmlns:sodipodi="http://sodipodi.sourceforge.net/DTD/sodipodi-0.dtd"
   xmlns="http://www.w3.org/2000/svg"
   xmlns:svg="http://www.w3.org/2000/svg">
  <sodipodi:namedview
     id="namedview1333"
     pagecolor="#ffffff"
     bordercolor="#666666"
     borderopacity="1.0"
     inkscape:pageshadow="2"
     inkscape:pageopacity="0.0"
     inkscape:pagecheckerboard="0"
     inkscape:document-units="px"
     showgrid="false"
     inkscape:zoom="0.18707912"
     inkscape:cx="1098.4657"
     inkscape:cy="1314.9516"
     inkscape:window-width="1920"
     inkscape:window-height="1022"
     inkscape:window-x="0"
     inkscape:window-y="0"
     inkscape:window-maximized="1"
     inkscape:current-layer="layer1" />
  <defs
     id="defs1328">
    <inkscape:perspective
       sodipodi:type="inkscape:persp3d"
       inkscape:vp_x="0 : 2138 : 1"
       inkscape:vp_y="0 : 1000 : 0"
       inkscape:vp_z="720 : 2138 : 1"
       inkscape:persp3d-origin="360 : 1924.6667 : 1"
       id="perspective2420" />
  </defs>
  <g
     inkscape:label="Layer 1"
     inkscape:groupmode="layer"
     id="layer1"
     style="display:inline"
     transform="translate(281.99999,748.99999)">
    <rect
       style="fill:#000000;fill-opacity:1;stroke:#000000;stroke-width:4.42235;stroke-linejoin:round;stroke-opacity:1;paint-order:stroke fill markers"
       id="rect2585"
       width="1279.5776"
       height="2773.5776"
       x="-279.78882"
       y="-746.78882"
       inkscape:export-filename="/home/dpk/Documents/project/connect/assets/images/splash-black.png"
       inkscape:export-xdpi="96"
       inkscape:export-ydpi="96" />
    <circle
       style="display:inline;fill:#512da8;fill-opacity:1;stroke:#512da8;stroke-width:3.25442;stroke-linejoin:round;stroke-opacity:1;paint-order:stroke fill markers"
       id="path3832-6"
       cx="360"
       cy="640"
       r="269.10379" />
    <path
       id="text126716-9"
       style="font-style:normal;font-weight:normal;font-size:144px;line-height:1.25;font-family:sans-serif;white-space:pre;shape-inside:url(#rect126718);display:inline;fill:#ffffff;fill-opacity:1;stroke:#7b1fa2;stroke-width:0;stroke-miterlimit:4;stroke-dasharray:none;stroke-opacity:1"
       d="m 444.20896,469.79181 c -6.36584,0.1304 -12.73221,0.6651 -18.99981,1.8068 -1.59537,0.2908 -3.36113,0.6528 -5.00803,1.0422 -4.49368,1.0477 -9.01915,2.4593 -13.23808,4.1429 -1.63038,0.6534 -3.10174,1.2843 -4.6983,2.0361 -7.458,3.4674 -14.35002,8.2653 -20.57744,13.4996 -7.22374,6.1128 -13.93258,12.8422 -19.9953,20.1088 -2.91104,3.5159 -5.72676,7.2585 -8.27122,10.959 -4.01728,5.8423 -7.70061,12.1211 -10.82753,18.5699 -5.29573,10.6286 -10.76867,21.17 -15.97569,31.8429 -2.49346,4.5177 -7.11435,8.0761 -12.36311,8.4592 -3.84609,0.023 -7.79696,-0.044 -11.57955,0.077 -5.33391,0.168 -10.79994,0.5562 -16.13963,1.4389 -2.92278,0.4755 -5.82741,1.0636 -8.70587,1.7584 -0.94977,0.2422 -2.10718,0.5692 -3.11519,0.9191 -2.58649,0.8485 -4.994,2.1677 -7.16168,3.8078 -0.38745,0.2931 -1.02639,0.7423 -1.50013,1.1169 -5.49732,4.1957 -10.40884,9.3615 -13.53867,15.5786 -3.51235,7.2805 -3.54786,16.2818 0.38064,23.4074 1.85716,3.3681 5.43079,5.9128 9.3558,5.9321 6.86983,0.3441 13.59206,-2.3076 19.0845,-6.2987 2.16848,-1.5285 4.15461,-3.3099 5.91147,-5.2958 2.62211,-2.4786 6.75633,-2.9765 9.9938,-1.4779 3.89397,1.3071 7.39385,4.083 9.05872,7.8988 1.03973,2.2684 1.34758,4.8038 1.23062,7.2756 0.30288,2.4174 0.46485,4.9099 -0.19286,7.2854 -2.53532,15.6424 -8.40001,30.4508 -13.76107,45.2806 -3.5575,8.9433 -6.92146,18.0897 -12.30882,26.1339 -5.80961,7.5225 -13.64208,13.1729 -21.37514,18.4964 -6.66585,4.7211 -13.88029,8.5949 -20.63592,13.1782 -6.16638,4.263 -11.85746,9.541 -15.41949,16.2204 -2.42493,4.442 -3.50886,9.5469 -3.32607,14.5908 0.21727,4.7915 0.76423,9.5876 1.88007,14.2574 0.32863,1.4356 0.76214,2.8662 1.64853,4.066 2.29046,3.3657 5.67894,5.7791 9.07642,7.9246 5.98407,3.8257 13.39228,5.0533 20.36805,4.0507 7.04269,-1.1313 14.09015,-2.0949 21.10683,-3.3078 4.56425,-0.83 9.08971,-2.1398 13.14124,-4.4469 7.3514,-3.9762 13.68698,-9.6014 19.15051,-15.8827 3.61516,-4.1176 6.96908,-8.5927 9.99024,-13.0825 5.85955,-8.6406 10.81938,-18.0351 14.97483,-27.6678 2.09878,-4.8836 3.98933,-9.7665 5.74904,-14.8673 0.53981,-1.5213 1.03851,-3.0615 1.56621,-4.6446 2.57102,-7.8248 4.6143,-15.8061 6.70265,-23.7691 3.62379,-13.9675 7.10384,-28.0429 11.20274,-41.9084 0.70887,-2.4672 1.40304,-5.0373 3.074,-7.0565 3.69781,-4.8629 10.40322,-7.2724 16.32394,-5.6276 4.45955,1.0375 8.05565,4.2289 10.7618,7.7924 2.41581,2.9517 4.72758,6.1535 5.6554,9.9165 1.74997,6.087 1.09043,12.4842 0.71744,18.7077 -0.20805,3.2835 -0.34717,6.5766 -0.21087,9.8661 0.0341,0.6493 0.08,1.5632 0.15142,2.3127 0.33015,3.9617 1.36079,7.8166 2.21328,11.687 0.69298,2.9393 1.48313,5.8629 2.58232,8.6793 0.18461,0.4804 0.49643,1.2172 0.74651,1.7916 1.2518,3.0238 3.32007,5.7004 5.98826,7.6049 2.5598,1.8989 5.5875,3.0613 8.68243,3.7417 3.34329,0.9524 6.75638,1.7943 10.2457,2.3335 4.67254,0.7515 9.58406,0.695 14.27664,-0.309 11.55844,-2.2599 21.74717,-9.9163 27.76686,-19.9556 1.9507,-3.2542 3.38368,-6.827 4.12325,-10.5518 0.0859,-0.4431 0.23033,-1.1718 0.3135,-1.7336 0.11415,-0.726 0.20958,-1.4553 0.28411,-2.264 0.21674,-2.3392 0.21044,-4.6975 -0.005,-7.0365 -0.0285,-0.3075 -0.0976,-0.9635 -0.15664,-1.3985 -0.53154,-4.1956 -1.80833,-8.272 -3.60122,-12.0953 -4.45266,-10.5498 -7.02069,-21.8708 -7.71427,-33.2951 -0.9707,-14.8486 0.27621,-29.7865 3.06124,-44.3864 0.98603,-5.3279 2.2457,-10.5998 3.54615,-15.8576 0.72285,-3.5296 0.28576,-7.3604 -1.63534,-10.4548 -1.56489,-2.6631 -4.14562,-4.9718 -7.31321,-5.3393 -3.86087,-0.7109 -7.94839,-1.4936 -11.78167,-0.2243 -4.45857,1.6119 -8.22232,4.7228 -11.3406,8.2328 -6.26527,7.0887 -10.35334,15.7042 -15.17075,23.7656 -4.77123,8.0985 -9.77752,16.1528 -16.14573,23.1105 -2.91816,2.9798 -6.97814,5.2074 -11.25472,4.8724 -4.50983,-0.3254 -8.71167,-2.5518 -12.03733,-5.5314 -3.83055,-3.5059 -6.38874,-8.6025 -6.17616,-13.8634 0.0854,-4.7009 1.84723,-9.1275 2.94709,-13.6423 3.83459,-13.8531 7.90193,-27.7373 14.10897,-40.7454 3.92851,-7.8155 10.96448,-14.2344 19.45476,-16.6444 6.46128,-1.8671 13.44501,-1.5976 19.84045,0.4082 3.05064,0.9502 6.09721,1.9391 9.24795,2.5104 8.07126,1.6154 16.47612,1.606 24.52874,-0.1218 0.94983,-0.2056 2.11651,-0.4818 3.13836,-0.7672 8.5066,-2.3136 16.48158,-6.6488 22.96442,-12.6314 2.96308,-2.8145 5.68092,-6.0701 7.01159,-9.9929 1.3178,-3.6961 2.04392,-7.566 2.87555,-11.3914 1.68405,-9.9423 -2.74941,-20.6757 -11.0018,-26.484 -4.00625,-2.7604 -8.74631,-4.1762 -13.44987,-5.2158 -0.83155,-0.1858 -1.89167,-0.3993 -2.74242,-0.5562 -6.03574,-1.0853 -12.10411,-2.0751 -18.23289,-2.4382 -0.49546,-0.023 -1.29083,-0.066 -1.90128,-0.097 -1.48216,-0.073 -3.19376,-0.1171 -4.78465,-0.1347 -0.94447,-0.023 -1.88924,-9e-4 -2.8338,0 z" />
  </g>
  <g
     inkscape:groupmode="layer"
     id="layer4"
     inkscape:label="Layer 3"
     style="display:inline"
     transform="translate(281.99999,748.99999)" />
  <g
     inkscape:groupmode="layer"
     id="layer2"
     inkscape:label="Layer 2"
     style="display:inline"
     transform="translate(281.99999,748.99999)" />
</svg>
