<?xml version="1.0" encoding="UTF-8"?>
<svg xmlns="http://www.w3.org/2000/svg" xmlns:xlink="http://www.w3.org/1999/xlink" width="20.215679" height="24" viewBox="0 0 20.215679 24" version="1.1">
<g id="surface1">
<path style=" stroke:none;fill-rule:nonzero;fill:rgb(70.19608%,70.19608%,70.19608%);fill-opacity:1;" d="M 19.792969 18.703125 C 19.429688 19.542969 19 20.3125 18.5 21.023438 C 17.824219 21.992188 17.269531 22.660156 16.839844 23.03125 C 16.175781 23.640625 15.464844 23.953125 14.703125 23.972656 C 14.15625 23.972656 13.496094 23.816406 12.730469 23.5 C 11.960938 23.1875 11.253906 23.03125 10.605469 23.03125 C 9.925781 23.03125 9.199219 23.1875 8.421875 23.5 C 7.640625 23.816406 7.011719 23.980469 6.535156 23.996094 C 5.804688 24.027344 5.074219 23.707031 4.347656 23.03125 C 3.886719 22.628906 3.304688 21.933594 2.609375 20.953125 C 1.863281 19.902344 1.253906 18.6875 0.773438 17.300781 C 0.257812 15.800781 0 14.351562 0 12.949219 C 0 11.339844 0.347656 9.953125 1.042969 8.789062 C 1.589844 7.855469 2.320312 7.121094 3.230469 6.578125 C 4.140625 6.039062 5.125 5.761719 6.183594 5.746094 C 6.765625 5.746094 7.523438 5.925781 8.46875 6.277344 C 9.414062 6.632812 10.019531 6.808594 10.285156 6.808594 C 10.480469 6.808594 11.152344 6.601562 12.292969 6.183594 C 13.371094 5.792969 14.28125 5.632812 15.027344 5.695312 C 17.046875 5.859375 18.5625 6.65625 19.570312 8.089844 C 17.765625 9.183594 16.871094 10.71875 16.890625 12.683594 C 16.90625 14.214844 17.460938 15.488281 18.554688 16.5 C 19.046875 16.96875 19.601562 17.332031 20.214844 17.589844 C 20.082031 17.976562 19.941406 18.347656 19.792969 18.703125 Z M 15.160156 0.480469 C 15.160156 1.679688 14.722656 2.800781 13.847656 3.839844 C 12.792969 5.070312 11.519531 5.785156 10.132812 5.671875 C 10.117188 5.527344 10.105469 5.375 10.105469 5.21875 C 10.105469 4.066406 10.609375 2.832031 11.5 1.824219 C 11.945312 1.3125 12.507812 0.886719 13.195312 0.550781 C 13.878906 0.214844 14.527344 0.03125 15.136719 0 C 15.152344 0.160156 15.160156 0.320312 15.160156 0.480469 Z M 15.160156 0.480469 "/>
</g>
</svg>
