<?xml version="1.0" encoding="UTF-8"?>
<svg xmlns="http://www.w3.org/2000/svg" xmlns:xlink="http://www.w3.org/1999/xlink" width="24" height="24" viewBox="0 0 24 24" version="1.1">
<g id="surface1">
<path style=" stroke:none;fill-rule:nonzero;fill:rgb(3.137255%,40.000001%,100%);fill-opacity:1;" d="M 24 12 C 24 5.371094 18.628906 0 12 0 C 5.371094 0 0 5.371094 0 12 C 0 17.628906 3.875 22.351562 9.101562 23.648438 L 9.101562 15.667969 L 6.625 15.667969 L 6.625 12 L 9.101562 12 L 9.101562 10.417969 C 9.101562 6.335938 10.949219 4.441406 14.960938 4.441406 C 15.71875 4.441406 17.03125 4.589844 17.566406 4.742188 L 17.566406 8.066406 C 17.285156 8.035156 16.792969 8.019531 16.183594 8.019531 C 14.214844 8.019531 13.453125 8.765625 13.453125 10.703125 L 13.453125 12 L 17.375 12 L 16.699219 15.667969 L 13.453125 15.667969 L 13.453125 23.910156 C 19.394531 23.195312 24 18.136719 24 12 "/>
<path style=" stroke:none;fill-rule:nonzero;fill:rgb(100%,100%,100%);fill-opacity:1;" d="M 16.699219 15.667969 L 17.375 12 L 13.453125 12 L 13.453125 10.703125 C 13.453125 8.765625 14.214844 8.019531 16.183594 8.019531 C 16.792969 8.019531 17.285156 8.035156 17.566406 8.066406 L 17.566406 4.742188 C 17.03125 4.589844 15.71875 4.441406 14.960938 4.441406 C 10.949219 4.441406 9.101562 6.335938 9.101562 10.417969 L 9.101562 12 L 6.625 12 L 6.625 15.667969 L 9.101562 15.667969 L 9.101562 23.648438 C 10.03125 23.875 11 24 12 24 C 12.492188 24 12.976562 23.96875 13.453125 23.914062 L 13.453125 15.667969 Z M 16.699219 15.667969 "/>
</g>
</svg>
