<svg
   width="155.08778mm"
   height="67.32mm"
   viewBox="0 0 155.08778 67.32">
  <g
     id="layer1"
     transform="translate(-154.49905,-385.03089)">
      <path
         style="fill:#512da8"
         d="m 304.97883,432.40689 q 0,2.304 -2.88,4.32 -2.808,2.016 -4.392,2.232 -1.584,0.216 -2.232,0.216 -2.304,0 -4.032,-1.512 -1.728,-1.512 -2.664,-3.888 -1.728,2.304 -4.536,3.816 -2.736,1.512 -5.472,1.512 -1.872,0 -3.312,-0.72 -1.44,-0.792 -3.096,-3.672 -1.584,-2.952 -1.584,-8.856 0,-6.192 2.52,-12.312 2.592,-6.192 6.192,-9.288 3.6,-3.096 6.84,-3.096 4.536,0 6.552,4.176 0.72,0.072 1.08,-0.432 0.36,-0.576 0.432,-1.224 0.144,-0.648 0.144,-1.656 0,-1.44 -0.936,-4.392 -0.936,-2.952 -0.936,-3.744 0,-1.368 0.792,-2.664 0.792,-1.368 2.52,-2.592 1.728,-1.224 3.384,-1.872 1.656,-0.648 3.384,-0.648 1.296,0 2.376,0.288 1.08,0.288 2.232,1.08 1.152,0.792 1.656,2.16 0.576,1.368 0.576,3.168 0,1.44 -0.288,3.24 -0.288,1.728 -1.656,7.344 -1.296,5.544 -2.232,11.52 -0.936,5.976 -0.936,9.072 0,1.584 0.216,4.248 0.288,2.664 0.288,4.176 z m -15.336,-19.368 q -1.008,-0.144 -1.944,0.864 -0.936,1.008 -1.152,2.376 l -1.656,7.416 q -0.288,1.224 0.36,2.232 0.648,1.008 1.8,1.152 1.152,0.144 2.016,-0.504 0.936,-0.72 1.152,-2.016 l 1.584,-8.568 q 0.432,-2.592 -2.16,-2.952 z m -25.8479,12.384 q 0.288,1.512 0.648,3.168 0.432,1.656 0.432,2.52 0,1.224 -0.432,2.304 -0.36,1.008 -1.656,2.52 -1.224,1.512 -3.24,2.448 -2.016,0.864 -4.104,0.864 -2.232,0 -4.032,-0.936 -1.728,-1.008 -2.52,-2.88 -0.792,-1.872 -0.792,-4.248 0,-2.448 1.656,-8.64 1.656,-6.192 1.728,-6.624 0.072,-0.504 0.072,-1.224 0,-1.08 -0.36,-1.872 -0.288,-0.792 -1.08,-0.72 -3.816,0.648 -4.896,4.896 -1.08,4.176 -1.08,10.08 0,0.864 0,1.728 0,0.864 0.072,1.8 0,1.512 -0.144,2.304 -0.072,0.792 -0.864,2.376 -0.792,1.512 -3.168,2.88 -2.304,1.296 -5.04,1.296 -2.232,0 -4.32,-0.864 -2.088,-0.936 -2.952,-2.232 -0.792,-1.368 -0.792,-2.952 0,-1.872 0.792,-3.816 0.864,-1.944 2.016,-3.96 1.224,-2.088 1.656,-4.032 0.504,-2.016 0.504,-3.816 0,-2.376 -0.504,-4.608 -0.432,-2.304 -0.792,-4.176 -0.36,-2.592 2.088,-4.752 2.448,-2.16 5.184,-2.736 2.808,-0.576 4.104,-0.576 2.448,0 3.744,1.44 1.008,1.728 1.656,2.592 0.648,0.864 1.224,0.864 0.288,0 0.72,-0.432 0.432,-0.432 1.656,-1.584 1.296,-1.224 3.672,-2.16 2.448,-0.936 4.752,-0.936 2.448,0 3.888,0.72 1.512,0.72 2.376,2.304 0.864,1.512 0.864,3.528 0,3.168 -1.44,8.28 -1.44,5.112 -1.44,7.776 0,0.504 0.072,1.152 0.072,0.576 0.072,0.936 z m -41.54391,-28.008 q -2.736,1.368 -5.328,1.368 -2.664,0 -4.824,-1.296 -2.088,-1.368 -2.088,-3.528 0,-0.792 0.072,-1.224 0.144,-0.504 0.864,-2.232 0.72,-1.728 3.024,-3.168 2.376,-1.512 5.112,-1.512 2.592,0 4.248,1.008 1.656,1.008 2.232,2.088 0.648,1.008 0.648,2.16 0,1.8 -1.152,3.6 -1.152,1.8 -2.808,2.736 z m -4.608,29.808 q 0.864,1.8 0.864,3.384 0,0.792 -0.288,1.728 -0.216,0.936 -0.792,2.664 -0.504,1.656 -2.952,2.952 -2.376,1.296 -5.112,1.296 -1.368,0 -3.024,-0.432 -1.584,-0.504 -2.88,-1.728 -1.296,-1.296 -1.296,-3.456 0,-3.384 1.944,-11.304 2.016,-7.92 2.016,-11.304 0,-0.648 0,-1.296 -0.144,-0.864 -0.144,-1.296 -0.36,-3.24 2.16,-5.184 2.592,-2.016 6.264,-2.016 2.808,0 4.464,0.936 1.656,0.864 2.088,1.872 0.432,1.008 0.432,2.16 0,0.288 0,0.576 -0.144,0.36 -0.864,3.024 -0.72,2.592 -1.944,7.848 -1.224,5.256 -1.224,7.776 0,1.224 0.288,1.8 z m -41.25597,-28.224 q -1.656,0.36 -4.104,1.944 -2.376,1.584 -3.528,2.16 -1.08,0.504 -2.808,0.504 -2.736,0 -4.68,-1.656 -1.944,-1.656 -1.944,-4.104 0,-1.152 0.288,-2.232 0.36,-1.152 1.656,-3.6 1.296,-2.52 4.968,-4.752 3.672,-2.232 7.848,-2.232 2.232,0 4.608,0.864 2.376,0.792 4.608,1.224 2.232,0.36 4.32,0.36 2.16,0 4.176,-0.432 2.088,-0.432 4.392,-1.008 1.512,-0.144 2.664,1.296 1.152,1.368 1.152,3.456 0,1.44 -0.72,2.88 -0.72,1.368 -2.52,2.736 -1.728,1.368 -3.816,1.872 -2.016,0.504 -4.896,0.504 -1.224,0 -4.104,-0.144 -2.88,-0.144 -3.168,-0.144 -2.376,0 -4.392,0.504 z m 14.688,21.456 q -0.936,0.72 -2.952,0.936 -2.016,0.216 -2.88,0.288 -1.8,0 -2.088,0.144 -0.288,0.072 -0.288,0.864 v 0.864 q 0,9 -2.952,16.056 -2.88,7.128 -8.352,9.936 -5.472,2.808 -8.928,2.808 -2.376,0 -4.248,-1.008 -1.872,-0.936 -2.88,-2.88 -1.008,-1.872 -1.008,-3.672 0,-2.736 1.512,-4.968 1.584,-2.232 5.904,-3.096 4.32,-0.864 6.264,-4.464 1.944,-3.672 1.944,-10.08 0,-0.72 -0.936,-0.72 -0.504,0 -1.584,0.936 -1.08,0.864 -2.88,0.864 -1.008,0 -1.872,-0.504 -0.792,-0.504 -0.792,-1.368 0,-0.576 0.144,-1.008 0.144,-0.432 0.504,-1.656 0.36,-1.224 4.392,-2.952 4.032,-1.728 5.976,-5.472 2.016,-3.744 4.104,-6.552 2.088,-2.808 5.544,-2.808 0.864,0 2.232,0.36 1.368,0.36 2.088,1.224 0.72,0.792 0.72,2.016 0,1.368 -0.864,3.024 -0.864,1.584 -1.368,2.664 -0.504,1.008 -0.504,1.584 0,0.576 0.504,0.576 0.36,0 0.576,-0.072 0.288,-0.072 0.648,-0.36 0.36,-0.36 1.008,-0.72 0.72,-0.36 1.872,-0.36 1.008,0 2.088,0.576 1.08,0.504 1.656,1.44 0.576,0.936 0.576,2.16 0,3.24 -2.88,5.4 z" />
  </g>
</svg>
