<?xml version="1.0" encoding="UTF-8" standalone="no"?>
<!-- Created with Inkscape (http://www.inkscape.org/) -->

<svg
   version="1.1"
   id="svg880"
   width="899.61047"
   height="1097.6017"
   viewBox="0 0 899.61047 1097.6017"
   xmlns="http://www.w3.org/2000/svg"
   xmlns:svg="http://www.w3.org/2000/svg">
  <defs
     id="defs884">
    <rect
       x="262.2868"
       y="2106.1707"
       width="1202.6699"
       height="223.37061"
       id="rect16789" />
  </defs>
  <g
     id="layer1"
     style="display:inline"
     transform="translate(-387.94627,-1088.8204)" />
  <g
     id="g886"
     style="display:inline"
     transform="translate(-387.94627,-1088.8204)">
    <path
       id="text126716"
       style="font-style:normal;font-weight:normal;font-size:144px;line-height:1.25;font-family:sans-serif;white-space:pre;shape-inside:url(#rect126718);fill:#7b1fa2;fill-opacity:1;stroke:#7b1fa2;stroke-width:0;stroke-miterlimit:4;stroke-dasharray:none;stroke-opacity:1"
       d="m 1109.2561,1088.8312 c -20.5245,0.4174 -41.051,2.1448 -61.2588,5.8258 -5.1438,0.9369 -10.8369,2.105 -16.1467,3.3597 -14.4886,3.3781 -29.0795,7.9291 -42.68199,13.3573 -5.25664,2.1074 -10.00069,4.1415 -15.14829,6.5654 -24.04589,11.1789 -46.26698,26.6483 -66.34522,43.5247 -23.2908,19.709 -44.92136,41.4056 -64.46863,64.835 -9.3857,11.3355 -18.46408,23.403 -26.66783,35.3341 -12.95255,18.8361 -24.82826,39.0802 -34.90996,59.8718 -17.07439,34.269 -34.72009,68.2563 -51.50853,102.6676 -8.03939,14.5659 -22.93795,26.0382 -39.86096,27.2737 -12.40048,0.05 -25.13883,-0.1372 -37.33455,0.2497 -17.19754,0.5373 -34.82093,1.7941 -52.03716,4.6393 -9.42353,1.5338 -18.78849,3.4299 -28.06925,5.6695 -3.06225,0.7814 -6.79401,1.8358 -10.04389,2.9633 -8.33931,2.7365 -16.10158,6.9902 -23.09061,12.278 -1.24918,0.9445 -3.30917,2.3924 -4.83672,3.6006 -17.72429,13.5273 -33.55992,30.1836 -43.65106,50.2281 -11.32452,23.4739 -11.43903,52.4959 1.22717,75.4695 5.98787,10.8601 17.50982,19.0644 30.1648,19.1266 22.14962,1.109 43.82332,-7.4401 61.53191,-20.3075 6.99158,-4.929 13.39519,-10.6718 19.05961,-17.0745 8.45425,-7.9919 21.78362,-9.598 32.22189,-4.7665 12.55484,4.2157 23.83914,13.1651 29.20707,25.4677 3.35218,7.3146 4.34476,15.4891 3.96774,23.4577 0.97647,7.7941 1.49863,15.8314 -0.62167,23.4897 -8.1744,50.4344 -27.0832,98.1786 -44.3682,145.9932 -11.47009,28.8343 -22.31603,58.3251 -39.68597,84.2601 -18.73128,24.2547 -43.98454,42.4715 -68.91728,59.6361 -21.49196,15.2223 -44.7525,27.7113 -66.53401,42.4891 -19.88143,13.7446 -38.23055,30.7611 -49.71518,52.297 -7.81837,14.3221 -11.31321,30.7808 -10.72387,47.0434 0.70078,15.4487 2.46413,30.9123 6.06169,45.969 1.05951,4.6284 2.45732,9.2403 5.31521,13.11 7.38486,10.8513 18.30977,18.6321 29.26392,25.5495 19.29386,12.3342 43.17922,16.2933 65.67052,13.0603 22.70679,-3.6481 45.4291,-6.755 68.05201,-10.6653 14.71602,-2.6751 29.30696,-6.8987 42.36987,-14.3377 23.7023,-12.8197 44.12933,-30.9569 61.74462,-51.2085 11.65601,-13.2756 22.46965,-27.7045 32.21038,-42.1806 18.89229,-27.8585 34.88369,-58.1481 48.28166,-89.2064 6.76682,-15.7447 12.86224,-31.4886 18.53595,-47.9336 1.74037,-4.9054 3.34837,-9.8707 5.04963,-14.9755 8.28957,-25.2283 14.87748,-50.9616 21.61058,-76.6356 11.68382,-45.0341 22.90418,-90.4168 36.11972,-135.12 2.28548,-7.956 4.52369,-16.2422 9.91114,-22.7511 11.92244,-15.68 33.54189,-23.4491 52.63133,-18.1446 14.37851,3.3446 25.97287,13.6335 34.69798,25.1225 7.78898,9.5176 15.24261,19.8406 18.2341,31.9736 5.64214,19.6258 3.51574,40.2506 2.31315,60.3173 -0.6707,10.586 -1.11939,21.2038 -0.67985,31.8097 0.10966,2.0936 0.25823,5.04 0.48943,7.4566 1.06443,12.7722 4.38746,25.2021 7.13598,37.6812 2.23441,9.4758 4.78197,18.9033 8.32596,27.9832 0.59573,1.5496 1.60064,3.9247 2.40684,5.776 4.03605,9.7497 10.70447,18.3793 19.30721,24.5204 8.25326,6.1229 18.01521,9.8704 27.99371,12.0632 10.7795,3.0714 21.7838,5.7857 33.0339,7.5245 15.0653,2.4231 30.901,2.2408 46.0306,-0.996 37.2665,-7.2876 70.1168,-31.9735 89.5254,-64.3408 6.2894,-10.492 10.9095,-22.0109 13.294,-34.0215 0.2773,-1.4289 0.7427,-3.7773 1.0108,-5.5886 0.3688,-2.3413 0.6758,-4.6929 0.9162,-7.3004 0.6993,-7.5416 0.6785,-15.1456 -0.017,-22.6869 -0.092,-0.9909 -0.3148,-3.1066 -0.5052,-4.5088 -1.7138,-13.5273 -5.8304,-26.6705 -11.6109,-38.997 -14.3562,-34.0155 -22.636,-70.5155 -24.8723,-107.3505 -3.1297,-47.874 0.8906,-96.0372 9.87,-143.1089 3.1791,-17.1782 7.2407,-34.1758 11.4334,-51.1281 2.3307,-11.3802 0.9215,-23.7317 -5.2726,-33.7079 -5.0455,-8.5862 -13.3661,-16.0297 -23.5791,-17.2158 -12.4482,-2.291 -25.627,-4.8147 -37.9862,-0.7186 -14.3752,5.1966 -26.5104,15.2269 -36.5642,26.5436 -20.2003,22.855 -33.381,50.634 -48.9133,76.6242 -15.3832,26.1109 -31.52443,52.0797 -52.05668,74.5129 -9.40865,9.6077 -22.49883,16.7896 -36.2874,15.709 -14.54035,-1.0485 -28.08788,-8.2273 -38.8104,-17.8341 -12.35045,-11.3036 -20.59852,-27.7355 -19.91308,-44.6981 0.27584,-15.1556 5.95583,-29.4285 9.50194,-43.9847 12.36335,-44.6656 25.47731,-89.4294 45.48987,-131.3711 12.66626,-25.1979 35.35149,-45.8937 62.72571,-53.6646 20.83244,-6.0193 43.34914,-5.1501 63.96924,1.3158 9.8357,3.065 19.6585,6.2529 29.8171,8.0947 26.0231,5.2087 53.1219,5.1784 79.085,-0.3881 3.0624,-0.6655 6.8241,-1.5538 10.1188,-2.4755 27.4267,-7.4578 53.1396,-21.436 74.0414,-40.7245 9.5534,-9.075 18.3163,-19.5717 22.6066,-32.2194 4.2488,-11.9165 6.5899,-24.3942 9.2713,-36.7274 5.4297,-32.0561 -8.8647,-66.6627 -35.4718,-85.389 -12.917,-8.901 -28.1998,-13.4655 -43.365,-16.8174 -2.6809,-0.5986 -6.0991,-1.2868 -8.8419,-1.7927 -19.4604,-3.4999 -39.0258,-6.6912 -58.7863,-7.8614 -1.5973,-0.072 -4.1618,-0.217 -6.13,-0.3169 -4.7787,-0.2389 -10.2972,-0.3768 -15.4266,-0.4365 -3.0451,-0.051 -6.0912,0 -9.1366,-0.011 z" />
  </g>
</svg>
