<svg width="108" height="108" viewBox="0 0 108 108" fill="none" xmlns="http://www.w3.org/2000/svg">
<path d="M67.5828 26.5009C66.5561 26.5216 65.5292 26.6083 64.5184 26.7923C64.2609 26.8391 63.9763 26.8977 63.7106 26.9604C62.9859 27.1293 62.256 27.357 61.5755 27.6286C61.3125 27.734 61.0752 27.8357 60.8178 27.957C59.6149 28.5162 58.5033 29.29 57.4989 30.1343C56.3338 31.1202 55.2518 32.2056 54.2739 33.3776C53.8044 33.9446 53.3503 34.5483 52.9399 35.1451C52.292 36.0874 51.6979 37.1001 51.1936 38.1402C50.3394 39.8544 49.4567 41.5546 48.6169 43.276C48.2148 44.0046 47.4695 44.5785 46.6229 44.6403C46.0026 44.6434 45.3654 44.6341 44.7553 44.6527C43.895 44.6794 43.0134 44.7423 42.1522 44.8847C41.6808 44.9613 41.2123 45.0563 40.7481 45.1682C40.5948 45.2072 40.4082 45.2599 40.2456 45.3165C39.8285 45.4535 39.4402 45.6662 39.0906 45.9307C39.0281 45.9781 38.9249 46.0502 38.8485 46.1109C37.9619 46.7876 37.1697 47.6208 36.6649 48.6235C36.0984 49.7978 36.0927 51.2495 36.7261 52.3988C37.0257 52.942 37.6021 53.3525 38.2351 53.3556C39.3431 53.4112 40.4273 52.9834 41.3132 52.3397C41.6629 52.0932 41.9833 51.8059 42.2666 51.4856C42.6895 51.0858 43.3563 51.0054 43.8785 51.2471C44.5065 51.4581 45.071 51.9057 45.3395 52.5211C45.5073 52.887 45.557 53.2959 45.5381 53.6945C45.5869 54.0844 45.6129 54.4865 45.5071 54.8696C45.0982 57.3925 44.1523 59.7809 43.2876 62.1727C42.7139 63.6151 42.1713 65.0904 41.3024 66.3878C40.3654 67.6011 39.1021 68.5123 37.8549 69.371C36.7798 70.1325 35.6162 70.7572 34.5266 71.4965C33.532 72.184 32.6141 73.0353 32.0396 74.1125C31.6485 74.829 31.4737 75.6523 31.5032 76.4659C31.5381 77.2386 31.6266 78.0122 31.8064 78.7654C31.8594 78.9968 31.9295 79.2276 32.0724 79.4212C32.4418 79.964 32.9884 80.3533 33.5363 80.6993C34.5015 81.3163 35.6963 81.5143 36.8214 81.3526C37.9573 81.1701 39.0939 81.0147 40.2256 80.8191C40.9618 80.6853 41.6917 80.474 42.3452 80.1019C43.5308 79.4606 44.5527 78.5533 45.4339 77.5402C46.0169 76.8761 46.5579 76.1543 47.0451 75.4302C47.9902 74.0366 48.7902 72.5214 49.4604 70.9677C49.7989 70.1801 50.1038 69.3926 50.3876 68.5699C50.4746 68.3246 50.5551 68.0761 50.6403 67.8208C51.055 66.5588 51.3846 65.2715 51.7214 63.9871C52.3058 61.7344 52.8671 59.4641 53.5282 57.2279C53.6424 56.8299 53.7546 56.4154 54.024 56.0898C54.6204 55.3055 55.7019 54.9168 56.6568 55.1822C57.3761 55.3493 57.9561 55.8642 58.3926 56.4389C58.7822 56.915 59.155 57.4314 59.3047 58.0383C59.587 59.0201 59.4805 60.0518 59.4203 61.0557C59.3869 61.5852 59.3644 62.1163 59.3862 62.6469C59.3924 62.7517 59.3986 62.899 59.4099 63.0199C59.4633 63.6588 59.6295 64.2806 59.7669 64.9049C59.8788 65.3789 60.006 65.8505 60.1834 66.3047C60.2133 66.3822 60.2635 66.5012 60.3038 66.5938C60.5056 67.0815 60.8393 67.5132 61.2697 67.8204C61.6825 68.1267 62.1709 68.3141 62.67 68.4238C63.2093 68.5774 63.7597 68.7132 64.3225 68.8002C65.0761 68.9216 65.8683 68.9124 66.6251 68.7505C68.4893 68.3859 70.1326 67.1511 71.1036 65.5319C71.4182 65.0071 71.6493 64.4308 71.7686 63.83C71.7841 63.7584 71.8059 63.6409 71.8191 63.5504C71.8368 63.4332 71.8529 63.3158 71.865 63.1852C71.8998 62.808 71.8991 62.4276 71.864 62.0503C71.8578 62.0006 71.8485 61.895 71.8374 61.8248C71.7515 61.1482 71.5456 60.4907 71.2566 59.8741C70.5384 58.1725 70.1242 56.3466 70.0124 54.504C69.8558 52.1091 70.057 49.6998 70.5061 47.3451C70.665 46.4858 70.8683 45.6355 71.078 44.7875C71.1946 44.2182 71.1242 43.6003 70.8144 43.1013C70.562 42.6717 70.1458 42.2994 69.6349 42.2401C69.0122 42.1255 68.3529 41.9992 67.7346 42.2043C67.0155 42.4644 66.4085 42.966 65.9056 43.5321C64.8951 44.6754 64.2357 46.065 63.4587 47.3651C62.6892 48.6713 61.8818 49.9704 60.8547 51.0926C60.384 51.5732 59.7292 51.9324 59.0394 51.8784C58.3121 51.826 57.6344 51.4668 57.098 50.9863C56.4802 50.4208 56.0675 49.5988 56.1018 48.7503C56.1173 47.9921 56.3998 47.2782 56.5772 46.55C57.1956 44.3156 57.8516 42.0764 58.8528 39.9783C59.4864 38.7178 60.6212 37.6825 61.9905 37.2938C63.0327 36.9927 64.159 37.0361 65.1905 37.3595C65.6825 37.5128 66.1739 37.6723 66.6821 37.7644C67.9839 38.0251 69.3395 38.0233 70.6382 37.7437C70.7915 37.7102 70.9796 37.6659 71.1444 37.6197C72.5164 37.2466 73.8027 36.5474 74.8483 35.5825C75.3262 35.1285 75.7645 34.6034 75.9791 33.9707C76.1916 33.3746 76.3088 32.7504 76.4429 32.1335C76.7145 30.5299 75.9995 28.7987 74.6685 27.862C74.0223 27.4167 73.2578 27.1884 72.4992 27.0207C72.3651 26.9908 72.1941 26.9565 72.0569 26.931C71.0834 26.7558 70.1047 26.5962 69.1162 26.5377C69.0363 26.5346 68.9079 26.5253 68.8095 26.5222C68.5704 26.5098 68.2944 26.5044 68.0378 26.5014C67.8855 26.4983 67.7331 26.5013 67.5808 26.5008L67.5828 26.5009Z" fill="white"/>
</svg>
